<svg version="1.1" xmlns="http://www.w3.org/2000/svg" viewBox="0 0 740 138.5081450918961" width="2220" height="415.5244352756883">
  <!-- svg-source:excalidraw -->
  
  <defs>
    <style class="style-fonts">
      
    </style>
    
  </defs>
  <g stroke-linecap="round" transform="translate(490 10) rotate(0 60 20)"><path d="M0 0 C0 0, 0 0, 0 0 M0 0 C0 0, 0 0, 0 0 M-0.26 6.4 C0.93 4.41, 3.17 3.02, 4.99 0.36 M-0.26 6.4 C1.19 4.86, 2.54 3.13, 4.99 0.36 M0.13 12.04 C4.08 8.16, 5.07 5.73, 10.63 -0.03 M0.13 12.04 C2.43 9.55, 4.56 7.06, 10.63 -0.03 M-0.13 18.44 C3.05 14.64, 4.51 12.53, 15.62 0.33 M-0.13 18.44 C2.76 14.29, 5.41 10.08, 15.62 0.33 M0.27 24.08 C6.87 17.85, 13.71 12.35, 21.26 -0.07 M0.27 24.08 C3.75 19.61, 9.94 14.58, 21.26 -0.07 M0 30.48 C11.12 21.56, 18.96 8.27, 26.25 0.29 M0 30.48 C7.22 22.71, 13.21 14.84, 26.25 0.29 M-0.26 36.88 C12.74 20.68, 27.23 9.34, 31.89 -0.1 M-0.26 36.88 C10.66 24.42, 20.59 13.33, 31.89 -0.1 M2.11 40.26 C12.28 28.33, 20.07 18.92, 36.88 0.26 M2.11 40.26 C10.49 30.06, 17.79 21.64, 36.88 0.26 M7.09 40.62 C19.98 27.53, 30.57 10.84, 42.52 -0.14 M7.09 40.62 C16.03 30.62, 23.48 21.48, 42.52 -0.14 M12.74 40.22 C23.51 28.86, 34.94 15.1, 47.51 0.22 M12.74 40.22 C27.29 24.73, 41.56 9.82, 47.51 0.22 M17.72 40.58 C32.3 24.27, 44.29 13.07, 53.15 -0.17 M17.72 40.58 C26.9 29.97, 35.88 20.7, 53.15 -0.17 M23.37 40.19 C32.45 30.53, 43.82 17.42, 58.14 0.19 M23.37 40.19 C31.43 31.53, 38.76 23.99, 58.14 0.19 M28.35 40.55 C44.28 23.31, 56.42 7.63, 63.78 -0.21 M28.35 40.55 C40 29.06, 50.54 15.4, 63.78 -0.21 M34 40.15 C46.42 27.37, 58.59 10.43, 68.77 0.15 M34 40.15 C44.28 28.37, 53.79 17.67, 68.77 0.15 M38.98 40.51 C46.95 30.23, 56.74 18.69, 74.41 -0.24 M38.98 40.51 C45.25 32.72, 53.9 24.72, 74.41 -0.24 M43.97 40.87 C51.02 30.91, 62.82 21.91, 79.4 0.12 M43.97 40.87 C57.37 26.98, 68.73 11.03, 79.4 0.12 M49.61 40.48 C61.56 27.42, 73.04 12.72, 85.04 -0.28 M49.61 40.48 C63.95 23.51, 77.66 8.16, 85.04 -0.28 M54.6 40.84 C67.3 25.05, 81.08 10.3, 90.03 0.08 M54.6 40.84 C65.55 27.89, 78.43 15.02, 90.03 0.08 M60.24 40.44 C71.39 30.3, 80.5 19.66, 95.67 -0.31 M60.24 40.44 C73.19 25.46, 86.6 10.55, 95.67 -0.31 M65.23 40.8 C76.17 28.81, 85.22 14.91, 100.66 0.05 M65.23 40.8 C72.57 32.43, 81.4 21.69, 100.66 0.05 M70.87 40.41 C86.59 25.84, 100 10.3, 106.3 -0.34 M70.87 40.41 C80.65 28.79, 91.95 17.53, 106.3 -0.34 M75.86 40.77 C86.17 31.67, 92.98 23.07, 111.29 0.02 M75.86 40.77 C85.67 30.68, 93.68 19.05, 111.29 0.02 M81.5 40.37 C95.11 26.3, 107.39 11.44, 116.27 0.38 M81.5 40.37 C93.02 26.83, 102.46 15.18, 116.27 0.38 M86.49 40.73 C95.61 28.7, 106.49 18.1, 120.61 1.49 M86.49 40.73 C98.84 25.03, 111.59 11.35, 120.61 1.49 M92.13 40.34 C103.07 28.89, 110.75 18.22, 120.34 7.89 M92.13 40.34 C100.12 31.9, 109.19 21.41, 120.34 7.89 M97.12 40.7 C103.34 31.5, 112.98 24.8, 120.08 14.29 M97.12 40.7 C102.51 35.58, 107.22 28.62, 120.08 14.29 M102.76 40.31 C105.57 34.43, 111.52 29.97, 120.48 19.93 M102.76 40.31 C106.86 34.13, 112.01 28.65, 120.48 19.93 M107.75 40.67 C112.6 37.14, 114.3 33.97, 120.22 26.33 M107.75 40.67 C110.37 37.84, 113.73 34.21, 120.22 26.33 M113.39 40.27 C116.88 37.7, 118.77 34.6, 120.61 31.97 M113.39 40.27 C114.92 37.68, 116.87 36.07, 120.61 31.97 M118.38 40.63 C118.88 40.12, 119.78 38.96, 120.35 38.37 M118.38 40.63 C118.78 40.1, 119.22 39.56, 120.35 38.37" stroke="#b2f2bb" stroke-width="0.5" fill="none"></path><path d="M0 0 C34.61 1.75, 70.81 -1.02, 120 0 M0 0 C25.75 -1.34, 50.98 -1.67, 120 0 M120 0 C120 13.32, 120.36 28.06, 120 40 M120 0 C119.62 9.85, 119.27 20.72, 120 40 M120 40 C97.39 41.04, 71.72 38.26, 0 40 M120 40 C93.24 40.96, 66.83 41.78, 0 40 M0 40 C1.39 29.78, 1.88 21.11, 0 0 M0 40 C0.18 32.39, -0.56 24.31, 0 0" stroke="transparent" stroke-width="1" fill="none"></path></g><g stroke-linecap="round"><g transform="translate(650 88.12971239363009) rotate(0 40 20.124360152317934)" fill-rule="evenodd"><path d="M0 0 C0 0, 0 0, 0 0 M0 0 C0 0, 0 0, 0 0 M3.02 2.62 C3.7 1.74, 4.24 0.92, 4.99 0.36 M3.02 2.62 C3.43 1.99, 4.03 1.6, 4.99 0.36 M5.38 6 C6.94 4.04, 8.49 3.12, 10.63 -0.03 M5.38 6 C6.21 4.53, 7.4 2.9, 10.63 -0.03 M8.4 8.63 C9.99 6.57, 11.23 4.83, 15.62 0.33 M8.4 8.63 C10.28 6.49, 12.12 4.15, 15.62 0.33 M11.42 11.25 C13.12 9.3, 17.93 5.52, 21.26 -0.07 M11.42 11.25 C14.35 8.59, 16.75 5.14, 21.26 -0.07 M14.44 13.88 C19.22 11.37, 22.12 4.32, 26.25 0.29 M14.44 13.88 C18.85 8.74, 22.85 4.76, 26.25 0.29 M16.8 17.25 C21.18 10.01, 26.89 3.78, 31.89 -0.1 M16.8 17.25 C22.17 11.04, 25.9 7.55, 31.89 -0.1 M2.11 40.26 C6.09 37.06, 8.47 32.89, 10.63 30.45 M2.11 40.26 C3.69 38.08, 5.22 36.51, 10.63 30.45 M19.82 19.88 C26.54 12.13, 30.75 6.4, 36.88 0.26 M19.82 19.88 C25.51 12.38, 32.39 4.15, 36.88 0.26 M7.09 40.62 C17.94 29.96, 28.04 17.83, 42.52 -0.14 M7.09 40.62 C17.32 28.32, 27.07 16.48, 42.52 -0.14 M12.74 40.22 C20.94 30.96, 30.7 20.76, 47.51 0.22 M12.74 40.22 C20.38 29.55, 29.7 21.3, 47.51 0.22 M17.72 40.58 C25.96 27.51, 36.56 18.06, 53.15 -0.17 M17.72 40.58 C29.73 26.86, 43.71 11.96, 53.15 -0.17 M23.37 40.19 C30.92 31.61, 39.05 21.5, 58.14 0.19 M23.37 40.19 C32.12 30.66, 40.19 19.19, 58.14 0.19 M28.35 40.55 C38.27 33.25, 42.27 21.38, 61.81 2.06 M28.35 40.55 C36.46 31.54, 43.23 23.57, 61.81 2.06 M34 40.15 C46.71 28.19, 55.52 13.54, 64.83 4.68 M34 40.15 C44.08 29.11, 51.54 19.8, 64.83 4.68 M38.98 40.51 C45.16 32.62, 51.7 26.67, 67.85 7.31 M38.98 40.51 C49.94 27.3, 61.75 15.14, 67.85 7.31 M43.97 40.87 C49.47 31.42, 57.25 23.83, 70.21 10.68 M43.97 40.87 C51.98 32.34, 57.55 25.78, 70.21 10.68 M49.61 40.48 C56.93 33.49, 61.48 25.53, 73.23 13.31 M49.61 40.48 C58.42 28.96, 68.96 19.25, 73.23 13.31 M54.6 40.84 C62.39 32.47, 71.55 23.3, 76.25 15.93 M54.6 40.84 C61.85 31.97, 68.96 24.26, 76.25 15.93 M60.24 40.44 C64.12 34.98, 71.14 30.27, 79.27 18.56 M60.24 40.44 C65.75 35.18, 69.5 30.27, 79.27 18.56 M-0.18 39.84 C-0.18 39.84, -0.18 39.84, -0.18 39.84 M-0.18 39.84 C-0.18 39.84, -0.18 39.84, -0.18 39.84 M6.21 40.1 C5.15 39.32, 4.58 38.08, 3.2 37.48 M6.21 40.1 C5.06 38.93, 4.05 38.14, 3.2 37.48 M11.86 39.71 C9.76 38.59, 8.37 35.7, 5.82 34.46 M11.86 39.71 C10.39 38.44, 8.98 37.09, 5.82 34.46 M18.26 39.97 C15.04 37.12, 11.49 34.21, 8.44 31.44 M18.26 39.97 C15.93 37.54, 13.78 36.39, 8.44 31.44 M24.65 40.23 C19.04 36.96, 13.24 32.19, 11.07 28.42 M24.65 40.23 C21.94 36.42, 16.98 34.48, 11.07 28.42 M30.3 39.84 C25.82 35.73, 19.33 30.32, 14.45 26.06 M30.3 39.84 C27.26 37.32, 22.18 32.6, 14.45 26.06 M36.69 40.1 C30.76 32.69, 20.24 27.3, 17.07 23.04 M36.69 40.1 C31.97 35.64, 28.06 31.76, 17.07 23.04 M42.34 39.7 C39.17 34.96, 32.56 31.58, 19.7 20.02 M42.34 39.7 C32.3 31.19, 24.51 24.01, 19.7 20.02 M48.74 39.96 C36.75 26.6, 22.23 15.35, 1.94 -0.71 M48.74 39.96 C37.62 30.08, 27 20.92, 1.94 -0.71 M55.13 40.23 C45.13 29.8, 34.47 22.42, 8.34 -0.45 M55.13 40.23 C44.04 29.71, 31.19 18.75, 8.34 -0.45 M60.78 39.83 C51.1 28.9, 38.52 21.3, 13.98 -0.84 M60.78 39.83 C49.11 29.26, 36.04 17.25, 13.98 -0.84 M63.4 36.81 C54.36 29.74, 44.62 22.25, 20.38 -0.58 M63.4 36.81 C50.81 25.33, 37.7 15.08, 20.38 -0.58 M66.02 33.79 C51.86 22.35, 40.08 8.98, 26.78 -0.32 M66.02 33.79 C55.32 23.74, 41.79 13.84, 26.78 -0.32 M68.65 30.77 C60.95 22.01, 47.72 12.84, 32.42 -0.72 M68.65 30.77 C56.61 21.97, 46.13 11.76, 32.42 -0.72 M72.03 28.41 C62.89 19.45, 51.88 9.52, 38.82 -0.45 M72.03 28.41 C64.59 21.16, 57.21 15.41, 38.82 -0.45 M74.65 25.39 C65.64 16.25, 54.02 7.85, 44.46 -0.85 M74.65 25.39 C66.63 18, 57.07 9.18, 44.46 -0.85 M77.28 22.37 C68.93 15.22, 59.48 6.39, 50.86 -0.59 M77.28 22.37 C70.52 17.49, 63.43 11.09, 50.86 -0.59 M79.9 19.36 C74.8 15.38, 66.97 9.33, 57.26 -0.33 M79.9 19.36 C72.3 12.31, 64.74 5.93, 57.26 -0.33" stroke="#40c057" stroke-width="0.5" fill="none"></path><path d="M0 0 C3.67 5.74, 7.68 8.07, 20 20 M0 0 C7.43 7.74, 13.58 13.75, 20 20 M20 20 C13.95 25.14, 5.27 34.49, 0 40 M20 20 C13.81 26.31, 7.85 32.59, 0 40 M0 40 C18.12 38.29, 36.04 41.39, 60 40 M0 40 C21.04 41.08, 43.01 39.44, 60 40 M60 40 C67.64 33.03, 73.05 28.6, 80 20 M60 40 C67.99 31.52, 75.86 24.3, 80 20 M80 20 C74.52 15.05, 65.35 7.53, 60 0 M80 20 C74.67 14.12, 67.75 9.33, 60 0 M60 0 C47.59 -0.62, 34.84 1.28, 0 0 M60 0 C44.5 -0.42, 27.08 0.63, 0 0 M0 0 C0 0, 0 0, 0 0 M0 0 C0 0, 0 0, 0 0" stroke="#1e1e1e" stroke-width="1" fill="none"></path></g></g><mask></mask><g stroke-linecap="round"><g transform="translate(10 88.15407492006426) rotate(0 40 19.996065397326106)" fill-rule="evenodd"><path d="M0 0 C0 0, 0 0, 0 0 M0 0 C0 0, 0 0, 0 0 M3.02 2.62 C3.56 1.83, 4.42 1.01, 4.99 0.36 M3.02 2.62 C3.4 1.97, 4.07 1.62, 4.99 0.36 M5.38 6 C7.65 3.94, 9.94 1.29, 10.63 -0.03 M5.38 6 C6.9 4.29, 9.18 2.17, 10.63 -0.03 M8.4 8.63 C9.12 7, 11.01 4.92, 15.62 0.33 M8.4 8.63 C10.5 5.09, 13.56 1.93, 15.62 0.33 M11.42 11.25 C14.35 8.89, 16.04 4.1, 21.26 -0.07 M11.42 11.25 C15.18 7.33, 19.25 2.53, 21.26 -0.07 M14.44 13.88 C16.67 9.79, 20.19 5.59, 26.25 0.29 M14.44 13.88 C17.76 9.56, 22.08 4.1, 26.25 0.29 M16.8 17.25 C21.06 10.45, 25.4 6.15, 31.89 -0.1 M16.8 17.25 C20.87 13.75, 24.3 9.83, 31.89 -0.1 M2.11 40.26 C4.65 37.8, 6.42 34.35, 10.63 30.45 M2.11 40.26 C4.46 37.92, 6.19 36.08, 10.63 30.45 M19.82 19.88 C28.55 11.39, 31.47 5.96, 36.88 0.26 M19.82 19.88 C26.44 12.81, 30.19 6.92, 36.88 0.26 M7.09 40.62 C15.63 28.33, 27 20.37, 42.52 -0.14 M7.09 40.62 C17.29 29.81, 26.35 19.35, 42.52 -0.14 M12.74 40.22 C19.82 31.85, 28.42 22.08, 47.51 0.22 M12.74 40.22 C21.21 32.18, 29.98 21.03, 47.51 0.22 M17.72 40.58 C25.32 32.3, 33.17 21.55, 53.15 -0.17 M17.72 40.58 C27.61 29.04, 39.37 15.43, 53.15 -0.17 M23.37 40.19 C33.54 31.66, 40.68 18.03, 58.14 0.19 M23.37 40.19 C36.25 26.19, 47.81 12.22, 58.14 0.19 M28.35 40.55 C40.75 25.47, 52.44 12.28, 61.81 2.06 M28.35 40.55 C39.51 26.05, 51.44 12.78, 61.81 2.06 M34 40.15 C39.59 33.88, 47.02 22.84, 64.83 4.68 M34 40.15 C44.71 28.34, 55.69 15.19, 64.83 4.68 M38.98 40.51 C45.36 31.6, 50.9 26.02, 67.85 7.31 M38.98 40.51 C48.11 29.59, 58 19.36, 67.85 7.31 M43.97 40.87 C53.82 30.47, 60.82 19.84, 70.21 10.68 M43.97 40.87 C52.98 29.2, 63.43 19.23, 70.21 10.68 M49.61 40.48 C57.17 33.81, 64.69 23.45, 73.23 13.31 M49.61 40.48 C58.31 30.28, 67.43 18.47, 73.23 13.31 M54.6 40.84 C62.27 34.33, 67.48 25.64, 76.25 15.93 M54.6 40.84 C60.18 34.82, 63.53 30.69, 76.25 15.93 M60.24 40.44 C69.05 30.57, 74.95 21.63, 79.27 18.56 M60.24 40.44 C66.2 32.08, 73.59 25.9, 79.27 18.56 M-0.18 39.84 C-0.18 39.84, -0.18 39.84, -0.18 39.84 M-0.18 39.84 C-0.18 39.84, -0.18 39.84, -0.18 39.84 M6.21 40.1 C5.47 39.43, 4.44 38.86, 3.2 37.48 M6.21 40.1 C5.13 39.1, 4.14 38.1, 3.2 37.48 M11.86 39.71 C9.5 38.5, 6.74 35.23, 5.82 34.46 M11.86 39.71 C9.65 38.16, 7.99 36.27, 5.82 34.46 M18.26 39.97 C14.24 38.04, 12.99 33.58, 8.44 31.44 M18.26 39.97 C16.17 38.49, 12.97 35.43, 8.44 31.44 M24.65 40.23 C20.09 35.76, 14.87 32.78, 11.07 28.42 M24.65 40.23 C22.04 38.28, 18.34 34.84, 11.07 28.42 M30.3 39.84 C23.79 33.88, 19.1 32.03, 14.45 26.06 M30.3 39.84 C24.69 35.78, 19.37 30.62, 14.45 26.06 M36.69 40.1 C32.06 35.68, 27.04 31.46, 17.07 23.04 M36.69 40.1 C32.06 37.04, 28.45 33.48, 17.07 23.04 M42.34 39.7 C33.18 34.84, 27.7 26.28, 19.7 20.02 M42.34 39.7 C36.22 35.26, 30.75 29.78, 19.7 20.02 M48.74 39.96 C29 24.56, 13.04 7.01, 1.19 -1.37 M48.74 39.96 C38.36 31.67, 29.37 22.48, 1.19 -1.37 M55.13 40.23 C36.86 25.6, 19.52 8.88, 7.59 -1.11 M55.13 40.23 C42.36 28.15, 28.75 17.82, 7.59 -1.11 M60.78 39.83 C47.84 30.25, 35.78 15.68, 13.23 -1.5 M60.78 39.83 C42.99 25.81, 26.88 9.2, 13.23 -1.5 M63.4 36.81 C52.8 26.27, 43.23 18.39, 19.63 -1.24 M63.4 36.81 C46.9 23.74, 32.14 10.06, 19.63 -1.24 M66.02 33.79 C53.45 22.44, 37.45 10.66, 25.27 -1.63 M66.02 33.79 C56 24.6, 43.93 14.54, 25.27 -1.63 M68.65 30.77 C59 21.79, 45.91 10.54, 31.67 -1.37 M68.65 30.77 C61.77 25.19, 54.07 18.76, 31.67 -1.37 M72.03 28.41 C62.57 18.4, 52.31 8.22, 38.07 -1.11 M72.03 28.41 C62.12 20.04, 51.66 9.95, 38.07 -1.11 M74.65 25.39 C65.43 16.55, 54.17 7.9, 43.71 -1.51 M74.65 25.39 C67.69 18.37, 59.24 12.88, 43.71 -1.51 M77.28 22.37 C71.19 17.5, 66.31 12.63, 50.11 -1.24 M77.28 22.37 C66.12 12.24, 55.28 3.96, 50.11 -1.24 M79.9 19.36 C73.75 12.32, 67.76 9.31, 55.75 -1.64 M79.9 19.36 C74.17 13.72, 67.92 9.01, 55.75 -1.64" stroke="#40c057" stroke-width="0.5" fill="none"></path><path d="M0 0 C6.91 7.2, 16.61 16.44, 20 20 M0 0 C4.4 5.29, 8.74 9.49, 20 20 M20 20 C14.3 27.93, 4.48 35.69, 0 40 M20 20 C15.06 24.9, 12.06 28.24, 0 40 M0 40 C22.17 40.75, 43.31 38.29, 60 40 M0 40 C21.68 39.51, 43.99 39.16, 60 40 M60 40 C66.62 33.67, 74.85 23.6, 80 20 M60 40 C67.33 31.57, 75.57 24.65, 80 20 M80 20 C73.72 14.13, 66.46 6.94, 60 0 M80 20 C73.29 12.5, 65.63 6.21, 60 0 M60 0 C36.61 -0.45, 15.07 0.25, 0 0 M60 0 C42.73 -0.27, 23.82 0.21, 0 0 M0 0 C0 0, 0 0, 0 0 M0 0 C0 0, 0 0, 0 0" stroke="#1e1e1e" stroke-width="1" fill="none"></path></g></g><mask></mask><g stroke-linecap="round" transform="translate(130 10) rotate(0 80 20.000000000000014)"><path d="M0 0 C0 0, 0 0, 0 0 M0 0 C0 0, 0 0, 0 0 M-0.26 6.4 C1.94 4.79, 2.41 3.37, 4.99 0.36 M-0.26 6.4 C1.22 5.37, 2.24 3.96, 4.99 0.36 M0.13 12.04 C3.98 8.3, 6.89 4.21, 10.63 -0.03 M0.13 12.04 C4.36 8.61, 6.97 3.41, 10.63 -0.03 M-0.13 18.44 C3.99 13.83, 9.64 6.33, 15.62 0.33 M-0.13 18.44 C6.56 12.08, 12.26 5.04, 15.62 0.33 M0.27 24.08 C5.66 17.62, 9.01 12.08, 21.26 -0.07 M0.27 24.08 C7.78 14.35, 15.88 4.96, 21.26 -0.07 M0 30.48 C10.28 21.37, 18.77 8.57, 26.25 0.29 M0 30.48 C8.09 21.6, 15.15 14.91, 26.25 0.29 M-0.26 36.88 C10.35 25.18, 18.36 15.07, 31.89 -0.1 M-0.26 36.88 C10.6 23.45, 23.22 11.42, 31.89 -0.1 M2.11 40.26 C13 27.42, 20.64 18.61, 36.88 0.26 M2.11 40.26 C14.88 24.72, 27.7 11.39, 36.88 0.26 M7.09 40.62 C19.78 25.46, 32.44 11.85, 42.52 -0.14 M7.09 40.62 C17.76 27.89, 27.43 15.43, 42.52 -0.14 M12.74 40.22 C24.63 26.02, 37.66 11.09, 47.51 0.22 M12.74 40.22 C24.56 25.92, 35.8 12.47, 47.51 0.22 M17.72 40.58 C23.99 32.43, 33.88 24.19, 53.15 -0.17 M17.72 40.58 C25.94 32.34, 33.18 23.72, 53.15 -0.17 M23.37 40.19 C35.25 24.84, 50.52 11.5, 58.14 0.19 M23.37 40.19 C34.8 27.8, 44.28 15, 58.14 0.19 M28.35 40.55 C38.59 31.08, 48.76 19.93, 63.78 -0.21 M28.35 40.55 C39.13 26.5, 51.29 13.89, 63.78 -0.21 M34 40.15 C43.97 30.92, 52.67 20.22, 68.77 0.15 M34 40.15 C45.61 25.38, 59.11 11.82, 68.77 0.15 M38.98 40.51 C47.58 31.72, 57.5 21.95, 74.41 -0.24 M38.98 40.51 C47.89 30.91, 56.25 19.04, 74.41 -0.24 M43.97 40.87 C50.46 32.56, 60.83 22.8, 79.4 0.12 M43.97 40.87 C57.88 25.08, 71.52 9.74, 79.4 0.12 M49.61 40.48 C65.23 22.52, 76.15 6.73, 85.04 -0.28 M49.61 40.48 C58.76 31.33, 66.49 21.83, 85.04 -0.28 M54.6 40.84 C66.3 27.46, 79.99 10.7, 90.03 0.08 M54.6 40.84 C64.57 27.48, 75.12 15.54, 90.03 0.08 M60.24 40.44 C71.9 25.09, 85.69 12.74, 95.67 -0.31 M60.24 40.44 C69.62 29.76, 80.21 18.29, 95.67 -0.31 M65.23 40.8 C79.08 24.48, 89.02 10.5, 100.66 0.05 M65.23 40.8 C80.24 24.58, 93.12 9.18, 100.66 0.05 M70.87 40.41 C80.55 30.2, 89.12 19.38, 106.3 -0.34 M70.87 40.41 C78.4 32.04, 87.3 21.22, 106.3 -0.34 M75.86 40.77 C82.88 33.13, 91.89 25.52, 111.29 0.02 M75.86 40.77 C89.55 25.81, 102.46 9.6, 111.29 0.02 M81.5 40.37 C90.58 29.05, 99.78 18.85, 116.27 0.38 M81.5 40.37 C91.47 28.06, 101.59 16.34, 116.27 0.38 M86.49 40.73 C97.63 26.97, 108.22 14.97, 121.92 -0.02 M86.49 40.73 C99.99 25.93, 112.17 9.68, 121.92 -0.02 M92.13 40.34 C100.61 33.28, 107.88 23.4, 126.91 0.34 M92.13 40.34 C104.72 27.01, 117.43 11.16, 126.91 0.34 M97.12 40.7 C106.66 30.25, 116.37 17.37, 132.55 -0.05 M97.12 40.7 C106.08 29.4, 116.38 17, 132.55 -0.05 M102.76 40.31 C112.52 28.68, 120.41 16.15, 137.54 0.31 M102.76 40.31 C111.29 32.68, 117.69 23.12, 137.54 0.31 M107.75 40.67 C116.78 27.26, 128.01 15.13, 143.18 -0.09 M107.75 40.67 C116.07 30.79, 123.12 21.98, 143.18 -0.09 M113.39 40.27 C121.03 30.45, 127.67 21.51, 148.17 0.27 M113.39 40.27 C125.63 25.67, 138.1 13.21, 148.17 0.27 M118.38 40.63 C129.01 31.11, 137.58 19.68, 153.81 -0.12 M118.38 40.63 C129.18 27.49, 140.48 14.7, 153.81 -0.12 M124.02 40.24 C136.34 25.26, 148.45 11.55, 158.8 0.24 M124.02 40.24 C137.27 26.77, 149.32 11.47, 158.8 0.24 M129.01 40.6 C139.32 26.94, 151.79 12.13, 160.5 4.37 M129.01 40.6 C139.1 29.49, 146.84 18.42, 160.5 4.37 M134.65 40.2 C143.23 29.8, 152.18 20.1, 160.24 10.77 M134.65 40.2 C144.29 29.33, 151.82 19.03, 160.24 10.77 M139.64 40.56 C147.02 33.73, 152.67 26.08, 159.98 17.17 M139.64 40.56 C144.13 33.32, 151 28.8, 159.98 17.17 M145.28 40.17 C149.38 34.72, 154.26 28.19, 160.37 22.81 M145.28 40.17 C150.87 34.15, 154.42 29.81, 160.37 22.81 M150.27 40.53 C154.24 36, 155.58 34.53, 160.11 29.21 M150.27 40.53 C153.24 35.66, 157.16 32.56, 160.11 29.21 M155.91 40.13 C157.87 37.95, 158.64 36.79, 160.51 34.85 M155.91 40.13 C157.39 37.82, 159.12 36.16, 160.51 34.85" stroke="#b2f2bb" stroke-width="0.5" fill="none"></path><path d="M0 0 C33.85 1.62, 64.93 0, 160 0 M0 0 C36.62 0.48, 73.3 -0.62, 160 0 M160 0 C161.16 10.49, 160.73 18.5, 160 40 M160 0 C160.99 13.23, 160.3 28.42, 160 40 M160 40 C100.87 41.24, 40.62 42.52, 0 40 M160 40 C110.33 40.51, 60.04 39.35, 0 40 M0 40 C0.93 26.07, 0.83 7.47, 0 0 M0 40 C0.78 27.66, -0.42 17.16, 0 0" stroke="transparent" stroke-width="1" fill="none"></path></g><g stroke-linecap="round" transform="translate(130 10) rotate(0 80 40.00000000000003)"><path d="M0 0 C45.92 -1.33, 91.35 -1.18, 160 0 M0 0 C51.38 -1.65, 103.81 -0.58, 160 0 M160 0 C160.71 27.51, 161.39 55.23, 160 80 M160 0 C160.77 18.75, 161.37 36.7, 160 80 M160 80 C105.3 82.39, 51.8 80.59, 0 80 M160 80 C111.48 79.92, 62.98 81.48, 0 80 M0 80 C0.65 54.66, -0.63 32.5, 0 0 M0 80 C-1.03 53.03, -1.34 24.47, 0 0" stroke="#1e1e1e" stroke-width="1" fill="none"></path></g><g stroke-linecap="round"><g transform="translate(130 50) rotate(0 80 0.19133923297296462)"><path d="M0 0 C58.24 0.11, 119.75 -0.81, 160 0 M0 0 C61.82 1.18, 125.49 0.71, 160 0" stroke="#1e1e1e" stroke-width="1" fill="none"></path></g></g><mask></mask><g stroke-linecap="round"><g transform="translate(210.95162911005298 30) rotate(0 -0.4036451876685021 30)"><path d="M0 0 C-0.15 16.56, 0.85 33.24, -0.95 60 M0 0 C-0.31 17.27, -0.26 33.91, -0.95 60" stroke="#1e1e1e" stroke-width="1" fill="none"></path></g></g><mask></mask><g stroke-linecap="round"><g transform="translate(170.82678474642682 10) rotate(0 -0.08909319555056427 40)"><path d="M0 0 C1.78 22.15, -0.66 46.39, -0.83 80 M0 0 C0.71 31.17, -0.15 62.49, -0.83 80" stroke="#1e1e1e" stroke-width="1" fill="none"></path></g></g><mask></mask><g stroke-linecap="round"><g transform="translate(170 30) rotate(0 60.000000000000014 0.1990748140889309)"><path d="M0 0 C29.96 -0.4, 62.43 1.86, 120 0 M0 0 C41.06 0.3, 82.22 -0.91, 120 0" stroke="#1e1e1e" stroke-width="1" fill="none"></path></g></g><mask></mask><g stroke-linecap="round"><g transform="translate(251.23819375405833 30) rotate(0 -0.14291573061056795 30)"><path d="M0 0 C1.43 13.46, 0.3 26.77, -0.95 60 M0 0 C0.25 18.47, 0.31 37.41, -0.95 60" stroke="#1e1e1e" stroke-width="1" fill="none"></path></g></g><mask></mask><g stroke-linecap="round"><g transform="translate(271.4654554084459 30) rotate(0 -0.19082908579657953 30)"><path d="M0 0 C1.12 15.03, 0.47 27.58, -0.95 60 M0 0 C0.75 20.29, -0.28 42.53, -0.95 60" stroke="#1e1e1e" stroke-width="1" fill="none"></path></g></g><mask></mask><g stroke-linecap="round"><g transform="translate(231.23819375405822 30) rotate(0 -0.3113076005507551 30)"><path d="M0 0 C0.3 20.73, 0.66 41.65, -0.95 60 M0 0 C0.39 14.1, 0.76 27.41, -0.95 60" stroke="#1e1e1e" stroke-width="1" fill="none"></path></g></g><mask></mask><g stroke-linecap="round"><g transform="translate(191.43848205315908 30) rotate(0 -0.463108242341832 30)"><path d="M0 0 C0.82 23.15, -1.95 46.13, -0.95 60 M0 0 C0.59 12.26, 0.06 25.55, -0.95 60" stroke="#1e1e1e" stroke-width="1" fill="none"></path></g></g><mask></mask><g stroke-linecap="round" transform="translate(330 10) rotate(0 60 10)"><path d="M0 0 C0 0, 0 0, 0 0 M0 0 C0 0, 0 0, 0 0 M-0.26 6.4 C0.82 3.88, 2.15 3.49, 4.99 0.36 M-0.26 6.4 C1.49 4.37, 3.09 2.95, 4.99 0.36 M0.13 12.04 C1.34 7.65, 4.21 4.81, 10.63 -0.03 M0.13 12.04 C2.92 9.55, 5.66 5.27, 10.63 -0.03 M-0.13 18.44 C3.92 15.44, 7.02 11.65, 15.62 0.33 M-0.13 18.44 C5.8 12.17, 12.73 4.69, 15.62 0.33 M2.23 21.82 C7.68 13.88, 12.52 8.06, 21.26 -0.07 M2.23 21.82 C8.67 15.95, 14.22 8.96, 21.26 -0.07 M7.22 22.18 C12.81 13.69, 21.57 5.43, 26.25 0.29 M7.22 22.18 C11.98 17.54, 16 12.69, 26.25 0.29 M12.86 21.78 C19.4 14.68, 27.93 4.91, 31.89 -0.1 M12.86 21.78 C20.82 14.14, 28.26 4.14, 31.89 -0.1 M17.85 22.14 C26.62 13.36, 30.56 3.89, 36.88 0.26 M17.85 22.14 C24.77 15.37, 31 7.83, 36.88 0.26 M23.49 21.75 C27.67 16.39, 32.73 14.5, 42.52 -0.14 M23.49 21.75 C29.62 12.86, 36.81 4.84, 42.52 -0.14 M28.48 22.11 C35.14 15.44, 41.22 9.88, 47.51 0.22 M28.48 22.11 C35.86 14.62, 41.54 6.11, 47.51 0.22 M34.12 21.71 C37.24 14.27, 42.95 11.08, 53.15 -0.17 M34.12 21.71 C38.91 15.85, 45.23 9.42, 53.15 -0.17 M39.11 22.07 C45.81 17.3, 50.5 10.25, 58.14 0.19 M39.11 22.07 C45.77 12.69, 53.61 5.37, 58.14 0.19 M44.75 21.68 C48.1 15.96, 53.57 11.75, 63.78 -0.21 M44.75 21.68 C52.2 13.1, 59.39 5.05, 63.78 -0.21 M49.74 22.04 C57.06 16.29, 59.52 7.41, 68.77 0.15 M49.74 22.04 C55.27 16.9, 60.78 10.86, 68.77 0.15 M55.38 21.65 C63.09 13.12, 68.71 5.49, 74.41 -0.24 M55.38 21.65 C60.59 15.03, 66.37 9.4, 74.41 -0.24 M60.37 22.01 C66.4 13.8, 73.29 6.55, 79.4 0.12 M60.37 22.01 C65.55 15.42, 71.62 8.71, 79.4 0.12 M66.02 21.61 C71.88 13.79, 74.97 8.15, 85.04 -0.28 M66.02 21.61 C72 15.92, 76.6 9.78, 85.04 -0.28 M71 21.97 C78.34 15.98, 81 9.17, 90.03 0.08 M71 21.97 C78.68 13.46, 85.11 5.93, 90.03 0.08 M76.65 21.58 C84.06 12.9, 89.01 5.91, 95.67 -0.31 M76.65 21.58 C80.62 15.72, 84.17 10.88, 95.67 -0.31 M81.63 21.94 C88.32 15.83, 91.33 10.07, 100.66 0.05 M81.63 21.94 C87.5 14.26, 94 6.31, 100.66 0.05 M87.28 21.54 C91.2 14.13, 97.11 8.2, 106.3 -0.34 M87.28 21.54 C94.09 12.62, 101.34 5.81, 106.3 -0.34 M92.26 21.9 C98.1 15.17, 108.34 3.98, 111.29 0.02 M92.26 21.9 C98.31 15.81, 103.41 9.14, 111.29 0.02 M97.25 22.26 C103.89 13.95, 110.92 9.07, 116.27 0.38 M97.25 22.26 C104.55 13.25, 112.49 6.13, 116.27 0.38 M102.89 21.87 C110.26 16.02, 114.02 10.01, 121.26 0.74 M102.89 21.87 C109.26 14.29, 115.09 6.9, 121.26 0.74 M107.88 22.23 C111.2 16.24, 114.26 14.13, 121 7.13 M107.88 22.23 C112.1 17.19, 116.68 12.82, 121 7.13 M113.52 21.83 C114.56 18.78, 116.27 17.3, 121.4 12.78 M113.52 21.83 C116.35 18.93, 118.95 14.83, 121.4 12.78" stroke="#b2f2bb" stroke-width="0.5" fill="none"></path><path d="M0 0 C47.91 2.37, 94.01 2.49, 120 0 M0 0 C27.21 -0.54, 53.51 -0.6, 120 0 M120 0 C118.54 6.85, 118.71 14.14, 120 20 M120 0 C120.62 7.4, 120.44 12.84, 120 20 M120 20 C88.9 17.08, 55.92 20.2, 0 20 M120 20 C85.89 19.66, 50.42 19.97, 0 20 M0 20 C-1.03 11.72, 1.88 6.41, 0 0 M0 20 C0.72 13.74, -0.17 9.33, 0 0" stroke="transparent" stroke-width="1" fill="none"></path></g><g stroke-linecap="round" transform="translate(330 10) rotate(0 60 40.00000000000003)"><path d="M0 0 C24.02 0.6, 46.77 -2.69, 120 0 M0 0 C35.86 0.05, 73.47 -0.06, 120 0 M120 0 C118.31 27.11, 120.22 56.02, 120 80 M120 0 C121.03 30.52, 120.27 62.11, 120 80 M120 80 C97.02 80.29, 70.89 79.67, 0 80 M120 80 C82.79 79.28, 45.96 78.65, 0 80 M0 80 C2.19 58.18, -0.09 37.15, 0 0 M0 80 C-0.72 49.03, -0.09 17.28, 0 0" stroke="#1e1e1e" stroke-width="1" fill="none"></path></g><g stroke-linecap="round"><g transform="translate(330 31.492203996576222) rotate(0 60 -0.9811150518166869)"><path d="M0 0 C41.58 -3.3, 86.22 -1.42, 120 -1.49 M0 0 C30.68 -0.37, 60.25 -0.73, 120 -1.49" stroke="#1e1e1e" stroke-width="1" fill="none"></path></g></g><mask></mask><g stroke-linecap="round"><g transform="translate(410.951629110053 30) rotate(0 -0.5791827397078464 30)"><path d="M0 0 C-0.74 22.34, -2.17 42.88, -0.95 60 M0 0 C0.79 13.94, -0.36 28.63, -0.95 60" stroke="#1e1e1e" stroke-width="1" fill="none"></path></g></g><mask></mask><g stroke-linecap="round"><g transform="translate(370.8267847464268 10) rotate(0 -0.5726465929789697 40)"><path d="M0 0 C-1.17 15.13, -1.44 33.78, -0.83 80 M0 0 C-0.16 18.02, -0.53 37.59, -0.83 80" stroke="#1e1e1e" stroke-width="1" fill="none"></path></g></g><mask></mask><g stroke-linecap="round"><g transform="translate(431.2381937540582 30) rotate(0 -0.4179830397111459 30)"><path d="M0 0 C-1.89 20.04, -0.32 41.89, -0.95 60 M0 0 C0.52 22.73, -0.61 46.53, -0.95 60" stroke="#1e1e1e" stroke-width="1" fill="none"></path></g></g><mask></mask><g stroke-linecap="round"><g transform="translate(391.4384820531591 30) rotate(0 -0.37576123751776436 30)"><path d="M0 0 C0.15 15.16, 0.95 32.63, -0.95 60 M0 0 C-0.32 21.69, -1.36 44.71, -0.95 60" stroke="#1e1e1e" stroke-width="1" fill="none"></path></g></g><mask></mask><g stroke-linecap="round" transform="translate(490 10) rotate(0 60 40.00000000000003)"><path d="M0 0 C28.96 -2.37, 55.35 0.38, 120 0 M0 0 C47.29 -0.28, 94.16 -0.43, 120 0 M120 0 C120.76 25.85, 119.08 47.59, 120 80 M120 0 C119.21 29.67, 118.81 57.59, 120 80 M120 80 C82.73 78.67, 43.77 79.19, 0 80 M120 80 C74.74 80.81, 27.91 79.93, 0 80 M0 80 C1.31 56.16, -2.43 33.99, 0 0 M0 80 C-0.75 57.66, 0.45 33.88, 0 0" stroke="#1e1e1e" stroke-width="1" fill="none"></path></g><g stroke-linecap="round"><g transform="translate(490 50) rotate(0 60 0.748192831333256)"><path d="M0 0 C40.28 2.05, 85.95 1.94, 120 0 M0 0 C33.37 -0.04, 66.17 0.83, 120 0" stroke="#1e1e1e" stroke-width="1" fill="none"></path></g></g><mask></mask><g stroke-linecap="round"><g transform="translate(570 10) rotate(0 -0.02254390461300204 40)"><path d="M0 0 C1.11 17.83, -1.2 34.61, 0 80 M0 0 C0.25 19.57, 0.31 39.17, 0 80" stroke="#1e1e1e" stroke-width="1" fill="none"></path></g></g><mask></mask><g stroke-linecap="round"><g transform="translate(530.8267847464268 10) rotate(0 -0.3982613600643674 40)"><path d="M0 0 C-0.05 28.68, -0.99 56.52, -0.83 80 M0 0 C-0.1 18.52, 0.5 35.87, -0.83 80" stroke="#1e1e1e" stroke-width="1" fill="none"></path></g></g><mask></mask><g stroke-linecap="round"><g transform="translate(530 30) rotate(0 40 -0.09398468408321037)"><path d="M0 0 C26.4 0.3, 53.63 -0.25, 80 0 M0 0 C26 -0.77, 49.95 0.34, 80 0" stroke="#1e1e1e" stroke-width="1" fill="none"></path></g></g><mask></mask><g stroke-linecap="round"><g transform="translate(591.2381937540582 30) rotate(0 -0.6341470339656325 30)"><path d="M0 0 C0.45 19.82, -1.52 35.52, -0.95 60 M0 0 C-1.09 22.46, -1.82 43.17, -0.95 60" stroke="#1e1e1e" stroke-width="1" fill="none"></path></g></g><mask></mask><g stroke-linecap="round"><g transform="translate(551.4384820531591 30) rotate(0 -0.5134846757266871 30)"><path d="M0 0 C-1.13 17.79, 0.82 36.41, -0.95 60 M0 0 C-1.62 17.42, -0.8 35.77, -0.95 60" stroke="#1e1e1e" stroke-width="1" fill="none"></path></g></g><mask></mask><g stroke-linecap="round"><g transform="translate(110 108) rotate(0 260 -0.1775220273323157)"><path d="M0 0 C181.99 -0.16, 362.31 -0.09, 520 0 M0 0 C112.22 -0.42, 224.98 -0.53, 520 0" stroke="#2f9e44" stroke-width="1" fill="none"></path></g><g transform="translate(110 108) rotate(0 260 -0.1775220273323157)"><path d="M520.07 -1.29 L504.94 6.6 L504.57 -4.53 L520.45 -0.39" stroke="none" stroke-width="0" fill="#2f9e44" fill-rule="evenodd"></path><path d="M520 0 C516.6 1.78, 510.09 4.12, 506.4 6.32 M520 0 C516.41 1.33, 513.87 2.49, 506.4 6.32 M506.4 6.32 C506.77 2.72, 506.27 -0.52, 506.41 -6.36 M506.4 6.32 C506.67 2.23, 506.83 -3.26, 506.41 -6.36 M506.41 -6.36 C509.72 -3.64, 513.98 -2.16, 520 0 M506.41 -6.36 C510.26 -5.35, 512.27 -3.17, 520 0 M520 0 C520 0, 520 0, 520 0 M520 0 C520 0, 520 0, 520 0" stroke="#2f9e44" stroke-width="1" fill="none"></path></g></g><mask></mask></svg>