<svg xmlns="http://www.w3.org/2000/svg" viewBox="0 0 85 70"><defs><style>.cls-1{fill:#00ede1;}.cls-2{fill:#00a4f1;}</style></defs><g id="Ebene_1" data-name="Ebene 1"><path class="cls-1" d="M68.57,10.8h-32a.88.88,0,0,0-.39.08,1,1,0,0,0-.55,1.34l5.2,12.46a1,1,0,0,0,.95.63h4.85a1.1,1.1,0,0,1,1.11,1.48l-2.69,6.44a2.5,2.5,0,0,0,0,1.75L51.57,50.5c.21.58.56,1,1.12,1a1.07,1.07,0,0,0,1-.72l16-38.34A1.09,1.09,0,0,0,68.57,10.8Z"/><path class="cls-2" d="M49.87,58.18,32.55,16.61h0L30.4,11.4a1,1,0,0,0-.9-.6H16a1.08,1.08,0,0,0-1.08,1.62l18.75,45,.72,1.74a1,1,0,0,0,.91.61H48.79A1.09,1.09,0,0,0,49.87,58.18Z"/></g></svg>