<svg version="1.1" xmlns="http://www.w3.org/2000/svg" viewBox="0 0 841 400" width="1682" height="800">
  <!-- svg-source:excalidraw -->
  
  <defs>
    <style class="style-fonts">
      @font-face {
        font-family: "Virgil";
        src: url("https://excalidraw.com/Virgil.woff2");
      }
      @font-face {
        font-family: "Cascadia";
        src: url("https://excalidraw.com/Cascadia.woff2");
      }
    </style>
    
  </defs>
  <g stroke-linecap="round" transform="translate(170 130) rotate(0 60 17)"><path d="M0 0 C0 0, 0 0, 0 0 M0 0 C0 0, 0 0, 0 0 M-0.14 5.97 C0.73 4.1, 3.16 2.27, 4.74 1.05 M0.03 6.05 C1.33 4.17, 4.03 2, 5.23 0.36 M1.23 10.65 C5.17 7.4, 5.67 5.51, 9.73 0.81 M-0.03 11.36 C4.17 8.01, 7.52 3.15, 10.57 0.55 M1.81 18.12 C3.78 15.78, 6.68 8.51, 13.92 0.81 M0.78 17.58 C3.47 14.01, 8.16 9.7, 15.75 0.56 M1.44 25.59 C6.66 14.77, 17.14 5.85, 19.84 -1.11 M0.84 24.74 C6.74 17.37, 10.88 11.17, 21.77 0.26 M0.51 30.91 C4.99 24.14, 12.12 16.38, 28.02 2.15 M0.2 30.75 C7.05 22.9, 12.92 14.27, 26.52 -0.33 M2.08 36.4 C10.56 23.27, 21.9 10, 30.47 0.41 M0.88 35.73 C7.9 25.98, 16.89 16.48, 31.21 -0.13 M5.63 34.38 C15.1 24.24, 24.54 14.4, 38.63 2.07 M5.72 35.76 C16.95 22.88, 26.28 12.9, 36.96 -0.06 M10.69 36.01 C23.96 22.77, 32.83 8.52, 44.05 -0.39 M12.23 34.94 C19.52 25.41, 26.9 18.05, 42.73 0.63 M19.32 33.49 C24.68 26.22, 34.88 14.54, 46.58 1.19 M16.53 35.79 C25.26 26.97, 32.86 17.83, 47.96 1.09 M20.38 36.23 C33.21 24.13, 41.7 12.64, 55.06 0.18 M21.89 34.47 C31.27 25.31, 40.37 14.28, 52.51 0.58 M26.24 36.33 C36.49 22.62, 47.3 14.13, 59.51 -1.22 M28.8 34.49 C33.41 28.05, 40.49 19.44, 57.25 -0.77 M32.92 36.21 C40.14 24.83, 50.16 18.26, 63.82 1.49 M33.51 35.49 C42.28 24.54, 51.23 14.34, 64.07 -0.31 M36.84 34.12 C43.48 28.54, 52.6 21.28, 69.92 -1.23 M38 34.88 C48.07 23.97, 55.47 14.45, 68.39 -0.08 M42.95 35.75 C53.29 25.01, 63.63 14.22, 74.51 0.53 M42.58 34.61 C50.75 26.84, 59.34 17.28, 75.23 -1.15 M49.43 35.75 C60.5 20.93, 70.12 8.71, 81.17 -0.25 M49.88 34.89 C59.83 22.28, 69.31 11.02, 79.74 -0.87 M55.92 33.32 C61.37 26.34, 69.39 14.9, 85.14 -2.02 M53.41 34.87 C62.55 25.88, 70.08 15.53, 85.18 -1.16 M60.14 33.75 C70.83 21.94, 80.92 9.16, 89.43 0.97 M59.57 34.4 C70.3 22.74, 80.75 10.78, 89.51 0.24 M66.15 36.03 C72.53 28.51, 77.41 19.95, 97.57 0.16 M64.17 34.72 C75.9 21.79, 85.83 10.09, 95.41 -0.59 M68.96 34.34 C77.6 23.55, 88.51 11.96, 101.74 0.31 M70.49 34.2 C77.05 27.27, 83.82 20.32, 100.75 -0.94 M74.8 33.66 C84.87 22.57, 97.63 14.14, 107.5 1.03 M75.81 35.03 C87.09 21.07, 98.73 6.89, 106.73 0.19 M81.06 36.1 C92.9 23.46, 105.1 8.06, 109.97 0.34 M80.75 35.74 C86.89 27.59, 94.2 18.22, 110.32 0.84 M87.86 36.64 C94.35 27.06, 100.3 17.57, 117.83 0.99 M85.13 34.11 C95.42 23.23, 106.55 12.1, 115.66 0.52 M91.42 37.04 C102.07 24.03, 111.56 11.61, 120.18 -0.98 M90.75 35.17 C97.89 27.18, 105.45 20.15, 121.24 -0.03 M98.18 34.05 C104.23 26.43, 110.25 18.1, 121.35 8.62 M95.77 34.66 C103.4 27.64, 111.11 18.38, 120.07 6.16 M102.91 37.08 C108.12 27.9, 114.34 20.19, 122.75 12.79 M102.26 34.77 C108.68 27.75, 113.6 21.14, 121.86 12.12 M107.44 35.64 C110.81 31.2, 113.6 27.4, 119.95 20.1 M107.19 34.83 C111.89 27.96, 117.07 22.11, 121.44 19.79 M111.39 36.46 C113.75 33.77, 117.32 29.19, 121.13 24.29 M112.13 35.16 C113.92 32.94, 115.69 30.23, 121.42 25.98 M117.54 34.69 C118.53 33.58, 119.88 32.67, 121.27 31.1 M117.91 35.04 C119.19 33.79, 119.97 32.41, 121.07 31.27" stroke="#ced4da" stroke-width="0.5" fill="none"></path><path d="M-0.05 -0.3 C43.63 0.85, 84.95 -2.21, 118.85 -0.36 M0.63 0.71 C45.09 -1.45, 89.5 -1.84, 120.85 -0.16 M121.4 -1.39 C121.2 13.2, 121.77 23.07, 119.55 33.51 M120.38 -0.93 C120.57 7.82, 121.05 14.88, 120.23 34.15 M121.75 34.56 C76.53 33.48, 30.85 31.71, 1.05 34.29 M120.75 34.47 C82.6 35.15, 45.62 34.1, -0.37 33.8 M0.54 35.55 C-0.73 22.58, -2.01 7.35, -0.1 0.29 M-0.52 34.92 C0.78 20.89, 0.99 8.48, -0.56 0.77" stroke="#000000" stroke-width="1" fill="none"></path></g><g transform="translate(205.5 135) rotate(0 24.5 12)"><text x="24.5" y="0" font-family="Cascadia, Segoe UI Emoji" font-size="20px" fill="#000000" text-anchor="middle" style="white-space: pre;" direction="ltr" dominant-baseline="text-before-edge">time</text></g><g stroke-linecap="round" transform="translate(170 170.16030472622128) rotate(0 60 17)"><path d="M0 0 C0 0, 0 0, 0 0 M0 0 C0 0, 0 0, 0 0 M-0.98 5.97 C1.04 4.63, 1.98 4.25, 5.65 0.66 M-0.65 6.44 C1.16 5.28, 2.25 3.77, 5.09 0.28 M1.71 11.28 C1.15 10.6, 4.07 7.32, 11.49 -1.11 M0.38 12.2 C2.41 8.99, 4.83 7.28, 10.08 -0.7 M-0.01 19.96 C3.75 11.53, 7.33 8.22, 14.37 0.85 M-0.22 18.25 C4.69 13.63, 8.1 9.31, 16.34 1.16 M-0.95 23.55 C5.83 18.56, 7.22 13.09, 20.62 0.24 M1.15 23.84 C5.88 16.67, 13.33 9.68, 20.7 0.28 M-1.32 31.56 C7.63 21.56, 18.3 13.18, 25.32 1.36 M0.56 30.56 C7.73 20.3, 16.25 11.34, 26.93 1.21 M-0.45 36.51 C10.48 23.34, 21.69 10.14, 30.88 0.41 M0.3 35.13 C13.81 20.37, 24.77 7.24, 31.58 0.07 M7.04 33.58 C17.56 22.8, 26.68 16.12, 37.47 -1.15 M6.77 34.4 C16.31 24.32, 26.76 11.83, 37.45 0.1 M12.89 35.48 C20.55 22.71, 32.66 12.81, 41.66 -1.09 M11.43 34.4 C18.73 27.03, 27.76 17.75, 42.55 0.37 M15.71 36.68 C24.81 26.08, 32.83 16.82, 46.65 1.17 M17.67 35.71 C25 26.93, 32.49 18.95, 47.67 -0.47 M23.2 35.51 C32.96 22.82, 45.93 10.94, 52.94 0.15 M22.4 35.74 C33.53 22.8, 43.45 11.43, 53.41 0.47 M26.88 33.69 C34.8 28.65, 42.93 17.97, 56.53 1.84 M27.08 35.39 C33.44 27.37, 39.2 19.79, 57.69 0.13 M32.26 33.97 C44.71 24.48, 53.53 13.18, 63.58 -0.76 M33.24 34.84 C42.57 23.92, 52.04 13.22, 62.79 0.11 M37.52 35.59 C50.72 24.11, 59.72 10.98, 68.62 2.01 M39.55 34.22 C48.2 23.5, 58.16 11.92, 68.91 0.46 M43.72 35.92 C51.48 28.15, 57.73 19.88, 73.25 -0.08 M43.31 35.33 C53.07 25.02, 61.31 15.46, 75.15 0.4 M49.45 33.98 C57.62 23.25, 70.67 11.66, 80.29 0.5 M49.49 34.39 C58.81 23.03, 70.27 9.73, 79.08 0 M53.06 36.04 C63.67 21.56, 76.32 8.07, 84.5 0.57 M54.29 35.74 C64.74 22.45, 76.73 8.98, 85.76 -1.07 M59.32 35.14 C69.83 21.96, 82.62 8.9, 90.74 -0.2 M60.12 34.55 C71.14 22.16, 80.63 10.69, 89.28 0.15 M65.61 36.69 C74.4 23.23, 88.67 9.99, 96.69 0.26 M65.19 34.54 C76.8 21.31, 89.34 6.79, 95.76 0.66 M68.62 33.99 C76.76 25.97, 84.39 20.64, 99.01 0.03 M70.49 34.72 C78.76 26.21, 86.73 15.36, 100.91 -0.78 M74.54 33.87 C84.19 29.38, 90.41 21.05, 108.04 0.7 M75.35 35.1 C87.21 20.54, 100.34 7.44, 107.07 -0.98 M81.05 36.89 C91.32 23.49, 98.63 13.16, 109.99 0.99 M79.81 36.14 C91.08 22.01, 102.01 10.2, 110.71 -0.54 M86.86 35.25 C92.17 25.9, 101.28 19.44, 116.96 1.01 M85.44 34.73 C94.76 26.35, 101.72 17.24, 116.82 -0.42 M91.11 36.57 C101.36 22.97, 112.94 7.05, 119.76 0.87 M91.12 35.19 C102.91 23.51, 112.99 9.69, 121.07 0.78 M97.44 34.16 C102.69 26.59, 109.35 22.3, 120.77 7.5 M96.46 35.66 C104.47 26.46, 110.14 18, 121 6.87 M102.16 34.67 C108.14 26.93, 114.5 21.96, 121.72 11.35 M102.29 34.92 C106.88 28.69, 114.09 21.04, 121.19 12.84 M106.97 35.56 C109.34 32.18, 113.05 27.98, 122.86 21.1 M106.72 34.03 C110.27 30.13, 115 27.25, 120.7 18.81 M111.53 36.27 C115.43 31.33, 117.55 28.42, 119.96 24.95 M111.91 35.19 C114.29 31.85, 117.98 30, 120.94 25.25 M117.49 34.77 C118.98 33.75, 120.28 32.3, 121.31 31.62 M118.21 34.97 C119.21 33.36, 120.23 32.24, 121.39 31.21" stroke="#ced4da" stroke-width="0.5" fill="none"></path><path d="M1.51 1.49 C43.11 -1.4, 83.63 -0.18, 121.45 -0.9 M0.39 -0.47 C45.92 -1.71, 92.47 -1.01, 120.3 1 M120.86 1.96 C121.67 12.93, 119.79 24.18, 118.38 35.09 M120.38 0.38 C120.99 12.03, 120.36 24.19, 120.78 33.3 M121.84 33.99 C90.58 32.56, 59.28 34.63, 0.17 33.18 M119.61 34.64 C78.46 34.14, 37.3 34.36, 0.64 34.31 M-0.62 34.97 C-2 22.9, -0.19 15.84, 1.62 -0.76 M0.66 33.84 C1.03 25.96, -0.39 17.91, -0.79 0.93" stroke="#000000" stroke-width="1" fill="none"></path></g><g transform="translate(182 175.16030472622128) rotate(0 48 12)"><text x="48" y="0" font-family="Cascadia, Segoe UI Emoji" font-size="20px" fill="#000000" text-anchor="middle" style="white-space: pre;" direction="ltr" dominant-baseline="text-before-edge">duration</text></g><g stroke-linecap="round" transform="translate(450 249.69916562886357) rotate(0 60 69.99999999999997)"><path d="M0 0 C0 0, 0 0, 0 0 M0 0 C0 0, 0 0, 0 0 M-0.2 6.04 C0.84 5.63, 3.04 3.76, 4.35 0.94 M0.04 6.57 C1.16 5.1, 2.15 3.73, 4.72 0.63 M-1.22 13.33 C1.36 10.36, 5.35 5.86, 9.43 -0.36 M0.02 11.62 C2.29 10.01, 4.05 6.17, 10.6 0.74 M-0.74 16.86 C2.64 13.66, 7.56 8.55, 14.86 2.15 M0.72 18.24 C3.4 14.83, 7.36 11.54, 14.64 0.91 M1.71 23.62 C6.87 14.03, 15.53 6.31, 21.31 1.09 M-0.32 24.11 C8.24 15.64, 14.84 6.83, 21.42 0.18 M-0.59 31.17 C10.41 22.5, 16.14 12.01, 26.36 0.67 M-0.23 29.59 C8.69 19.95, 17.69 11.62, 26.85 0.8 M-1.77 37.8 C9.91 24.2, 21.63 11.2, 33.78 -0.45 M0.28 35.99 C10.15 24.49, 21.33 12.27, 31.88 -0.64 M1.8 40.63 C11.76 33.15, 20.54 18.5, 37.39 -1.7 M-0.41 43.4 C14.09 26.43, 28.48 10.6, 37 -0.24 M-1.07 47.49 C15.35 32.25, 27.19 15.18, 41.73 0.96 M-0.92 49.73 C11.35 37.27, 22.31 24.2, 42.3 0.86 M-0.29 55.13 C10.54 42.74, 21.36 30.36, 46.29 -1.38 M0.45 55.11 C18.75 34.12, 36.66 11.61, 47.97 -0.75 M-0.37 60.91 C20.06 40.08, 36.36 18.87, 54.16 -1.03 M0.26 60.64 C10.85 48.22, 23.28 34.84, 52.35 -1.03 M-0.36 68.97 C23.16 41.37, 41.85 19.5, 56.25 1.88 M-0.69 66.85 C14.56 48.74, 30.11 32.26, 58.47 0.18 M1.63 74.17 C22.52 49.69, 44.37 22.04, 63.95 0.91 M0.46 72.66 C20.73 49.57, 39.97 26.37, 64.04 -1.08 M1.88 79.84 C19.54 56.97, 36.32 39.41, 69.31 -1.03 M-0.59 79.39 C19.44 55.8, 40.67 32.52, 68.03 -0.16 M1.09 86.06 C24.48 57.76, 47.39 29.34, 73.78 -2.24 M1.14 84.16 C18.99 63.73, 36.57 44.96, 74.68 -0.13 M-1.4 91.33 C29.12 59.85, 55.68 29.04, 80.34 1.45 M-0.64 91.7 C24.35 62.91, 47.93 35.9, 80.02 0.97 M-1.64 96.75 C18 75.51, 34.94 57.86, 86.21 -1.86 M-1.05 97.71 C22.65 70.21, 46.08 44.02, 85.92 -0.13 M-1.53 103.95 C22.09 78.6, 45.66 51.82, 91.05 -0.48 M0.75 102.91 C22.72 76.99, 45.84 50.03, 90.62 0.74 M-1.41 110.83 C34.26 71.76, 66.29 34.01, 97.63 -1.65 M-0.66 110 C23.77 81.97, 48.66 55, 94.75 -1.07 M0.01 113.88 C30.38 84.01, 55.61 51.58, 100.01 0.07 M0.49 116.08 C24.76 86.52, 49.32 58.62, 99.87 -0.29 M1.82 123.79 C25.89 96.23, 50.54 68.18, 108.27 0.33 M-0.39 121.43 C31.51 86.92, 62.76 50.19, 106.48 -0.04 M0.93 127.69 C34.91 85.45, 71.8 43.69, 112.63 0.61 M-0.82 127.94 C35.94 86.61, 72.67 43.44, 110.6 0.9 M-0.44 133.02 C45.02 84.06, 87.99 33.66, 115.55 -1.55 M0.53 134.07 C23.82 107.6, 48.38 79.73, 117.09 0.55 M-1.28 141.34 C44.82 85.01, 90.44 33.91, 122.49 0.07 M0.7 140.87 C32.77 102.02, 65.53 64.93, 120.83 1.46 M5.46 138.55 C34.25 108.79, 62.51 74.49, 120.8 5.23 M5.98 139.36 C35 103.75, 65.96 69.9, 120.94 7.73 M11.3 138.65 C54.05 91.91, 95.48 41.63, 121.51 13.87 M9.79 140.39 C36.37 110.18, 61.8 80.87, 120.89 12.82 M14.71 141.09 C49.95 100.6, 87.61 61.63, 120.44 18.84 M15.39 139.21 C46.69 107.7, 75.39 72.84, 120.99 18.44 M22.04 138.48 C60.42 93.75, 96.77 50.87, 120.8 24.92 M20.2 139.29 C49.23 110.75, 74.97 79.18, 121.3 24.67 M26.15 140.05 C50.67 113.65, 73.56 89.56, 122.68 30.58 M26.79 138.98 C55.18 105.49, 86.6 70.58, 120.46 31.99 M32.67 141.28 C49.81 121.17, 70.12 98.87, 122.47 35.86 M32.47 141.25 C49.52 119.17, 68.99 98.8, 121.52 38.19 M38.67 139.44 C56.69 116.5, 78.79 94.96, 120.96 44.65 M38.27 140.42 C68.81 103.52, 99.83 66.57, 121.29 42.9 M42.79 139.15 C69.65 107.38, 98.28 78.94, 119.48 48.26 M42.5 139.86 C72.59 107.57, 101.54 72.06, 120.88 50.25 M48.02 139.95 C70.04 114.94, 90.03 89.74, 119.93 55.72 M47.77 140.71 C68.24 116.15, 89.43 92.24, 121.1 55.38 M51.81 141.85 C75.97 117.09, 95.18 90.93, 120.29 61.58 M52.5 139.61 C75.17 115.35, 96.25 90.35, 122.21 61.37 M56.8 140.91 C74.21 124.54, 87.13 105.32, 120.04 67.79 M58.02 139.43 C74.34 123.52, 88.31 106.09, 120.81 67.28 M64.99 138.79 C76.42 123.38, 92.25 104.04, 122.22 71.93 M64.02 140.95 C75.84 126.05, 90.06 110.7, 122.15 73.51 M68.44 138.31 C78.99 128.72, 89.71 115.87, 119.61 80.83 M69.62 139.61 C83.11 125.22, 95.38 109.71, 121.71 79.64 M75.44 141.05 C90.77 121.86, 105.7 102.54, 120.77 86.85 M74.92 139.22 C89.02 123.82, 105.58 106.41, 121.52 85.8 M80.57 139.57 C88.91 130.89, 96.12 117.45, 119.48 93.69 M79.33 141.43 C92.4 125.64, 103.92 111.43, 121.04 92.68 M86.12 139.34 C93.8 130.91, 103.09 120.88, 122.25 100.25 M84.41 139.69 C97.04 127.33, 108.05 114.59, 120.92 98.52 M89.62 138.48 C102.77 127.95, 112.46 113.53, 120.32 102.87 M89.68 140.24 C101.4 125.47, 114.15 111.9, 122.41 103.53 M95.82 138.06 C105.07 129.09, 112.47 120.78, 121.85 110.97 M96.01 140.56 C102.35 131.22, 110.57 123.24, 121.84 110.66 M100.91 141.74 C107.88 132.24, 117.82 120.35, 119.98 117.29 M100.1 140.09 C105.17 133.94, 112.23 127.17, 120.06 118 M105.19 141.25 C112.28 134.94, 114.71 131.46, 120.26 121.76 M106.57 139.95 C110.12 136.94, 113.05 131.87, 122.22 121.84 M109.74 140.08 C113.77 137.18, 117.27 133.25, 121.86 129.22 M110.65 139.84 C114.42 136.88, 118.67 132.35, 120.69 128.68 M117.39 139.56 C118.38 138.95, 118.68 137.52, 120.63 135.25 M116.96 140.25 C117.78 138.88, 119.41 137.05, 120.59 135.28" stroke="#ced4da" stroke-width="0.5" fill="none"></path><path d="M0.72 -1.57 C33.08 -1.25, 69.9 -1.8, 121.63 1.25 M0.11 -0.86 C45.43 0.41, 89.46 1.56, 120.63 0.7 M121.43 0.6 C120.16 31.79, 118.98 65.64, 121.07 140.77 M120.86 0.01 C120.76 29.18, 121.31 57.35, 119.57 140.87 M121.46 138.23 C81.69 140.29, 41.45 139.18, 0.86 141.51 M119.62 139.58 C78.04 140.56, 37.46 141.07, -0.29 140.27 M-1.91 138.12 C0.33 87.44, 2.06 33.54, -1.04 -1.04 M0.86 140.39 C-1.48 85.93, -1.71 31.23, -0.68 -0.82" stroke="#000000" stroke-width="1" fill="none"></path></g><g transform="translate(485.5 249.69916562886357) rotate(0 24.5 12)"><text x="24.5" y="0" font-family="Cascadia, Segoe UI Emoji" font-size="20px" fill="#000000" text-anchor="middle" style="white-space: pre;" direction="ltr" dominant-baseline="text-before-edge">enum</text></g><g stroke-linecap="round" transform="translate(470 284.5336897824416) rotate(0 40 15)"><path d="M1.48 0.29 L79.01 -1.32 L80.41 29.83 L-1.57 31.94" stroke="none" stroke-width="0" fill="#ced4da"></path><path d="M-1.15 -0.36 C31.42 -0.27, 61.57 1.88, 81.43 0.78 M0.85 -0.16 C20.56 1.68, 41.13 1.38, 79.31 0.43 M79.55 -0.49 C78.59 13.03, 81.29 24.65, 78.15 30.76 M80.23 0.15 C81.03 9.43, 79.83 21.14, 80.28 30.92 M81.05 30.29 C56.19 28.47, 32.91 30.8, 0.93 29.21 M79.63 29.8 C51.56 29.97, 21.55 29.93, 0.78 29.69 M-0.1 30.29 C1.91 18.79, -0.75 8.07, 1.84 1.31 M-0.56 30.77 C-1.05 22.4, -0.94 12.12, -0.94 -0.1" stroke="#000000" stroke-width="1" fill="none"></path></g><g transform="translate(486 289.5336897824416) rotate(0 24 9.5)"><text x="24" y="0" font-family="Virgil, Segoe UI Emoji" font-size="16px" fill="#000000" text-anchor="middle" style="white-space: pre;" direction="ltr" dominant-baseline="text-before-edge">Field 1</text></g><g stroke-linecap="round" transform="translate(470 344.53368978244157) rotate(0 40 15)"><path d="M-0.99 -1.32 L80.41 -0.17 L78.43 31.94 L-1.39 31.83" stroke="none" stroke-width="0" fill="#ced4da"></path><path d="M1.45 -0.9 C19.34 1.4, 36.84 0.93, 79.06 0.23 M0.3 1 C17.78 0.82, 33.6 0.56, 80.98 0.72 M78.38 1.09 C81 10.66, 78.08 20.55, 80.76 31.73 M80.78 -0.7 C79.64 9.9, 80.35 18.96, 80 30.73 M80.17 29.18 C63.96 31.63, 47.12 29.33, 1.27 29.25 M80.64 30.31 C59.06 30.11, 39.47 29.53, 0.48 29.05 M1.62 29.24 C-1.03 22.78, 1.85 18.94, -0.31 1.72 M-0.79 30.93 C-0.51 19.01, -0.77 9.55, 0.74 0.15" stroke="#000000" stroke-width="1" fill="none"></path></g><g transform="translate(483 349.53368978244157) rotate(0 27 9.5)"><text x="27" y="0" font-family="Virgil, Segoe UI Emoji" font-size="16px" fill="#000000" text-anchor="middle" style="white-space: pre;" direction="ltr" dominant-baseline="text-before-edge">Field N</text></g><g transform="translate(504 317.5336897824416) rotate(0 6.599999904632568 10)"><text x="0" y="0" font-family="Virgil, Segoe UI Emoji" font-size="16px" fill="#000000" text-anchor="start" style="white-space: pre;" direction="ltr" dominant-baseline="text-before-edge">...</text></g><g stroke-linecap="round" transform="translate(590 250) rotate(0 110.5 70)"><path d="M0 0 C0 0, 0 0, 0 0 M0 0 C0 0, 0 0, 0 0 M0.32 5.71 C0.94 4.21, 4.33 2.17, 5.47 0.35 M0.01 6.05 C1.86 4.27, 2.84 2.81, 4.76 0.57 M-0.19 10.68 C4.41 8.17, 7.41 2.73, 10.51 1.14 M0.91 11.91 C2.7 9.86, 4.84 5.84, 9.95 0.16 M1.7 16.72 C3.37 13.82, 9.01 9.5, 15.89 0.8 M0.46 19.19 C4.97 11.58, 12.16 4.88, 14.91 -0.19 M1.42 25.39 C7.63 17.13, 10.3 11.2, 22.29 0.59 M0.52 24.29 C4.65 18.69, 10.14 12.6, 22.15 0.86 M0.39 31.02 C7.61 22.98, 12.68 13.39, 26.79 -0.96 M0.52 31 C8.62 19.79, 18.28 8.57, 25.54 0.55 M-0.6 37.6 C6.16 26.87, 16.76 16.33, 30.54 -0.17 M-0.79 36.58 C8.5 26.23, 17.81 16.03, 32.77 0.8 M-1.82 44.09 C12.68 27.34, 23.55 16.33, 37.04 -0.38 M-0.36 42.86 C13.93 27.45, 25.98 11.56, 37.64 0.13 M0.97 48.14 C10.55 34.61, 20.43 25.52, 42.95 1.39 M0.87 48.19 C11.74 35.02, 25.19 19.57, 42.06 0.34 M-1.33 56.27 C12.83 42.42, 24.66 28.01, 48.41 1.95 M-0.7 55.03 C16.04 37.24, 30.36 19.91, 48.46 0.4 M-0.84 59.3 C15.46 43.86, 31.19 24.65, 51.87 1.34 M-0.85 61.67 C16.4 40.85, 34.2 22.34, 53.84 -0.88 M1.44 66.53 C10.25 54.13, 23.96 37.4, 56.37 -1.72 M-0.26 67.83 C14.32 49.4, 30.29 33.52, 58.16 1.04 M1.26 73.45 C19.38 50.88, 37.86 29.83, 64.35 -0.4 M-0.73 72.62 C12.16 58.49, 26.48 43.65, 64.36 -0.9 M-1.3 79.41 C21.24 54.7, 38.55 32.79, 68 -0.31 M-0.43 79.66 C21.32 55.38, 43.27 30.68, 68.82 0.54 M-1.72 83.81 C17.62 64.83, 37.83 42.23, 76.05 -2.07 M0.38 85.5 C27.53 52.56, 54.39 21.08, 75.3 -0.42 M1.34 91.55 C27.75 58.7, 53.27 28.62, 80.08 -1.86 M0.87 90.5 C20.83 66.88, 41.99 41.43, 79.45 -0.75 M-1.83 97.19 C22.77 71.66, 44.28 43.54, 85.32 -2.04 M-0.1 97.31 C32.03 60.72, 63.21 24.26, 84.74 0.17 M-0.41 102.68 C31 67.81, 61.81 32.49, 89 0.39 M0.8 103.91 C20.72 80.41, 39.93 56.83, 90.98 0.32 M-1.45 109 C33.88 69.04, 65.7 31.87, 95.14 -0.87 M-0.87 109.66 C27.46 76.34, 57.84 41.88, 96.21 -0.18 M0.3 114.38 C22.14 90.63, 44.37 66.73, 100.85 -1.93 M-0.05 114.79 C33.45 78.09, 67.49 42.07, 101.26 0.74 M0.7 121.73 C40.27 73.51, 80.81 25.28, 107.17 0.73 M0.32 122.22 C41.17 76.33, 81.53 29.22, 105.64 -0.18 M0.35 128.83 C24.08 98.71, 50.42 66.48, 109.35 1.66 M0.64 129.09 C27.84 98.13, 54.14 66.54, 112.06 0.32 M-1.78 131.99 C37.24 89, 78.14 45.28, 115.05 0.66 M0.32 134.75 C42.34 86.28, 82.86 38.93, 115.73 -0.48 M-0.77 139.79 C27.34 107.47, 56.35 77.44, 121.88 -1.54 M0.62 139.85 C34.39 101.07, 68.21 61.46, 122.09 0.72 M3.63 139.16 C39.72 101.05, 76.13 58.4, 125.05 -1.6 M6.13 140.79 C42.48 97.84, 79 55.56, 127.58 0.35 M11.61 139.03 C51.27 94.86, 87.27 51.56, 133.49 -1.37 M10.56 140.63 C44.34 101.96, 77.92 63.04, 131.95 0.41 M15.83 139.54 C60.42 84.46, 107.01 31.09, 138.15 1.53 M15.43 140.75 C47.14 105.02, 79.3 67.67, 137.73 -0.68 M20.5 139.6 C48.55 107.47, 76.02 73.79, 144.86 1.16 M20.25 139.7 C58.79 95.68, 97.4 52.55, 143.19 -0.32 M26.16 140.28 C64.82 95.94, 100.34 51.29, 146.61 0.72 M27.57 138.91 C68.52 91.94, 112.04 43.84, 147.82 1.03 M30.03 138.28 C77.08 87.14, 125.69 34.96, 152.36 -0.09 M32.36 139.58 C76.74 86.99, 124.44 33.05, 153.27 -0.34 M38.82 141.34 C83.24 88.53, 129.75 36.6, 159.36 0.48 M37.07 140.34 C73.57 99.41, 108.28 59.24, 158.87 -0.61 M41.02 141.72 C86.72 88.29, 131.7 36.88, 165.98 1.56 M43.01 140.13 C81.87 94.76, 121.59 50.61, 164.56 -0.68 M47.72 139.55 C79.77 105.72, 109.79 71.97, 168 1.17 M47.38 139.92 C79.07 102.61, 109.99 67.5, 170.37 0.65 M52.93 140.4 C88.08 100.05, 125.31 56.02, 175.4 -0.37 M52.72 139.54 C91.04 95.5, 127.73 53.74, 175.38 0.43 M58.38 138.56 C87.84 104.98, 117.3 71.59, 180.75 1 M57.87 139.39 C89.07 105.76, 118.54 71.09, 179.2 0.38 M61.87 138.64 C95.68 102.3, 127.76 69.64, 183.94 0.51 M63.45 139.31 C105 91.53, 145.68 43.77, 184.95 0.62 M70.01 138.87 C93.72 113.58, 117.36 84.43, 192.53 2.02 M68.82 140.29 C104.09 98.02, 140.36 57.38, 190.68 0.49 M74.62 140.63 C99.62 107.59, 129.66 75.84, 194.56 1.41 M73.57 139.29 C115.3 90.56, 159.4 40.31, 196.41 0.32 M80.8 140.57 C108.32 112.34, 132.28 84.02, 202.88 0.1 M79.8 139.76 C108.64 105.44, 140.13 70.27, 201.54 0.21 M86.61 140.37 C129.53 86.95, 175.65 33.23, 207.91 0.4 M84.89 140.65 C122.93 95.17, 160.77 50.74, 207.85 -0.2 M88.57 142.35 C128.78 98.2, 166.18 53.47, 210.02 -1 M89.24 140.49 C119.07 106.53, 146.71 72.69, 212.94 -0.91 M95.92 139.72 C141.38 85.13, 189.71 34.38, 216.28 -1.62 M95.61 140.88 C135.33 93.67, 176.85 47.03, 217.24 0.16 M100.83 139.99 C148.53 89.55, 191.36 36.38, 220.16 1.03 M101.54 140.28 C143.25 92.92, 185.27 44.19, 222.79 0.78 M105.3 138.39 C139.62 101.87, 173.27 63.03, 223.04 8.64 M105.38 140.81 C145.92 94.32, 182.58 50.59, 220.95 7.88 M111.4 141.35 C134.36 113.47, 155.9 83.89, 221.64 14.19 M110.68 139.99 C154.21 90.88, 198.34 41.11, 222.92 13.06 M116.15 139.92 C145.14 107.58, 173.57 78.05, 220.44 20.76 M116.26 139.58 C158.34 94.77, 197.97 46.58, 222.43 19.69 M121.76 141.18 C150.13 104.4, 179.97 71.43, 222.47 26.42 M122.56 141.31 C153.72 103.36, 185.02 65.91, 221.58 25.14 M126.52 141.7 C151.74 112.9, 172.33 88.77, 223.65 31.65 M127.73 139.68 C164.99 95.98, 202.35 53.66, 221.37 30.63 M131.04 139.01 C150.71 118.61, 170.21 95.81, 222.85 37.58 M132 139.76 C168.62 99.95, 204.11 59.43, 220.97 36.67 M137.12 140.97 C158.87 115.75, 180.59 90.85, 223.59 41.6 M137.71 139.92 C171.47 102.23, 202.81 65.1, 221.47 43.14 M142.02 141.27 C158.7 119.56, 176.09 99.64, 221.58 51.12 M143.74 139.69 C161.68 117.04, 182.05 94.48, 222.65 50.32 M149.32 140.8 C172.8 110.57, 197.16 83.81, 220.85 55.71 M149.51 140.44 C166.6 122.15, 182.52 103.71, 221.31 55.43 M155.17 139.19 C173.02 114.64, 193.97 95.22, 222.14 60.59 M153.44 139.27 C168.13 124.92, 181.51 108.74, 222.67 61.38 M159.15 140.12 C172.6 125.4, 183.95 109.6, 222.98 66.73 M158.9 139.7 C179.31 117.31, 198.28 95.88, 220.76 67.34 M162.57 138.87 C179.91 121.69, 194.17 103.87, 221.34 72.63 M164.69 139.51 C186.43 116.12, 207.18 91.23, 221.13 73.71 M171.28 139.69 C188.53 118.9, 206.75 96.02, 221.18 81.95 M169.03 139.49 C185.25 123.04, 197.73 108.09, 222.59 80.24 M173.98 139.26 C191.63 123.56, 203.44 106, 222.65 85.72 M174 139.24 C189.36 123.7, 205.84 106.06, 222.56 85.48 M181.05 140.12 C191.46 128.93, 198.95 117.29, 220.34 93.77 M181.51 139.93 C192.16 126.35, 204.31 113.19, 221.5 92.62 M186.83 142.12 C194.42 130.6, 201.04 122.09, 221.52 96.94 M185.79 140.12 C193.08 131.98, 202.84 121.54, 222.26 98.98 M192.46 139.86 C203.85 124.44, 214.55 112.41, 223.65 102.71 M191.35 140.48 C202.1 127.26, 212.41 116.23, 221.78 104.03 M196.18 142.09 C207.79 126.74, 216.98 117.32, 222.04 108.96 M195.42 139.64 C205.67 130.11, 213.49 121.51, 221.91 110.51 M199.49 141.96 C206.19 134.05, 217.22 123.48, 221.97 116.1 M201.33 139.67 C208.92 131.1, 215.69 124.22, 221.65 116.85 M208.76 140.64 C211.6 134.87, 217.65 127.88, 222.99 124.55 M206.17 140.12 C210.89 135.63, 214.84 131.19, 222.66 122.02 M211.04 140.9 C213.82 135.29, 220 133.24, 222.77 130.44 M211.67 140.92 C214.83 137.66, 217.23 133.6, 221.6 129.8 M217.29 140.04 C219.08 138.04, 220.94 136.31, 222.21 134.33 M217.74 139.91 C219.13 138.17, 221.2 136.03, 222.3 134.83" stroke="#ced4da" stroke-width="0.5" fill="none"></path><path d="M1.09 1.24 C82.99 -2.37, 164.82 -3.04, 222.48 -0.27 M0.6 -0.6 C73.4 -0.35, 146.68 -0.94, 220.81 -0.21 M221.77 -1.85 C222.52 31.38, 223.49 61.27, 221.45 140.3 M221.87 0.28 C220.93 52.85, 220.75 104.82, 221.52 140.15 M222.3 140.81 C152.17 141.92, 84.06 140.1, -0.64 139.66 M221.23 140.67 C140.22 139.87, 59.15 138.64, -0.04 140.13 M-1.04 141.84 C1.84 86.34, 2.24 34.1, -1.13 1.55 M-0.82 139.06 C-1.4 109.78, -1.16 77.58, -0.66 0.2" stroke="#000000" stroke-width="1" fill="none"></path></g><g transform="translate(664.5 250) rotate(0 36 12)"><text x="36" y="0" font-family="Cascadia, Segoe UI Emoji" font-size="20px" fill="#000000" text-anchor="middle" style="white-space: pre;" direction="ltr" dominant-baseline="text-before-edge">record</text></g><g stroke-linecap="round" transform="translate(610 286) rotate(0 40 15)"><path d="M1.94 -1.39 L81.83 -1.1 L78.33 29.41 L1.49 28.06" stroke="none" stroke-width="0" fill="#ced4da"></path><path d="M0.78 -0.94 C30.77 -2.28, 62.79 -0.89, 80.61 1.99 M0.43 0.98 C29.74 0.85, 57.82 0.31, 79.19 0.54 M80.76 0.76 C81.84 10.62, 80.57 21.52, 81.55 28.59 M80.92 0 C80.99 6.83, 80.78 15.59, 80.08 29.59 M79.21 31.27 C51.81 29.54, 24.38 29.98, 1.29 30.61 M79.69 30.48 C57.33 29.68, 36.53 30.76, 0.81 29.62 M1.31 29.69 C1.87 23.34, -0.97 16.67, -1.58 1.86 M-0.1 30.74 C0.39 22.54, -0.41 16.28, -0.08 -0.78" stroke="#000000" stroke-width="1" fill="none"></path></g><g transform="translate(626 291) rotate(0 24 9.5)"><text x="24" y="0" font-family="Virgil, Segoe UI Emoji" font-size="16px" fill="#000000" text-anchor="middle" style="white-space: pre;" direction="ltr" dominant-baseline="text-before-edge">Field 1</text></g><g stroke-linecap="round" transform="translate(610 346) rotate(0 40 15)"><path d="M1.83 -1.1 L78.33 -0.59 L81.49 28.06 L-0.03 30.3" stroke="none" stroke-width="0" fill="#ced4da"></path><path d="M0.23 -1.71 C31.43 0.06, 60.04 2.37, 81.26 1.4 M0.72 0.3 C18.22 -1.03, 36.08 -0.24, 80.54 0.38 M81.73 0.02 C80.57 6.52, 81.67 11.03, 79.15 31.75 M80.73 -0.89 C80.8 9.99, 80.36 19.27, 80.43 30.75 M79.25 29.16 C51.53 30.11, 25.83 31.12, -0.57 30.54 M79.05 29.06 C49.75 30.53, 20.41 30.01, -0.52 29.48 M1.72 30.78 C-1.32 19.8, -1.77 8.35, -1.36 -1.63 M0.15 29.51 C-0.63 24.02, -0.05 16.84, 0.97 -0.7" stroke="#000000" stroke-width="1" fill="none"></path></g><g transform="translate(623 351) rotate(0 27 9.5)"><text x="27" y="0" font-family="Virgil, Segoe UI Emoji" font-size="16px" fill="#000000" text-anchor="middle" style="white-space: pre;" direction="ltr" dominant-baseline="text-before-edge">Field N</text></g><g transform="translate(644 319) rotate(0 6.599999904632568 10)"><text x="0" y="0" font-family="Virgil, Segoe UI Emoji" font-size="16px" fill="#000000" text-anchor="start" style="white-space: pre;" direction="ltr" dominant-baseline="text-before-edge">...</text></g><g transform="translate(697.3522135897551 288) rotate(0 2.4166667461395264 12.5)"><text x="0" y="0" font-family="Virgil, Segoe UI Emoji" font-size="20px" fill="#000000" text-anchor="start" style="white-space: pre;" direction="ltr" dominant-baseline="text-before-edge">:</text></g><g stroke-linecap="round" transform="translate(710 286) rotate(0 40 15)"><path d="M1.49 -1.94 L79.97 0.3 L78.32 28.75 L0.31 28.93" stroke="none" stroke-width="0" fill="#00a4f1"></path><path d="M0.61 1.99 C18.4 1.52, 32.91 0.99, 81.96 1.43 M-0.81 0.54 C26.92 0.58, 51.85 0.58, 80.38 0.86 M81.55 -1.41 C79.21 10.77, 80.63 19.88, 79.99 31.46 M80.08 -0.41 C80.59 7.09, 80.62 12.29, 80.64 29.62 M81.29 30.61 C58.78 30.38, 40.25 29.22, 0.97 28.09 M80.81 29.62 C62.99 29.6, 47.93 30.77, -0.16 30.86 M-1.58 31.86 C-1.19 18.19, -1.71 9.45, 1.48 0.29 M-0.08 29.22 C1.17 21.79, 1.11 14.41, -0.84 -0.3" stroke="#000000" stroke-width="1" fill="none"></path></g><g transform="translate(731 291) rotate(0 19 9.5)"><text x="19" y="0" font-family="Virgil, Segoe UI Emoji" font-size="16px" fill="#000000" text-anchor="middle" style="white-space: pre;" direction="ltr" dominant-baseline="text-before-edge">Type</text></g><g stroke-linecap="round" transform="translate(710 346) rotate(0 40 15)"><path d="M-0.03 0.3 L78.32 -1.25 L80.31 28.93 L-1.79 28.93" stroke="none" stroke-width="0" fill="#00a4f1"></path><path d="M1.26 1.4 C21.36 0.07, 47.45 0.64, 80.6 -0.45 M0.54 0.38 C21.13 -0.05, 44.49 0.43, 80.01 0.23 M79.15 1.75 C80.79 11.29, 80.23 20.37, 78.23 31.05 M80.43 0.75 C80.49 9.05, 80.66 18.51, 79.58 29.63 M79.43 30.54 C59.13 29.62, 36.12 28.34, -1.88 29.9 M79.48 29.48 C55.76 30.35, 29.53 30.56, 0.39 29.44 M-1.36 28.37 C-1.64 18.48, 1.72 7.64, -0.99 -1.32 M0.97 29.3 C0.94 19.84, -0.81 10.48, 0.74 -0.97" stroke="#000000" stroke-width="1" fill="none"></path></g><g transform="translate(731 351) rotate(0 19 9.5)"><text x="19" y="0" font-family="Virgil, Segoe UI Emoji" font-size="16px" fill="#000000" text-anchor="middle" style="white-space: pre;" direction="ltr" dominant-baseline="text-before-edge">Type</text></g><g transform="translate(744 319) rotate(0 6.599999904632568 10)"><text x="0" y="0" font-family="Virgil, Segoe UI Emoji" font-size="16px" fill="#000000" text-anchor="start" style="white-space: pre;" direction="ltr" dominant-baseline="text-before-edge">...</text></g><g transform="translate(697.3522135897551 347.3309351088692) rotate(0 2.4166667461395264 12.5)"><text x="0" y="0" font-family="Virgil, Segoe UI Emoji" font-size="20px" fill="#000000" text-anchor="start" style="white-space: pre;" direction="ltr" dominant-baseline="text-before-edge">:</text></g><g stroke-linecap="round" transform="translate(590 130) rotate(0 110 50)"><path d="M0 0 C0 0, 0 0, 0 0 M0 0 C0 0, 0 0, 0 0 M-0.64 5.72 C2.37 3.67, 4.08 2.32, 4.45 -0.24 M-0.18 6.34 C1.05 4.66, 3.02 2.73, 4.65 0.34 M1.35 11.55 C3.06 5.89, 8.87 1.45, 11.05 -0.64 M-0.02 12.72 C4.19 7.43, 8.64 3.18, 11.3 -0.81 M-0.66 19.89 C4.92 10.61, 10 4.89, 15.93 0.37 M-0.37 17.85 C5.42 12.33, 11.35 4.78, 15.97 0.49 M1.35 23.49 C7.73 18.14, 15.73 7.58, 22.33 0.04 M0.35 23.85 C6.01 16.53, 12.98 9.23, 22.18 0.54 M1.15 28.97 C9.98 18.66, 18.79 8.47, 26.76 2.18 M-0.23 31.01 C6.43 21.46, 14.71 13.29, 26.42 0.28 M-1.65 38.53 C5.9 29.45, 17.53 19.16, 30.49 0.4 M-0.83 36.33 C6.84 29.45, 12.14 22.47, 31.73 0.02 M0.28 41.58 C7.76 33.25, 18.13 20.27, 35.92 -0.54 M-0.8 41.73 C14.16 27.83, 27.14 12.65, 37.38 0.04 M1.61 48.36 C17.84 28.74, 35.27 9.21, 43.47 -1.36 M0.65 49.1 C9.39 38.43, 19.09 27.35, 41.82 0.33 M0.48 54.18 C9.57 45.22, 19.58 32.05, 47.83 1.23 M0.71 54.81 C12.56 39.9, 25.78 26.82, 48.15 -0.57 M-1.2 60.85 C12.56 49.54, 20.9 33.48, 54.8 -2.06 M0.49 60.52 C20.19 37.04, 40.18 13.96, 53.09 0.16 M-1.54 68.84 C18.06 47.52, 36.04 27.2, 57.59 0.35 M-0.67 67.67 C20.05 43.55, 41.08 18.36, 58.45 0.45 M0.86 74.99 C14.39 58.92, 26.11 42.05, 65.63 0.34 M-0.51 72.53 C15.45 54.38, 30.55 37.28, 64.09 -0.94 M0.57 80.21 C19.2 58.16, 37.45 35.62, 68.92 -0.48 M-0.02 80.26 C13.27 64.55, 27.02 48.61, 69.41 0.42 M-0.58 83.62 C22.8 60.23, 45.58 32.86, 74.79 0.7 M-0.17 84.39 C27.65 53.94, 53.56 22.04, 74.3 0.38 M0.86 90.05 C30.4 56.77, 60.36 20.92, 80.24 1.29 M0.56 90.64 C17.71 71.34, 34.49 51.76, 78.6 1 M0.09 96.16 C27.59 66.58, 54.84 37.01, 84.76 0.75 M-0.5 98.43 C22.77 70.41, 46.69 43.49, 85.11 0.32 M3.64 99.92 C34.78 65.79, 66.44 27.93, 90.6 2.04 M1.49 100.67 C23.17 77.07, 43.26 53.85, 91 -0.83 M6.33 101.31 C25.55 80.63, 47.31 55.05, 95.65 -0.96 M7.06 101.78 C34.9 71, 60.01 40.49, 94.84 -1.1 M10.83 103.73 C38.31 76.39, 61.42 49.78, 101.7 2.01 M12.06 101.52 C41.27 68.45, 71.87 34.76, 100.02 0.23 M19.14 102.71 C46.06 66.28, 76.29 32.64, 107.28 0.99 M18.39 100.96 C46.29 67.55, 76.68 34.36, 105.74 -1.04 M22.88 101.31 C55.37 63.57, 91.29 23.17, 111.93 -0.71 M22.36 102.28 C41.86 81.13, 59.92 61.55, 110.49 0.83 M29.48 100.34 C56.42 68.35, 81.59 35.88, 116.41 1.6 M28.1 102.31 C52.63 74.47, 74.81 47.3, 116.32 -0.05 M32.45 101.79 C65.45 63.93, 101.35 25.39, 122.29 -0.22 M33.95 102.31 C51.3 80.31, 69.06 60.37, 121.65 -0.08 M38.24 102.25 C68.1 66.26, 101.41 28.86, 125.48 0.45 M38.5 100.74 C70.88 65.58, 101.32 29.05, 126.97 -0.16 M44.52 100.38 C71.79 69.8, 98.5 41.7, 134.47 -0.75 M42.99 101.06 C68.56 73.82, 95 44.19, 132.18 -0.19 M50.99 102.32 C66.87 79.5, 86.61 54.82, 136.58 0.24 M49.33 100.48 C72.47 75.83, 97.59 48.07, 137.04 0.73 M53.72 101.15 C73.96 81.31, 91.94 60.04, 144.81 1.32 M54.54 101.8 C77.24 72.9, 102.12 46.86, 143.17 -0.9 M59.93 102.3 C95.42 63.17, 129.06 27.31, 148.13 1.74 M60.74 102.09 C80.93 79.62, 98.63 59.64, 148.47 0.78 M66.34 103.01 C97.22 64.94, 128.93 31.03, 154.3 -0.56 M65.6 102.61 C97.81 64.06, 130.13 25.96, 153.14 -0.24 M69.93 101.75 C92.57 74.49, 115.18 48.98, 160.19 -1.43 M70.32 101.46 C90.03 78.72, 111.51 54.85, 158.1 -0.02 M74.32 101.69 C107.94 65.89, 138.63 28.02, 162.59 -1.1 M76.08 101.44 C101.98 72.2, 126.66 43.66, 165.02 0.07 M80.52 100.1 C103.52 79.58, 123.2 54.12, 168.5 -0.78 M82.05 100.8 C106.71 72.6, 133.07 42.73, 168.71 1.15 M85.28 99.81 C112 75.31, 135.85 46.27, 173.98 -1.16 M85.82 101.03 C112.01 73.53, 138.02 43.59, 175.17 -0.39 M91.88 102.62 C110.39 76.75, 131.39 55.46, 178.43 0.98 M91.37 101.65 C112.16 79.31, 130.17 59.34, 180 0.92 M96.46 100.78 C121.15 71.8, 148.88 43, 187.43 -1.76 M97.57 101.97 C127.1 67.88, 157.86 32.77, 186.38 0.34 M102.84 102.41 C125.22 75.87, 147.07 48.95, 191.03 0.02 M102.11 101.88 C129.38 69.15, 158.88 38.61, 191.57 0.77 M108.79 102.9 C127.81 79.2, 149.98 54.13, 194.57 -2.05 M108.01 101.66 C141.94 63.26, 174.27 23.69, 196.84 -0.5 M112.89 102.42 C144.25 66.54, 176.06 32.09, 201 1.34 M113.55 100.71 C146.6 63.52, 181.07 24.38, 201.97 0.01 M116.82 101.29 C142 72.87, 170.32 41.21, 205.67 -1.39 M118.75 101.35 C137.83 76.89, 158.11 53.48, 207.19 0.7 M124.18 101.46 C142.39 78.86, 162.82 54.98, 210.68 0.77 M123.36 101.64 C152.66 68.95, 179.44 37.77, 211.66 0.76 M130.8 101.92 C156.47 70.72, 183.08 41.84, 215.65 -1.24 M129.3 101.1 C156.75 68.02, 185.02 37.39, 217.46 -1.15 M134.87 100.91 C170.21 63.59, 203.8 21.59, 222.77 0.52 M134 102.3 C157.04 76.64, 180.12 50.63, 220.71 2.48 M138.6 99.6 C156.43 78.94, 176.11 58.03, 223.55 8.3 M140.12 100.81 C164.01 71.66, 190.91 43.39, 221.57 6.74 M143.73 103.76 C162.82 81.6, 183.89 57.04, 221.06 13.16 M144.32 102.35 C166.01 77.58, 186.3 55.6, 220.55 13.03 M151.76 99.98 C166.17 82.69, 186.34 61.27, 222.22 20.41 M149.57 101.2 C170.98 77.48, 193.27 53.04, 222.03 19.93 M156.21 101.08 C178.91 71.85, 204.85 43.26, 220.06 24.52 M154.61 101.07 C171.78 83.19, 188.34 63.94, 220.6 26.45 M159.48 101.56 C179.76 77.81, 199.42 54.44, 219.86 31.36 M160.94 100.82 C174.88 86.57, 189.07 70.95, 220.43 31.54 M165.1 103.05 C179.46 83.86, 192.85 67.94, 220.75 37.81 M166.25 101.29 C179.89 86.77, 192.78 70.66, 221 38.17 M170.6 101.7 C182.98 84.79, 197.38 69.31, 223.32 45.53 M171.43 101.04 C183.5 87.3, 196.67 72.7, 221.82 44.31 M175.81 101.67 C192.96 84.7, 211.3 64.62, 221.75 49.08 M176.03 101.18 C191.64 84.07, 206.38 66.74, 220.81 49.48 M183.65 102.56 C198.74 82.06, 212.01 66.53, 220.16 57.42 M181.19 101.09 C198.01 84.85, 211.23 66.92, 221.71 55.54 M188.45 100.82 C198.5 92.34, 205.53 78.17, 220.71 62.01 M187.17 101.24 C196.42 90.95, 206.2 78.98, 220.39 63.21 M192.78 101.19 C201.5 91.01, 205.99 83.72, 223.25 66.59 M192.27 100.98 C198.64 93.87, 204.68 87.88, 221.65 69.12 M199.75 102.19 C207.11 90.52, 213.71 84.59, 222.88 74.83 M198.31 101.3 C206.45 91.48, 215.94 81.6, 220.95 73.8 M201.82 99.47 C208.43 98.39, 211.19 92.7, 220.12 80.48 M203.63 100.6 C208.04 96.09, 212.7 90.73, 221.67 79.26 M209.11 103.32 C211.13 99.41, 213.23 94.22, 223.2 86.89 M208.52 101.5 C212.4 95.9, 217.63 91.65, 221.67 86.74 M214.15 101.73 C217.26 97.56, 220.13 94.08, 221.83 93.05 M214.13 100.91 C217.01 98.21, 218.74 94.81, 220.86 92.58" stroke="#ced4da" stroke-width="0.5" fill="none"></path><path d="M1.7 1.24 C81.89 -1.21, 162.33 -2.23, 220.94 0.93 M0.33 0.75 C74.45 -0.53, 149.03 -0.05, 219.39 -0.37 M219.99 1.46 C218.51 39.78, 220.57 77.63, 219.18 100.86 M220.64 -0.38 C220.05 37.17, 220.27 75.72, 220.31 99.71 M220.84 98.34 C146.44 99.32, 76.39 100.81, -0.66 99.1 M219.86 100.74 C165.73 100.76, 111.46 100.57, 0.81 99.41 M1.48 100.29 C-0.05 76.86, 1.35 56.18, -1.57 1.94 M-0.84 99.7 C-0.17 76, -0.93 54.08, -0.84 -0.63" stroke="#000000" stroke-width="1" fill="none"></path></g><g transform="translate(675.5 130) rotate(0 24.5 12)"><text x="24.5" y="0" font-family="Cascadia, Segoe UI Emoji" font-size="20px" fill="#000000" text-anchor="middle" style="white-space: pre;" direction="ltr" dominant-baseline="text-before-edge">list</text></g><g stroke-linecap="round" transform="translate(659.5 165) rotate(0 40.5 25)"><path d="M-1.79 -1.07 L81.15 -0.91 L80.39 51.73 L1.65 50.76" stroke="none" stroke-width="0" fill="#00a4f1"></path><path d="M0.6 -0.45 C27.31 -2.21, 56.68 0.49, 81.77 -1.85 M0.01 0.23 C27.54 0.08, 54.07 -1.13, 81.87 0.28 M79.23 1.05 C81.29 19.76, 80.18 40.05, 82.51 50.93 M80.58 -0.37 C81.12 13.67, 81.62 25.78, 81.27 50.78 M79.12 49.9 C59.5 50.85, 36.67 48.19, -1.04 51.84 M81.39 49.44 C52.17 49.91, 22.72 50.02, -0.82 49.06 M-0.99 48.68 C0.04 35.33, -1.94 22.94, -1.39 1.83 M0.74 49.03 C0.4 37.91, -0.42 24.89, 0.15 -0.54" stroke="#000000" stroke-width="1" fill="none"></path></g><g transform="translate(666 170) rotate(0 34 20)"><text x="34" y="0" font-family="Virgil, Segoe UI Emoji" font-size="16px" fill="#000000" text-anchor="middle" style="white-space: pre;" direction="ltr" dominant-baseline="text-before-edge">Element </text><text x="34" y="20" font-family="Virgil, Segoe UI Emoji" font-size="16px" fill="#000000" text-anchor="middle" style="white-space: pre;" direction="ltr" dominant-baseline="text-before-edge">Type</text></g><g stroke-linecap="round" transform="translate(10 10) rotate(0 410.5 30)"><path d="M0.15 -0.91 L820.39 1.73 L822.65 60.76 L-1.59 61.44" stroke="none" stroke-width="0" fill="#00a4f1"></path><path d="M-0.19 -0.65 C305.59 1.16, 610.62 -0.01, 821.3 0.3 M0.06 0.31 C316.88 -0.91, 634.67 -0.63, 821.37 0 M821.29 0.17 C819.65 23.24, 821.98 45.69, 820.21 61.27 M820.8 0.64 C821.06 15.46, 821.02 32.26, 820.69 60.48 M821.12 60.65 C652.79 59.42, 484.78 60.57, 0.52 59.87 M821.31 59.68 C504.66 57.88, 187.24 57.77, -0.04 60.3 M0.41 59.83 C-1.27 43.06, -1.1 24.08, -1.1 -1.67 M-0.02 60.15 C-1.29 43.16, -0.29 27.03, -0.89 -0.54" stroke="#000000" stroke-width="1" fill="none"></path></g><g transform="translate(396.5 27.5) rotate(0 24 12.5)"><text x="24" y="0" font-family="Virgil, Segoe UI Emoji" font-size="20px" fill="#000000" text-anchor="middle" style="white-space: pre;" direction="ltr" dominant-baseline="text-before-edge">Type</text></g><g stroke-linecap="round" transform="translate(30 130) rotate(0 60 17.5)"><path d="M0 0 C0 0, 0 0, 0 0 M0 0 C0 0, 0 0, 0 0 M-0.02 6.17 C2.17 4.35, 4.13 1.4, 5.7 0.51 M0.03 6.01 C1.5 4.21, 3.53 2.23, 5.1 0.18 M0.94 11.83 C1.74 10.38, 5.67 5.54, 11.32 -0.84 M0.07 12.64 C3.42 7.32, 6.97 3.61, 10.63 0.27 M0.51 17.33 C6.25 11.37, 10.58 9.07, 14.56 -1.6 M-0.99 19.38 C4.98 13.35, 9.34 8.51, 16.09 -0.38 M2.03 23.9 C4.25 17.4, 9.2 12.58, 20.35 1.81 M-0.08 23.91 C4.69 18.12, 9.71 13.04, 20.94 0.4 M1.71 28.79 C9.38 17.33, 19.95 6.77, 27.72 -1.22 M-0.06 30.7 C5.85 24.07, 11.13 17.37, 25.54 0 M1.42 35.84 C10.95 26.82, 20.02 15.98, 32.83 -0.87 M0.47 34.63 C9.21 25.05, 19.12 16.09, 31.24 -0.88 M7.86 33.87 C17.89 24.14, 26.22 10.73, 35.44 0.37 M5.19 35.02 C13.41 26.59, 20.61 17.85, 36.9 -0.38 M13.55 33.66 C18.68 25.09, 26.7 17.02, 41.72 1.1 M11.25 34.88 C19.58 26.44, 27.62 17.6, 42.87 -0.66 M18.29 34.36 C27.59 23.51, 36.77 14.09, 46.57 0.5 M15.87 36.65 C24.33 27.5, 30.82 19.88, 47.4 -0.15 M20.67 36.9 C31.32 26.68, 38.77 13.42, 52.44 -0.28 M22.04 36.03 C29.72 26.18, 39.17 15.53, 52.65 -0.77 M25.71 33.69 C37.55 25.17, 49.6 13.24, 59.62 1.37 M27.26 34.97 C40.39 22.43, 51.32 7.07, 57.16 -0.11 M30.45 36.36 C43.44 21.53, 54.94 8.6, 65.07 -1.13 M31.33 35.74 C43.76 22.25, 56.13 8.74, 63.79 -0.71 M38.09 33.85 C46.59 26.37, 52.33 18.97, 68.75 0 M37.63 36.42 C48.69 22.1, 60.01 10.36, 68.23 -0.21 M44.3 35.96 C52.86 27.85, 57.4 19.65, 76.37 0.24 M43.59 36.72 C54.73 23.63, 65.85 9.94, 74.94 -0.65 M48.04 34.67 C56.51 22.72, 66.67 15.49, 77.78 -1.73 M48.68 34.75 C59.46 22.4, 69.88 10.95, 79.6 -0.6 M53.9 35.69 C60.74 23.56, 69.86 13.67, 85.73 1.37 M52.86 36.78 C62.85 25.61, 72.15 15.56, 85.14 -0.45 M58.84 35.81 C68.35 27.3, 76.89 15.53, 90.2 0.9 M58.55 36.05 C69.75 24.15, 81.03 11.91, 90.16 -0.58 M62.6 34.4 C74.62 22.96, 87.87 7.33, 97.2 1.67 M65.1 36.55 C71.33 27.37, 79.76 18.09, 94.9 -0.62 M70.42 34.79 C79.3 24.78, 90.53 14.47, 99.13 1.45 M70.77 35.76 C78.4 25.26, 88.85 15.74, 99.73 0.37 M75.42 35.77 C83.69 23.08, 93.82 15.14, 105.5 0.36 M75.19 36.48 C85.83 21.58, 98.99 7.95, 107.11 0.64 M81.36 36.97 C88.92 26.52, 94.98 18.32, 109.36 0.33 M81.32 35.6 C91.41 23.88, 102.48 10, 112.05 -0.41 M85.01 34.34 C98.1 21.35, 107.7 9.28, 117.34 -0.73 M85.94 35.87 C96.49 21.59, 109.73 7.21, 115.44 1.23 M90.91 33.55 C101.16 22.81, 112.9 11.36, 122.68 -0.47 M91.59 34.66 C100.17 25.51, 107.47 16.31, 121.13 1.02 M97.71 37.47 C105.42 28.71, 110.51 18.19, 122.15 8.61 M97.07 35.81 C104.04 27.03, 112.78 16.69, 120.06 7.89 M100.97 35.58 C106.42 29.62, 114.4 21.27, 120.02 13.73 M101.38 36.34 C109.02 27.92, 116.09 18.78, 122.38 13.22 M107.48 35.4 C113.15 28.61, 116.2 23.68, 119.27 18.39 M106.23 36.26 C111.39 29.61, 118.16 23.26, 121.79 18.67 M113.47 35.75 C114.68 33.97, 115.53 30.73, 121.81 25.38 M112.08 35.37 C114.33 32.14, 117.17 29.44, 120.61 25.5 M117.52 35.57 C119.29 34.66, 120.08 32.05, 121.67 30.83 M117.53 35.52 C118.86 33.9, 120.31 32.4, 121.43 31.27" stroke="#ced4da" stroke-width="0.5" fill="none"></path><path d="M-0.12 1.36 C35.33 -2.11, 69.48 -1.1, 120.06 1.14 M-0.77 0.17 C41.53 -0.27, 83.42 -1.24, 119.34 0.62 M121.02 1.77 C120.97 5.9, 118.05 13.49, 121.02 36.28 M119.12 -0.88 C119.13 9.68, 120.08 18.82, 120.25 35.04 M119 36.03 C72.11 36.02, 23.74 34.19, -0.52 36.19 M120.75 34.84 C89.05 35.97, 57.01 34.43, 0.14 34.48 M0.3 36.31 C-0.35 25.78, 0.97 17.68, -1.57 -0.3 M0.11 34.36 C-0.86 27.26, 0.64 20.9, 0.36 -0.24" stroke="#000000" stroke-width="1" fill="none"></path></g><g transform="translate(65.5 135.5) rotate(0 24.5 12)"><text x="24.5" y="0" font-family="Cascadia, Segoe UI Emoji" font-size="20px" fill="#000000" text-anchor="middle" style="white-space: pre;" direction="ltr" dominant-baseline="text-before-edge">bool</text></g><g stroke-linecap="round" transform="translate(30.16547584642194 170) rotate(0 60 17.5)"><path d="M0 0 C0 0, 0 0, 0 0 M0 0 C0 0, 0 0, 0 0 M0.29 6.43 C1.62 4.2, 2.9 3.72, 5.52 0.08 M-0.44 6.45 C1.44 4.63, 3.48 2.05, 4.86 0.01 M-1.18 13.63 C3.15 8.28, 7.32 3.71, 11.62 1.36 M-0.28 11.68 C2.64 8.65, 6.43 5.03, 10.58 0.52 M1.76 16.81 C7.27 13.15, 10.5 3.1, 15.23 -1.1 M0.43 18.55 C6.34 11.95, 12.14 4.19, 14.91 0.12 M-0.62 23.09 C7.02 14.94, 14.6 8.2, 19.87 1.67 M0.06 23.74 C7.1 16.47, 13.6 8.98, 22.17 -0.75 M-1.1 29.35 C8.84 19.44, 21 6.44, 24.4 1.56 M0.6 30.45 C9.53 19.51, 17.48 9.24, 26.02 0.44 M2.46 36.88 C14.57 22.4, 25.21 7.75, 31.4 -1.31 M0.51 34.9 C12.25 24.3, 20.82 11.56, 32.3 0.76 M7.69 36.29 C15.05 23.91, 23.98 13.46, 35.75 -0.84 M5.71 35.03 C13 26.74, 20.98 18.5, 36.52 0.85 M10.74 34.46 C19.39 25.54, 28.8 15.84, 41.44 -1.53 M11.76 34.85 C18.56 27.75, 24.57 20.71, 42.82 0.63 M17.69 34.95 C23.03 29.82, 28.68 20.95, 45.86 -0.96 M17.41 35.17 C26.18 24.95, 34.3 14.95, 47.4 0.11 M22.16 37.4 C32.35 21.06, 44.48 8.95, 52.66 1.54 M21.35 36.36 C33.38 22.58, 43.82 9.25, 53.54 -0.84 M26.85 37.26 C38.53 26.39, 48.7 14.55, 60 -1.58 M27.96 36.39 C36.3 24.25, 45.35 13.71, 59.05 0.29 M31.16 35.5 C38.32 27.91, 49.17 17.49, 65.39 1.28 M32.05 35.92 C41.09 26.72, 49.27 16.49, 63.2 0.45 M39.36 34.74 C44.69 28.05, 52.04 19.46, 70.04 -1.66 M37.16 34.74 C44.14 27.88, 51.04 19.45, 68.26 -0.21 M44.87 36.71 C48.91 28.8, 59.88 18.93, 75.6 -2.11 M43.06 36.64 C51.83 25.15, 61.62 14.15, 74.43 -0.55 M47.08 33.71 C59.99 23.57, 70.98 6.34, 80.55 1.7 M48.71 35.1 C57.5 25.74, 67.59 13.43, 79.29 0.34 M51.7 34.03 C60.91 24.01, 72.73 16.3, 84.93 0.45 M53.7 36.18 C62.35 26.91, 70.65 16.25, 84.81 -1.07 M59.52 37.37 C71.22 21.99, 82.71 9.55, 90.74 -0.78 M59.25 36.18 C70.9 23.61, 80.52 10.61, 90.79 0.01 M62.75 36.32 C71.25 26.73, 79.6 22.48, 94.67 0.86 M63.68 36.53 C74.47 23.95, 84.2 11.1, 95.83 0.48 M69.83 35.75 C78.07 28.88, 81.9 21.25, 100.47 -0.52 M69.34 35.5 C79.02 26.4, 85.63 16.12, 100.83 0.17 M73.76 34.29 C80.57 30.06, 87.45 21.02, 107.75 -0.13 M74.13 35.03 C84.4 24.38, 93.43 16.03, 105.91 -0.46 M80.85 35.73 C87.66 26.25, 96.25 15, 112.28 -1.09 M80.45 36.44 C91.36 22.35, 102.76 9.88, 111.91 0.54 M87.12 34.48 C97.74 21.57, 110.79 7.13, 118.13 1.82 M84.63 35.31 C92.72 26.66, 98.71 20.27, 116.71 1.11 M91.04 35.01 C104.2 22.26, 116.05 7.49, 120.67 0.53 M91.97 35.19 C102.8 21.97, 114.52 8.66, 121.3 0.93 M97.9 37.28 C101.19 28.35, 109.01 23.25, 121.48 8.44 M96.15 36.38 C104.63 26.02, 111.03 17.95, 120.92 6.55 M100.55 36.17 C108.25 28.23, 111.16 24, 122.32 13 M102.23 35.76 C108.41 27.54, 114.46 22.23, 122.16 13.26 M107.8 34.93 C110.35 30.52, 114.77 23.52, 122.36 18.25 M106.1 35.53 C111.3 31.01, 114.56 27.01, 120.35 20.02 M112.87 36.18 C114.58 31.82, 118.88 28.63, 120.88 25.67 M111.77 35.13 C115.09 31.93, 118.13 28.41, 121.24 25.64 M117.89 36.27 C118.39 33.99, 119.97 32.79, 121.77 30.88 M117.32 35.64 C118.47 34.49, 119.93 32.99, 121.4 31.15" stroke="#ced4da" stroke-width="0.5" fill="none"></path><path d="M1.13 -0.98 C48.38 -0.79, 94.67 0.33, 120.93 0 M-0.06 0.16 C40.56 -1.02, 79.95 0.41, 119.1 -0.88 M121.28 -1.46 C118.54 12.21, 121.2 28.14, 119.1 35.17 M119.1 0.76 C119.74 13.51, 119.94 25.1, 120.95 35.78 M119.53 36.02 C82.54 34.8, 47.43 36.81, -0.74 35.46 M120.62 35.84 C82.83 34.11, 45.52 34.28, -0.39 35.48 M-0.18 34.91 C1.09 24.21, -1.62 11.27, -1.96 1.78 M-0.54 34.33 C0.92 24.18, 0.32 13.09, -0.2 -0.96" stroke="#000000" stroke-width="1" fill="none"></path></g><g transform="translate(59.66547584642194 175.5) rotate(0 30.5 12)"><text x="30.5" y="0" font-family="Cascadia, Segoe UI Emoji" font-size="20px" fill="#000000" text-anchor="middle" style="white-space: pre;" direction="ltr" dominant-baseline="text-before-edge">int64</text></g><g stroke-linecap="round" transform="translate(30 210) rotate(0 60 17.5)"><path d="M0 0 C0 0, 0 0, 0 0 M0 0 C0 0, 0 0, 0 0 M-0.15 6.92 C1.19 4.58, 3.19 2.5, 5 0.11 M-0.56 6.02 C1.66 4.4, 3.51 1.36, 5.22 0.68 M0.37 11.26 C2.61 9.62, 6.87 3.59, 10.46 0.33 M-0.61 11.27 C2.46 7.97, 6.57 5.6, 10.59 0.26 M0.18 18.89 C4.53 15.2, 8.58 8.33, 15.16 -1.27 M0.03 19.35 C6.01 11.52, 11.88 5.15, 15.97 -0.11 M0.39 25.32 C9.56 16.31, 14.96 6.22, 22.78 -0.22 M-0.45 24.29 C4.98 18.23, 10.29 14.8, 20.76 0.52 M-1 31.71 C8.65 20.95, 15.79 9.44, 26.57 1.88 M0.01 30.6 C6.5 24.43, 10.82 17.85, 26.15 0.01 M0.09 35.33 C11.26 27.01, 15.94 16.28, 32.23 0.13 M0.53 34.57 C7.13 28.73, 13.81 20.48, 32.62 0 M4.69 34.02 C16.2 23.46, 25.1 17.29, 36.09 0.02 M6.24 35.85 C14.03 25.85, 22.8 15.08, 37.37 -0.29 M11.67 37.24 C22.88 21.67, 34.76 9.3, 43.76 0.92 M12.53 34.65 C23.92 21.35, 36.5 7.17, 43.45 0.58 M15.05 34.63 C24.27 25.53, 29.11 20.97, 48.38 1.68 M16.65 35.47 C29.38 22.19, 41.44 7.75, 47.21 0.12 M23.43 35.52 C33.9 21.91, 45.99 8.37, 53.23 0.21 M22.57 36.79 C28.63 26.88, 37.13 19.05, 53.39 0.48 M27.46 36.79 C38.46 23.17, 45.09 14.15, 57.97 -0.98 M26.72 36.03 C36.39 25.46, 43.57 16.76, 58.6 0.3 M33.32 36.7 C43.31 23.03, 53.08 15.09, 65.31 0.76 M32.84 35.59 C42.41 23.77, 53.03 10.6, 64.39 -0.67 M36.73 35.12 C47.63 25.53, 54.63 16.97, 67.21 1.85 M38.34 36.24 C47.5 23.51, 58.89 11.76, 68.77 0.23 M41.17 35.22 C53.24 23.23, 64.45 10.27, 75.54 -0.03 M43.85 36.86 C51.71 24.95, 61.44 14.77, 75.24 -0.8 M48.52 34.9 C57.56 25.61, 68.73 13.99, 80.3 -0.34 M48.23 35.2 C58.87 25.22, 68.04 13.24, 80.31 -0.2 M53.3 36.44 C65.4 22.99, 72.53 10.97, 84.29 -0.12 M54.12 35.55 C64.76 23.73, 74.47 12.62, 84.56 -0.43 M57.32 34.04 C72.32 22.54, 83.31 7.47, 89.3 -0.42 M58.94 35.48 C71.37 21.44, 81.48 8.5, 90.12 -0.17 M63.89 35.37 C74.59 22.43, 87.94 7.05, 94.79 1.22 M64.48 35.55 C74.49 22.81, 85.56 11.87, 95.77 0.35 M68.49 37.14 C79.8 23.11, 88.1 13.14, 100.09 0.39 M69.86 36.03 C77.73 27.41, 84.96 17.97, 100.42 -0.92 M72.96 34.67 C83.6 24.34, 96.27 13.52, 107.08 1.34 M75.12 36.65 C82.36 27.44, 91.08 17.94, 106.16 -1.14 M80.2 37.44 C90.62 23.19, 98.81 11.04, 110.4 -1.45 M80.19 35.26 C89.01 25.41, 99.8 14.82, 111.78 -0.81 M84.36 34.67 C91.33 28.66, 97.85 19.06, 115.43 1.03 M84.51 35.59 C93.79 27.49, 100.74 18.61, 117.17 -0.39 M89.49 34.84 C97.53 26.24, 106.8 17.02, 123.16 -1.09 M91.97 35.97 C98.36 28.02, 104.54 18.53, 121.43 0.51 M95.79 35.33 C104.56 27.24, 113.29 18.8, 122.99 6.25 M96.49 35.02 C104.29 26.45, 112.87 15.54, 120.12 7.06 M102.23 33.9 C110.32 28.58, 116.66 18.48, 120.6 13.79 M101.05 36.39 C110.23 27.38, 116.6 18.11, 120.4 12.11 M104.8 34.3 C111.01 30.73, 115.53 25.88, 121.01 19.58 M107.21 36.49 C113.04 30.53, 118.11 23.12, 120.43 20.04 M111.57 34.37 C115.96 31.6, 118.64 28.29, 121.07 25.88 M112.21 35.25 C113.83 32.79, 117.16 30.43, 121.22 25.76 M117.77 36.08 C118.2 34.69, 119.28 33.75, 121.34 31.37 M117.58 35.68 C118.19 34.45, 119.41 33.27, 121.27 30.94" stroke="#ced4da" stroke-width="0.5" fill="none"></path><path d="M1.47 -1.04 C34.96 -1.97, 67.7 -1.9, 119.79 -0.22 M0.25 0.67 C43.91 -1.22, 88.63 -0.56, 119.76 0.86 M119.38 0.61 C121.06 11.92, 119.13 24.14, 120.79 33.66 M119.77 0.8 C120.29 12, 120.46 22.88, 120.93 34.12 M121.31 36.47 C81.96 32.8, 44.06 33.58, 1.82 35.21 M119.44 34.74 C89.97 35.56, 62.52 34.74, 0.81 35.74 M-0.49 34.8 C0.62 26.11, 0.36 15.53, -1.16 1.31 M0.72 34.56 C-0.17 27.11, -0.04 18.86, 0.64 -0.9" stroke="#000000" stroke-width="1" fill="none"></path></g><g transform="translate(54 215.5) rotate(0 36 12)"><text x="36" y="0" font-family="Cascadia, Segoe UI Emoji" font-size="20px" fill="#000000" text-anchor="middle" style="white-space: pre;" direction="ltr" dominant-baseline="text-before-edge">uint64</text></g><g stroke-linecap="round" transform="translate(30 250) rotate(0 60 17.5)"><path d="M0 0 C0 0, 0 0, 0 0 M0 0 C0 0, 0 0, 0 0 M0.37 6.45 C1.04 4.37, 2.22 3.33, 4.62 0.95 M-0.17 6.38 C1.53 4.42, 2.77 2.15, 4.62 0.1 M0.71 11.5 C2.44 9.34, 7.3 4.33, 10.91 1.33 M-0.5 12.66 C3.27 8.42, 6.8 5.3, 10.76 -0.09 M-0.99 19.24 C3.36 13.79, 9.64 8.45, 17.61 0.87 M-0.21 17.6 C4.13 11.89, 9.14 7.18, 15.61 -0.47 M1.44 24.79 C9.77 16.36, 14.84 7.22, 21.38 0.69 M1.06 23.31 C5.32 18.3, 9.7 13.41, 22.01 0.5 M-0.56 30.02 C7.55 24.23, 10.55 16.98, 28.25 1.83 M0.12 29.63 C5.65 24.13, 10.25 17.14, 25.79 1.27 M1.27 35.07 C9.71 27.12, 15.62 14.98, 33.4 -2.07 M0.94 35.27 C12.9 22.73, 24.38 8.61, 31.1 0.53 M4.94 36.82 C14 28.59, 18.52 23.04, 37.45 -0.8 M6.57 36.65 C17.58 21.43, 30.24 8.16, 36.94 -0.04 M13.13 33.96 C23.77 22.55, 32.05 8.91, 43.16 -2.08 M12.42 36.23 C17.98 26.56, 24.73 19.6, 43.19 -0.12 M16.46 37.56 C29.34 21.04, 41.54 8.92, 47.55 0.08 M16.87 35.11 C26.25 26.33, 35.19 16.05, 47.18 0.05 M22.97 36.55 C34.65 23.03, 44.07 11.21, 54.65 -1.14 M21.08 35.78 C27.5 28.69, 33.78 21.52, 53.69 -0.67 M27.53 35.6 C33.61 29.15, 42.43 19.78, 59.68 -1.75 M27.79 36.12 C39.81 21.11, 52.25 6.75, 57.5 0.42 M31.37 34.95 C37.99 29.31, 44.25 20.35, 65.7 -1.4 M33.14 36.35 C44.86 23.3, 55.91 10.38, 63.38 -0.42 M38.08 36.67 C48.65 22.39, 59.17 8.47, 67.85 0.15 M38.04 35.48 C46.31 25.93, 54.95 17.86, 68.69 -0.64 M41.8 36.24 C56.04 20.9, 66.26 8.4, 73.99 0.64 M42.69 36.05 C54.28 23, 64.88 9.73, 75.34 0.28 M47.92 36.14 C59.88 21.3, 70.96 9.98, 80.91 -1.14 M48.64 35.86 C55.72 27.53, 62.72 19.96, 80.38 -0.41 M53.24 37.38 C65.93 25.56, 73 9.97, 87.02 0.17 M53.3 36.67 C66.34 23.03, 77.22 8.77, 86 -1.03 M58.69 37.07 C66.98 25.72, 75.15 16.5, 88.54 0.12 M59.96 35.9 C69.43 25.53, 78.4 13.94, 90.04 -0.74 M65.5 35.98 C74.49 22.62, 85.14 11.72, 96.16 -2.02 M64.35 35.4 C73.36 25.36, 81.47 16.87, 96.09 0.14 M67.88 36.13 C80.34 23.99, 86.43 13.22, 99.26 0.33 M70.67 35.12 C79.95 22.85, 91.03 11.84, 99.95 0.91 M73.22 36.32 C83.74 24.34, 91.97 17.52, 106.6 -1.43 M74.08 35.87 C82.48 27.72, 89.21 19.3, 105.69 0.17 M78.8 33.7 C91.26 22.91, 103.62 6.04, 110.47 0.55 M80.78 35 C89.64 26.35, 95.86 16.89, 112.21 0.55 M83.92 35.33 C96.62 25.29, 102.98 12.73, 114.74 0.82 M84.53 35.13 C93.45 26.8, 103.03 16.7, 116.56 1.15 M90.63 35.77 C97.92 26.63, 106.56 17.1, 121.71 1.23 M90.64 35.9 C102.73 22.69, 113.36 8.99, 121.12 1.32 M95.92 36.6 C102.89 26.07, 110.87 18.23, 122.88 7.8 M96.58 36.65 C105.09 24.2, 114.49 15.22, 121.82 7.61 M100.39 36 C105.85 31.52, 110.23 22.18, 120.87 13.33 M101.92 36.14 C106.12 28.96, 112.4 24.29, 122.27 13.63 M108.43 36.36 C112.18 28.04, 115.84 22.5, 122.41 18.2 M106.94 35.31 C112.54 29.28, 116.81 23.8, 120.19 18.94 M112.73 34.31 C116.58 30.86, 119.88 28.49, 120.97 25.39 M112.51 35.1 C115.45 32.07, 118.79 28.44, 120.58 25.3 M116.77 36.27 C119.16 34.77, 119.57 32.53, 121.63 30.8 M117.27 35.95 C118.55 34.04, 120.34 32.27, 121.38 31.44" stroke="#ced4da" stroke-width="0.5" fill="none"></path><path d="M1.72 1.24 C32.47 0.25, 62.82 0.9, 120.93 -0.74 M-0.67 0.18 C29.22 -1.46, 59.81 0.33, 120.57 0.86 M118.23 0.17 C120.12 11.71, 121.52 27.65, 118.95 33.62 M120.1 -0.58 C118.98 7.25, 119.33 13.89, 119.03 35.36 M121.48 34.28 C74.32 35.4, 31.99 35.77, 0.28 35.35 M120.66 34.29 C83.93 33.42, 48.41 33.86, -0.14 35.14 M-1.81 33.39 C-0.59 26.12, -1.52 12.31, -1.33 0.56 M-0.36 34.42 C0.82 26.35, 1.1 18.1, -0.69 0.79" stroke="#000000" stroke-width="1" fill="none"></path></g><g transform="translate(54 255.5) rotate(0 36 12)"><text x="36" y="0" font-family="Cascadia, Segoe UI Emoji" font-size="20px" fill="#000000" text-anchor="middle" style="white-space: pre;" direction="ltr" dominant-baseline="text-before-edge">double</text></g><g stroke-linecap="round" transform="translate(310 130) rotate(0 60 17.5)"><path d="M0 0 C0 0, 0 0, 0 0 M0 0 C0 0, 0 0, 0 0 M-0.93 7.03 C0.84 4.92, 3.21 2.62, 5.52 0.34 M-0.07 6.21 C0.92 4.61, 3.17 3.1, 5.02 0.6 M-0.48 10.94 C3.22 10.27, 5.44 5.64, 11.46 -0.49 M0.88 12.25 C3.4 8.86, 5.73 4.3, 10 0.15 M1.21 18.65 C6.12 11.12, 10.88 6.7, 16.64 1.21 M-0.87 19.17 C4.84 11.96, 12.08 5.96, 15.94 1.1 M-0.72 24.91 C7.25 16.91, 13.1 9.01, 20.65 -0.78 M0.72 24.18 C6.92 16.23, 13.59 7.7, 21.92 0.71 M1.61 32.42 C7.03 20.49, 19.99 10.24, 25.45 -0.2 M-0.23 30.54 C8.65 20.85, 17.36 10.31, 26.46 0.66 M1.95 36.83 C7.64 27.64, 16.86 19.06, 29.95 -0.3 M1.51 35.96 C11.78 23.94, 20.54 11.47, 32.34 -0.1 M6.77 36.87 C12.85 28.95, 19.59 20.54, 36.55 1.48 M6.53 36.5 C13.91 25.54, 22.99 16.89, 36.87 0.5 M12.22 35.38 C25.42 22.25, 37.31 8.42, 41.92 -1.08 M11.94 35.86 C23.52 22.46, 35.15 7.97, 41.92 0.41 M17.61 33.7 C24.28 27.22, 31.16 15.95, 47.38 0.5 M15.98 35.14 C24.98 25.01, 35.37 15.1, 48.33 -0.73 M20.92 37.03 C35.23 23.12, 46.23 9.31, 53.6 -1.2 M21.73 36.57 C29.6 27.21, 37.98 19.21, 53.91 -0.81 M26.44 36.24 C35.37 29.63, 42.21 19.85, 59.04 1.96 M27.84 36.63 C36.31 26.51, 43.85 16.96, 57.92 0.5 M30.34 35.48 C42.28 27.5, 51.12 14.14, 62.67 -0.9 M32.33 36.03 C40.81 26.87, 47.68 17.58, 63 0.55 M38.82 34.39 C44.54 23.86, 54.05 14.02, 70.3 -0.21 M37.85 35.22 C44.66 26.87, 52.23 19, 69.66 -0.5 M42.45 35.54 C53.14 22.65, 65.16 12.18, 73.45 -0.57 M42.17 36.25 C51.2 26.66, 59.17 17.36, 74.26 -0.9 M46.96 33.87 C57.94 24.01, 65.29 14.54, 79.57 -1.24 M48.16 35.46 C60.07 21.16, 72.21 6.8, 79.46 0.45 M55.54 36.13 C58.66 27.11, 67.02 21.49, 86.94 1.24 M54.24 35.33 C60.88 26.66, 69.42 16.8, 84.21 -1.21 M59.71 34.27 C67.52 24.4, 77.18 11.85, 90.92 0.52 M58.35 35.23 C65.68 26.69, 73.44 18.89, 90.19 -0.68 M65.57 36.98 C75.08 24.29, 83.09 15.12, 94.8 -2.16 M64.44 35.21 C73.84 23.13, 84.39 10.9, 95.8 -0.09 M68.62 35.01 C77.69 27.24, 87.19 17.19, 100.08 1.52 M70.42 34.76 C78.66 25.85, 87.01 16.22, 100.62 0.94 M76.12 36.7 C84.89 25.48, 93.19 14.42, 105.32 0.35 M74.62 36.63 C86.58 22.79, 98.22 8.42, 105.38 0.05 M81.85 37.35 C90.91 24.83, 99.7 9.98, 112.42 -0.93 M79.79 35.58 C90.68 23.46, 103.36 10.83, 110.44 -0.05 M84.46 34.72 C96.05 23.56, 106.44 11.98, 116.81 0.52 M85.53 36.18 C97.08 22.19, 107.4 10.78, 117.08 -0.09 M90.25 34.4 C100.91 22.23, 111.71 14.65, 120.34 2.1 M90.3 35.57 C102.91 21.15, 114.76 8.72, 120.61 0.57 M95.51 37.32 C101.65 27.87, 111.83 19.93, 120.3 8.47 M95.85 35.27 C101.86 28.79, 106.48 22.88, 120.5 8.02 M101.31 37.11 C107.49 31.05, 109.37 26.41, 121.35 14.15 M101.22 35.92 C109.96 26.93, 117.21 18.3, 120.49 12.68 M107.83 35.63 C110.15 28.65, 115.99 23.36, 122.72 20.1 M107.19 35.13 C111.37 30.78, 115.78 24.55, 120.94 19.24 M112.88 35.97 C114.34 33.52, 116.85 31.42, 119.64 24.89 M112.28 35.9 C113.63 32.73, 116.52 31.12, 121.42 25.75 M116.83 35.7 C118.07 33.86, 119.94 33.01, 120.76 31.64 M117.25 35.77 C118.83 34.06, 120.51 32.16, 121.19 31.2" stroke="#ced4da" stroke-width="0.5" fill="none"></path><path d="M-1.32 1.94 C47.67 2.01, 91.34 0.84, 118 -1.32 M-0.95 -0.74 C39.25 -0.86, 78.64 -0.55, 119.94 0.2 M121.02 1.43 C121.53 14.73, 120.91 25.31, 118.6 36.73 M119.4 -0.78 C120.69 11.02, 120.59 22.47, 120.15 35.23 M119.59 34.6 C87.73 33.8, 60.94 34.16, 1.07 35.59 M120.73 35.56 C94 34.22, 68.3 34.28, 0.12 35.26 M1.64 34.55 C-0.98 25.2, 0.45 16.12, 0.03 -1.86 M-0.59 34.56 C0.3 20.72, 0.26 8.56, -0.85 -0.19" stroke="#000000" stroke-width="1" fill="none"></path></g><g transform="translate(357.5 135.5) rotate(0 12.5 12)"><text x="12.5" y="0" font-family="Cascadia, Segoe UI Emoji" font-size="20px" fill="#000000" text-anchor="middle" style="white-space: pre;" direction="ltr" dominant-baseline="text-before-edge">ip</text></g><g stroke-linecap="round" transform="translate(310 170.16030472622123) rotate(0 60 17.5)"><path d="M0 0 C0 0, 0 0, 0 0 M0 0 C0 0, 0 0, 0 0 M-0.8 6.75 C1.13 4.97, 2.62 3.7, 4.95 0.33 M-0.63 6.44 C2.08 4.4, 3.82 1.97, 4.6 0.02 M0.98 12.67 C3.7 7.59, 6.18 5.71, 10.55 -0.44 M0.28 12.34 C1.74 8.63, 4.07 6.81, 10.98 0.18 M0.76 17.49 C6.16 12.18, 13.11 5.13, 16.83 -1.15 M-0.97 18.56 C6.07 12.82, 11.04 6.78, 15.35 -0.53 M1.31 23.43 C7.1 15.65, 10.88 10.51, 21.88 1.93 M0.22 24.05 C4.35 18.28, 9.88 14.42, 21.8 0.78 M-1.99 31.18 C9.55 22.03, 15.16 11.1, 26.8 -0.57 M-0.08 30.86 C9.12 19.82, 18.32 10.09, 25.6 0.68 M0.51 36.22 C13.84 22.51, 22 8.44, 32.56 0.75 M1.64 35.82 C9.59 23.9, 20.63 12.99, 31.21 0.32 M5.84 37.45 C17.22 23.38, 29.43 9.34, 36.32 -0.57 M5.37 35.46 C17.82 22.5, 29.72 8.28, 37.78 0.34 M13.41 36.18 C23.17 24.67, 31.01 11.36, 44.18 0.54 M11.82 36.3 C23.29 21.72, 34.49 8.68, 42.15 0.6 M16.43 36.5 C23.83 24.75, 33.96 16.06, 47.57 2.14 M15.96 35.59 C24.68 28.07, 32.59 17.83, 48.31 1 M23.54 36.76 C30.89 27.15, 38.62 16.04, 52 -1.29 M21.76 36.06 C32.55 25.09, 42.56 12.06, 52.37 -0.79 M28.32 37.2 C34.8 27.92, 41.02 22.77, 57.4 -1.36 M27.93 36.03 C38.23 22.77, 49.03 10.2, 58.03 -0.47 M32.94 37.71 C39.8 27.11, 45.07 19.83, 62.93 -0.43 M32.67 36.39 C42.83 23.3, 54.31 10.52, 63.54 0.57 M36.29 33.94 C49.19 20.23, 63.43 7.7, 67.29 1.91 M38 35.13 C50.27 22.01, 62.13 8.31, 69.2 0.13 M42.31 34.84 C50.43 29.02, 55.71 20, 73.54 0.22 M43.22 36.17 C55.13 22.56, 66.53 8.22, 74.28 -1.1 M48.79 33.98 C54.61 26.85, 63.11 18.29, 81.39 0.72 M47.85 35.08 C54.47 27.28, 62.08 20.65, 78.52 -0.68 M51.68 35.08 C65.13 23.16, 79.38 9.5, 84.05 0.65 M53.16 35.89 C64.59 22.62, 74.53 9.84, 85.1 -0.72 M57.92 35.4 C68.7 21.66, 81.3 11.68, 88.51 1.73 M59.07 34.87 C71.79 21.8, 82.82 8.24, 90.1 0.97 M65.73 35.2 C71.15 28.55, 77.7 17.05, 96.36 1.65 M63.66 35.33 C73.82 23.66, 84.68 12.82, 95.45 0.6 M69.45 37.15 C80.2 25.96, 88.71 14.92, 100.11 -0.58 M70.15 35.35 C77.34 27.03, 84.49 19.48, 100.45 -0.74 M75.8 35.8 C86.44 21.65, 96.36 10.26, 108 -1.11 M74.32 36.61 C82.12 26.51, 90.37 17.16, 106.7 0.59 M80.77 37 C89.37 21.8, 102.39 10.04, 112.31 -1.88 M79.53 36.16 C93.4 22.39, 103.41 8.27, 111.55 -0.31 M85.88 35.34 C97.75 22.42, 108.88 10.02, 117.51 1.62 M86.15 35.18 C96.2 23.94, 108.04 10.16, 116.47 -0.45 M90.98 33.58 C103.98 23.8, 113.7 10.07, 123.22 -1.26 M90.56 34.79 C98.13 27.56, 105.61 18.11, 121.1 0.87 M94.61 36.11 C106.33 26.31, 112.51 17.34, 119.15 6.46 M96.59 34.82 C104.44 25.41, 112.3 17.66, 120.39 7.13 M102.79 36.36 C104.89 31.34, 111.46 25.42, 123.09 13.88 M102.51 35.57 C107.61 29.46, 111.52 23.03, 121.72 12.52 M105.31 34.25 C111.5 28.47, 118.65 24.67, 122.08 20.85 M106.5 36.64 C111.06 30.23, 116.92 23.86, 120.24 18.8 M112.5 35.55 C115.4 32.93, 115.51 29.55, 119.78 26.39 M111.85 34.9 C116.02 31.76, 119.14 28.32, 120.83 25.58 M116.91 35.15 C118.46 34.71, 118.46 34.34, 121.81 31.01 M117.28 35.84 C118.77 34.17, 119.92 32.68, 121.39 30.94" stroke="#ced4da" stroke-width="0.5" fill="none"></path><path d="M1.64 0.94 C24.67 -1.39, 48.78 -2.49, 120.59 -1.08 M-0.26 0.28 C46.94 1.47, 94.59 1.09, 120.72 -0.61 M121.74 1.7 C121.3 7.84, 118.78 18.91, 120.58 35.28 M120.64 -0.49 C120.33 6.57, 119.94 14.49, 119.53 35.64 M118.12 34.52 C92.92 34.65, 63.47 35.35, -1.65 36.44 M120.08 34.86 C90.81 35.59, 60.83 35.93, -0.44 35.23 M-0.9 34.16 C0.24 23.05, -0.26 11.17, 1.77 1.75 M0.61 34.31 C0.77 22.32, -0.64 7.94, 0.69 -0.51" stroke="#000000" stroke-width="1" fill="none"></path></g><g transform="translate(334 175.66030472622123) rotate(0 36 12)"><text x="36" y="0" font-family="Cascadia, Segoe UI Emoji" font-size="20px" fill="#000000" text-anchor="middle" style="white-space: pre;" direction="ltr" dominant-baseline="text-before-edge">subnet</text></g><g stroke-linecap="round" transform="translate(450 130) rotate(0 60 17.5)"><path d="M0 0 C0 0, 0 0, 0 0 M0 0 C0 0, 0 0, 0 0 M-1.02 6.25 C1.95 4.21, 2.93 2.37, 5.68 0.65 M-0.39 6.71 C1.55 4.44, 3.38 1.88, 5.33 0.56 M0.16 13.21 C4.16 7.9, 9.58 3.09, 11.02 0.4 M0.76 12.38 C2.97 7.97, 7.05 4.96, 11.28 0.17 M-0.24 18.58 C4.2 12.98, 10.21 6.98, 15.32 1.27 M-0.86 17.87 C2.98 14.89, 6.23 12.08, 15.03 -0.37 M0.93 25.57 C7.2 16.31, 12.29 13.86, 20.46 -0.8 M0.72 24.42 C7.59 15.07, 14.12 6.59, 21.46 0 M1.68 32.07 C10.73 18.58, 16.88 8, 24.35 -0.57 M0.51 30.3 C8.94 21.23, 16.75 9.64, 26.84 0.83 M1.15 35.66 C12.65 21.78, 25.11 5.75, 30.19 -2.05 M1.25 34.76 C8.8 25.08, 17.35 15.62, 32.51 -0.06 M4.33 36.55 C13.61 26.46, 23.98 15.83, 38.7 1.15 M5.72 34.87 C14.45 27.36, 20.28 19.97, 37.65 0.17 M13.01 34.63 C21.44 24.98, 28.54 17.02, 40.86 -0.61 M11.98 35.75 C19.88 25.49, 28.49 16.03, 43.25 -0.89 M17.07 36.04 C26.32 22.74, 36.43 10.78, 46.08 -1.39 M16.03 35.24 C23.32 27.67, 30.83 21.05, 46.67 -0.18 M19.88 34.65 C31.08 26.48, 38.23 13.85, 54.86 1.82 M21.56 36.66 C32.67 25.76, 40.95 14.28, 53.65 0.51 M27.82 33.98 C33.13 25.36, 42.26 17.89, 59.05 0.71 M26.78 34.74 C35.25 27.53, 41.32 19.77, 58.89 -0.66 M33.73 34.96 C41.1 25.01, 49.33 18.61, 62.43 1.18 M32.24 36.63 C42.69 22.41, 54.6 11.52, 64.03 0.05 M36.94 34.21 C45.45 28.1, 51.83 21.36, 69.01 -1.05 M38.2 36.34 C46.17 26.37, 54.65 15.59, 68.19 0.75 M43.45 35.7 C49.78 29.71, 56.49 18.24, 75.64 1.07 M43.16 35.48 C52.98 24, 65.06 10.92, 74.02 -0.43 M46.63 36.19 C58.47 22.85, 72.66 10.63, 80.22 1.52 M47.88 34.95 C61.2 20.94, 73.26 6.52, 80.22 -0.55 M55.41 36.92 C61.94 24.39, 73.9 12.67, 86.41 -1.25 M53.94 35.69 C61.41 27.28, 69.43 19, 85.58 -0.19 M58.94 37.07 C70.83 23, 79.89 10.44, 91.78 -0.74 M59.72 36.37 C66.38 27.75, 75.45 17.3, 89.5 -0.7 M62.83 37.36 C72.89 24.5, 83.68 13.79, 96.51 -0.87 M65.01 36.16 C75.91 22.94, 87.16 8.34, 96.01 -0.53 M69.77 33.62 C76.22 28.9, 83.56 18.4, 99.61 -0.35 M68.95 36.37 C81.47 22.42, 94.21 8.63, 100.35 -0.44 M75.77 36.36 C83.76 22.94, 97.25 9.91, 107.55 0.79 M74.64 35.23 C85.06 25.99, 93.95 15.78, 106.94 0.14 M78.84 36.29 C87.39 27, 93.26 17.77, 110.5 0.85 M81.12 35.59 C90.1 22.67, 100.86 11.58, 111.94 -0.08 M87.14 35.95 C99.1 23.17, 108.95 9.2, 114.32 -1.3 M85.94 35.65 C93.89 26.47, 104.67 15.02, 116.65 0.11 M91.73 35.19 C99.98 24.54, 110.65 12.05, 119.42 2.41 M91.13 34.63 C102.48 22.12, 111.89 9.3, 120.6 0.23 M94.69 34.82 C102.83 29.58, 110.51 19.22, 119.53 6.04 M95.82 35.58 C103.38 27.2, 111.04 17.54, 121.82 7.09 M101.86 34.08 C106.55 29.25, 110.55 22.25, 119.64 12.37 M102.19 34.99 C107.88 29.63, 111.87 23.35, 120.97 12.61 M107.01 34.3 C111.69 30.55, 116.53 23.44, 120.98 17.59 M106.04 35.62 C109.42 31.83, 114.28 26.87, 121.73 18.71 M112.45 36.02 C115.24 32.35, 117.87 28.3, 120.09 26.03 M112.66 35.85 C115.46 32.06, 118.29 28.08, 121.51 25.48 M117.39 35.93 C118.94 34.19, 119.27 32.6, 120.96 30.63 M117.59 35.75 C118.24 34.65, 118.91 33.65, 121.46 31.14" stroke="#ced4da" stroke-width="0.5" fill="none"></path><path d="M1.66 1.6 C30.59 1.04, 58.95 -1.85, 118.92 -0.76 M0.58 -0.97 C28.26 -0.76, 55.43 -0.73, 119.23 0.93 M118.43 -1.73 C118.49 11.88, 120.93 23.38, 121.83 36.33 M120.12 0.42 C120.67 11.31, 120.76 21, 120.4 34.26 M121.42 36.31 C75.9 36.69, 29.97 33.43, -0.71 34.02 M120.58 34.02 C78.74 34.26, 38.4 35.61, -0.84 35.45 M-0.67 33.85 C1.34 25.71, 1.09 15, 0.17 1.61 M0.84 35.56 C-0.05 20.86, 0.63 6.77, 0.44 -0.23" stroke="#000000" stroke-width="1" fill="none"></path></g><g transform="translate(474 135.5) rotate(0 36 12)"><text x="36" y="0" font-family="Cascadia, Segoe UI Emoji" font-size="20px" fill="#000000" text-anchor="middle" style="white-space: pre;" direction="ltr" dominant-baseline="text-before-edge">string</text></g><g stroke-linecap="round" transform="translate(450 209.51520392621035) rotate(0 60 17.5)"><path d="M0 0 C0 0, 0 0, 0 0 M0 0 C0 0, 0 0, 0 0 M0.08 7.03 C1.8 4.14, 2.79 3.07, 5.26 1.01 M0.13 6.38 C1.44 4.18, 3.34 2.31, 5.28 0.3 M0.78 10.87 C2.98 7.76, 7.76 3.73, 12.16 -0.98 M0.05 12.3 C3.22 9.99, 4.29 7.18, 11.25 -0.36 M0.58 19.35 C4.59 13.98, 7.04 7.61, 14.5 0.73 M-0.12 19.28 C5.4 13.63, 8.8 6.53, 15 -0.62 M1.81 25.1 C5.23 18.67, 12.76 10.82, 19.71 1.11 M0.63 24.13 C7.61 15.19, 15.2 6.75, 20.6 -0.92 M1.69 30.87 C4.19 23.17, 10.02 17.31, 26.02 1.54 M0.37 29.62 C8.39 20.41, 16.72 11.78, 27.02 1.2 M-0.63 34.72 C10.19 24.94, 22.15 9.71, 33.64 1.45 M0.56 36.03 C9.84 25.89, 18.53 15.09, 31.86 -0.93 M4.89 36.32 C15.48 25.05, 22.85 15.33, 37.34 1.72 M6.23 35.93 C13.06 27.5, 19.17 19.54, 36.02 -0.46 M10.07 34.05 C17.86 27.68, 24.18 21.71, 43.13 -1.82 M11.18 34.44 C19.04 26.41, 28.07 16.26, 41.72 0.72 M15.8 35.49 C30.18 23.7, 42.81 6.64, 48.43 1.23 M16.61 35.95 C27.42 21.92, 38.69 9.73, 47.07 0.68 M21.5 35 C30.32 25.34, 42.86 11.12, 54.8 1.34 M20.98 36.77 C28.03 28.46, 34.58 20.55, 54.04 -0.85 M26.58 35.56 C39.73 21.44, 48.04 9.91, 60.1 0.68 M26.72 35.16 C36.9 24.39, 47.87 12.48, 59.05 0.31 M33.91 36.56 C41.37 26.81, 48.96 18.15, 63.15 -1.37 M32.11 36.28 C43.74 22.87, 56.08 9.68, 62.99 0.41 M37.85 36.11 C48.05 21.52, 61.03 11.24, 68 -0.64 M38.66 34.66 C46.63 24.9, 55.38 16.25, 69.7 0.57 M44.43 34.63 C52.95 23.66, 64.95 10.14, 72.51 1.4 M43.59 36.91 C50.72 26.98, 57.51 19.64, 74.08 0.44 M48.05 36.37 C55.98 27.15, 64.4 18.94, 80.64 1.2 M47.9 35.47 C58.72 25.22, 67.03 13.65, 78.57 0.99 M51.68 37.01 C63.52 25.68, 71.39 19.19, 83.05 -1.34 M52.89 35.27 C61.21 27.44, 67.3 19.9, 85.17 0.15 M59.49 37.21 C67.81 25.43, 77.04 14.63, 89.35 0.77 M58.2 35.53 C67.01 25.03, 77.44 15.04, 90.03 -0.44 M65.12 34.17 C74.38 25.56, 82.88 17.16, 96.78 -0.92 M64.34 36.4 C72.14 25.67, 79.71 17.8, 95.41 0.31 M68.3 35.18 C79.55 24.67, 92.77 11.38, 102.34 1.32 M70.69 34.71 C81.21 23.01, 91.64 9.94, 100.29 -0.34 M75.07 37.22 C85.61 21.57, 95.11 9.41, 107.55 0.96 M74.07 36.73 C83.71 26.46, 93.07 15.03, 106.31 -1.32 M78.47 36.48 C86.75 26.34, 95.25 22.15, 110.62 0.76 M80.78 35.81 C88.72 25.59, 97.24 16.56, 110.38 -0.91 M86.69 35.94 C95.42 23.54, 107.65 6.97, 114.43 -0.94 M85.07 35.16 C92.71 26.69, 101.8 18.15, 116.03 -0.36 M91.82 34.95 C97.95 25.85, 107.04 16.77, 121.41 2.38 M91.24 35.53 C99.49 25.2, 108.93 14.4, 120.52 -0.14 M97.98 36.76 C102.32 29.91, 110.49 19.83, 120.36 6.27 M96.13 35.96 C102.17 27.3, 110.51 18.86, 121.12 7.06 M102.03 34.1 C105.84 28.6, 110.98 26.08, 120.26 13.98 M101.16 35.5 C107.07 29.69, 111.84 23.67, 121.22 12.18 M105.77 36.76 C112.9 30.76, 116.38 24.85, 119.38 21.15 M106.88 35.88 C111.11 31.62, 114.75 25.32, 120.74 18.66 M112.52 36.5 C114.2 33.65, 115.39 30.9, 120.24 26.4 M112.75 35.31 C114.66 32.81, 117.18 30.08, 121.06 26.21 M116.86 36.33 C119.43 33.56, 120.73 32.37, 121.28 31.25 M117.16 35.53 C119.14 34.07, 120.47 32.39, 120.97 31.02" stroke="#ced4da" stroke-width="0.5" fill="none"></path><path d="M-0.95 0.24 C44.85 0.49, 88.89 0.68, 118.53 0.8 M0.12 0.71 C27.73 1.33, 54.93 0.74, 119.14 -0.36 M119.35 1.16 C118.19 8.17, 119.43 18.18, 121.99 33.32 M119.97 -0.33 C119.46 12.74, 120.81 24.69, 120.85 35.09 M120.7 36.69 C75.49 33, 28.24 34.35, -0.86 35.87 M120.38 35.03 C86.51 35.12, 53.95 34.26, 0.38 35.74 M0.85 36.42 C0.37 20.99, -0.45 11.54, 0.86 0.26 M0.45 34.05 C-0.39 23.34, -0.2 10.11, 0.42 0.87" stroke="#000000" stroke-width="1" fill="none"></path></g><g transform="translate(468 215.01520392621035) rotate(0 42 12)"><text x="42" y="0" font-family="Cascadia, Segoe UI Emoji" font-size="20px" fill="#000000" text-anchor="middle" style="white-space: pre;" direction="ltr" dominant-baseline="text-before-edge">pattern</text></g><g transform="translate(41.71666717529297 96.5) rotate(0 48.28333282470703 12.5)"><text x="48.28333282470703" y="0" font-family="Virgil, Segoe UI Emoji" font-size="20px" fill="#000000" text-anchor="middle" style="white-space: pre;" direction="ltr" dominant-baseline="text-before-edge">Arithmetic</text></g><g transform="translate(186.0999984741211 96.5) rotate(0 43.900001525878906 12.5)"><text x="43.900001525878906" y="0" font-family="Virgil, Segoe UI Emoji" font-size="20px" fill="#000000" text-anchor="middle" style="white-space: pre;" direction="ltr" dominant-baseline="text-before-edge">Temporal</text></g><g transform="translate(331.1666679382324 96.5) rotate(0 38.33333206176758 12.5)"><text x="38.33333206176758" y="0" font-family="Virgil, Segoe UI Emoji" font-size="20px" fill="#000000" text-anchor="middle" style="white-space: pre;" direction="ltr" dominant-baseline="text-before-edge">Network</text></g><g transform="translate(482.1000003814697 96.5) rotate(0 27.899999618530273 12.5)"><text x="27.899999618530273" y="0" font-family="Virgil, Segoe UI Emoji" font-size="20px" fill="#000000" text-anchor="middle" style="white-space: pre;" direction="ltr" dominant-baseline="text-before-edge">String</text></g><g transform="translate(649 96.5) rotate(0 51 12.5)"><text x="51" y="0" font-family="Virgil, Segoe UI Emoji" font-size="20px" fill="#000000" text-anchor="middle" style="white-space: pre;" direction="ltr" dominant-baseline="text-before-edge">Containers</text></g><g stroke-linecap="round" transform="translate(449.92756256350935 170.58191768037733) rotate(0 60 17.5)"><path d="M0 0 C0 0, 0 0, 0 0 M0 0 C0 0, 0 0, 0 0 M0.41 5.73 C1.81 4.51, 4.41 2.05, 4.44 0.91 M-0.66 6.32 C1.88 3.93, 3.59 1.86, 5.03 0.75 M-0.75 13.16 C3.88 7.81, 4.68 5.21, 9.69 -1.08 M0.87 11.48 C4.71 6.78, 8.2 3.02, 11.27 0.23 M0.57 17.61 C3.38 13.87, 5.49 11.73, 15.12 -0.72 M-0.55 19.29 C4.96 11.81, 9.11 8.11, 14.89 1.09 M2.19 23.12 C3.71 16.65, 10.2 10.53, 19.93 -1.43 M0.78 24.7 C6.83 16.44, 13.98 7.39, 21.7 0.11 M1.86 29.9 C12.01 18.62, 21.69 6.19, 24.71 0.82 M-0.14 30.18 C9.87 19.26, 20.87 7.63, 26.72 -0.42 M1.54 35.87 C12.3 23.61, 20.6 10.38, 31.29 -1.61 M1.77 35.58 C10.98 23.38, 23.02 10.26, 32.06 0.55 M6.68 36.83 C14.8 25.09, 20.7 17.19, 37.41 0.6 M6.67 36.09 C16.66 25.24, 25.09 12.8, 36.28 1.05 M11.9 36.77 C24.84 21.48, 35.8 8.49, 44.16 0.5 M11.6 35.95 C20.4 23.97, 29.75 14.06, 43.01 -0.84 M14.98 35.68 C29.76 23.48, 39.06 9.27, 46.93 -0.31 M15.78 36.39 C24.64 26.99, 32.2 17.38, 48.15 1.1 M21.12 36.31 C35.32 20.56, 46.54 9.45, 54.86 -0.89 M21.03 35.81 C33.28 23.01, 44.21 10.96, 52.46 0.33 M27.12 35.3 C35.3 27.85, 44.16 17.02, 57.73 -0.09 M27.18 35.07 C38.43 22.35, 51.61 7.78, 58.79 -0.34 M31.59 36.2 C44.1 20.62, 55.88 9.22, 65.45 -1.82 M32.53 35.9 C43.34 22.63, 53.34 10.96, 64.69 0.33 M37.77 37.04 C48.59 23.53, 55.87 16.21, 66.96 1.87 M37.84 34.7 C48.38 22.14, 60.35 10.14, 69.57 0.07 M44.43 35.17 C54.34 21.21, 66.44 11.42, 73.7 1.47 M43.5 36.63 C49.4 28.22, 56.36 21.8, 75.38 0.27 M49.33 34.03 C55.68 27.7, 66.03 14.71, 78.51 -1.04 M48.14 34.72 C60.47 22.24, 72.59 7.44, 79.73 0 M52.14 36 C65.42 21.75, 78.17 9.81, 83.1 -1.49 M53.86 35.96 C64.83 22.77, 75.24 10.18, 84.6 -0.86 M57.91 37.17 C65.9 25.34, 74.75 13.36, 88.97 -0.63 M58.83 36.41 C65.19 27.36, 72.7 20.14, 89.43 0.48 M63.96 36.23 C73.4 24.05, 83.63 13.39, 96.85 -1.38 M64.46 35.26 C72.55 25.02, 82.63 15.97, 95.82 -1.22 M71.36 37.16 C82.84 23.42, 93.99 9.93, 101.65 0.04 M70.07 35.93 C79.52 24.92, 89.28 12.12, 100.69 0.9 M75.83 34.19 C82.86 29.01, 89.27 16.17, 107.89 0.89 M74.01 36.21 C81.33 28.1, 87.72 21.23, 106.9 -1.12 M79.22 34.47 C92.05 24.71, 100.14 12.5, 112.61 0.72 M80.38 35.29 C89.69 23.95, 99.45 11.75, 110.43 0.02 M84.4 34.99 C92.47 26.12, 101.72 18.58, 116.2 0.95 M86.13 35.9 C97.29 22.3, 107.44 10.69, 116.4 0.76 M90.75 37.34 C98.86 24.63, 107.14 14.72, 119.93 2.67 M91.72 35.36 C102.91 21.65, 114.67 7.57, 120.82 1.71 M97.06 36.54 C106.02 25.36, 113.91 12.87, 119.56 8.75 M96.3 35.74 C105.1 25.57, 112.57 16.74, 121.39 8.11 M100.97 35.82 C107.34 28.29, 110.14 21.83, 121.91 11.77 M102.38 34.87 C105.35 31.32, 109.72 26.41, 122.37 12.99 M105.91 35.49 C108.97 30.11, 114.4 27.81, 120.71 19.97 M106.94 36.52 C111.35 29.72, 116.72 23.54, 121.54 19.45 M112.48 35.59 C115.61 32.22, 116.86 28.8, 121.56 25.53 M112.18 35.4 C115.47 32.07, 118.52 27.98, 121.51 25.94 M117.46 36.21 C119.25 34.32, 120.29 32.73, 120.9 31.31 M117.62 35.63 C118.73 34.05, 120.28 32.51, 121.14 31.05" stroke="#ced4da" stroke-width="0.5" fill="none"></path><path d="M-0.46 -1.27 C46.02 0.7, 88.87 -0.94, 120.24 0.84 M0.44 0.86 C34.34 -0.77, 71.34 -0.51, 119.13 -0.99 M120.47 -0.16 C120.39 9.89, 121.19 15.66, 118.78 33.99 M119.68 0.52 C120.59 8.04, 120.42 14.21, 119.59 34.45 M120.54 35.94 C75.63 35.34, 29.16 36.48, 1.92 34.75 M120.53 35.08 C94.24 35.98, 68.85 35.01, 0.67 35.64 M0.96 33.71 C-0.79 20.59, -1.25 9.86, 1.59 -1.72 M0.71 34.46 C0.26 25.79, -0.11 15.2, -0.82 0.04" stroke="#000000" stroke-width="1" fill="none"></path></g><g transform="translate(486.4608953882164 176.08191768037733) rotate(0 23.46666717529297 12)"><text x="23.46666717529297" y="0" font-family="Cascadia, Segoe UI Emoji" font-size="20px" fill="#000000" text-anchor="middle" style="white-space: pre;" direction="ltr" dominant-baseline="text-before-edge">blob</text></g></svg>