<?xml version="1.0" encoding="UTF-8" standalone="no"?>
<!DOCTYPE svg PUBLIC "-//W3C//DTD SVG 1.1//EN" "http://www.w3.org/Graphics/SVG/1.1/DTD/svg11.dtd">
<svg xmlns:xl="http://www.w3.org/1999/xlink" xmlns="http://www.w3.org/2000/svg" version="1.1" xmlns:dc="http://purl.org/dc/elements/1.1/" viewBox="-1 -1 235 174" width="235" height="174">
  <defs/>
  <g id="Canvas_1" stroke="none" fill="none" stroke-opacity="1" stroke-dasharray="none" fill-opacity="1">
    <title>Canvas 1</title>
    <g id="Canvas_1_Layer_1">
      <title>Layer 1</title>
      <g id="Graphic_3">
        <path d="M 225.48012 57.46975 C 220.91548 57.46975 217.2185 61.166726 217.2185 65.73137 L 217.2185 92.98544 L 203.5764 92.98544 L 203.5764 43.777946 C 203.5764 35.020636 196.4714 27.915648 187.7244 27.915648 L 142.31594 27.915648 L 142.31594 15.523227 L 169.57794 15.523227 C 174.14258 15.523227 177.82924 11.826254 177.82924 7.261614 C 177.82924 2.696973 174.14258 -1 169.57794 -1 L 98.53864 -1 C 93.974 -1 90.28734 2.696973 90.28734 7.261614 C 90.28734 11.826254 93.98431 15.523227 98.53864 15.523227 L 125.80064 15.523227 L 125.80064 27.915648 L 92.9181 27.915648 C 92.9181 27.915648 85.89586 27.54389 81.73386 28.79344 C 77.57212 30.04302 73.40007 35.309673 73.40007 35.309673 L 53.417274 55.891534 L 42.4707 55.891534 C 33.71339 55.891534 26.608403 62.99652 26.608403 71.75383 L 26.608403 92.98605 L 16.023227 92.98605 L 16.023227 65.731975 C 16.023227 61.167334 12.326254 57.47036 7.761614 57.47036 C 3.196973 57.460035 -.5 61.167334 -.5 65.731975 L -.5 136.77128 C -.5 141.33592 3.196973 145.03289 7.761614 145.03289 C 12.326254 145.03289 16.023227 141.33592 16.023227 136.77128 L 16.023227 109.50927 L 26.618714 109.50927 L 26.618714 131.08253 C 26.618714 139.83984 33.7237 146.93452 42.48101 146.93452 L 50.494645 146.93452 L 72.58422 165.38898 C 72.58422 165.38898 77.07642 169.1687 82.57033 170.99657 C 87.55823 172.65922 96.59445 173 96.59445 173 L 155.92209 173 C 155.92209 173 159.0615 173 161.416 171.99827 C 163.77057 171.00688 165.22665 168.46653 165.22665 168.46653 L 181.9048 146.93478 L 187.70855 146.93478 C 196.46586 146.93478 203.57085 139.8298 203.57085 131.0828 L 203.57085 109.49923 L 217.20238 109.49923 L 217.20238 136.76123 C 217.20238 141.32587 220.89935 145.02285 225.4743 145.02285 C 230.03894 145.02285 233.7256 141.32587 233.7256 136.76123 L 233.7256 65.7325 C 233.73593 61.16786 230.03894 57.47089 225.48012 57.46975 Z M 100.5587 146.68574 L 115.1507 104.09812 L 95.41588 104.09812 L 121.11994 53.433935 L 151.23451 53.433935 L 130.68385 95.65144 L 151.60649 95.65144 Z" fill="#00a4f1"/>
      </g>
    </g>
  </g>
</svg>
