<?xml version="1.0" encoding="UTF-8" standalone="no"?>
<!DOCTYPE svg PUBLIC "-//W3C//DTD SVG 1.1//EN" "http://www.w3.org/Graphics/SVG/1.1/DTD/svg11.dtd">
<svg xmlns:xl="http://www.w3.org/1999/xlink" xmlns="http://www.w3.org/2000/svg" version="1.1" xmlns:dc="http://purl.org/dc/elements/1.1/" viewBox="-283 202 306.37103 235.39005" width="306.37103" height="235.39005">
  <defs/>
  <g id="Canvas_1" stroke="none" fill="none" stroke-opacity="1" stroke-dasharray="none" fill-opacity="1">
    <title>Canvas 1</title>
    <g id="Canvas_1_Layer_1">
      <title>Layer 1</title>
      <g id="Group_397">
        <title>Group</title>
        <g id="Line_66">
          <line x1="-248.42286" y1="384.18368" x2="-225.8323" y2="351.14694" stroke="#bdcfdb" stroke-linecap="round" stroke-linejoin="round" stroke-width="5"/>
        </g>
        <g id="Line_56">
          <line x1="-199.53235" y1="330.08043" x2="-145.11605" y2="308.3641" stroke="#bdcfdb" stroke-linecap="round" stroke-linejoin="round" stroke-width="5"/>
        </g>
        <g id="Line_86">
          <line x1="-207.49968" y1="352.0949" x2="-171.6634" y2="418.22905" stroke="#bdcfdb" stroke-linecap="round" stroke-linejoin="round" stroke-width="5"/>
        </g>
        <g id="Line_372">
          <line x1="3.558705" y1="287.65126" x2="-36.586174" y2="343.38987" stroke="#bdcfdb" stroke-linecap="round" stroke-linejoin="round" stroke-width="5"/>
        </g>
        <g id="Line_371">
          <line x1="-54.57872" y1="229.9598" x2=".7497685" y2="270.1537" stroke="#bdcfdb" stroke-linecap="round" stroke-linejoin="round" stroke-width="5"/>
        </g>
        <g id="Line_396">
          <line x1="-256.08052" y1="301.08185" x2="-229.08463" y2="324.94595" stroke="#bdcfdb" stroke-linecap="round" stroke-linejoin="round" stroke-width="5"/>
        </g>
        <g id="Line_370">
          <line x1="-53.218706" y1="339.1948" x2="-66.5481" y2="237.07048" stroke="#bdcfdb" stroke-linecap="round" stroke-linejoin="round" stroke-width="5"/>
        </g>
        <g id="Line_373">
          <line x1="-123.26996" y1="310.92143" x2="-69.26379" y2="348.8947" stroke="#bdcfdb" stroke-linecap="round" stroke-linejoin="round" stroke-width="5"/>
        </g>
        <g id="Graphic_71">
          <circle cx="-215.89115" cy="336.60885" r="17.608881904877" fill="#00a4f1"/>
        </g>
        <g id="Graphic_70">
          <circle cx="-257.11087" cy="396.88913" r="15.3891568841704" fill="#00a4f1"/>
        </g>
        <g id="Graphic_52">
          <circle cx="-133.5" cy="303.7284" r="12.5037146657614" fill="#fe2600"/>
        </g>
        <g id="Graphic_51">
          <circle cx="-166.80497" cy="427.19503" r="10.1950429303394" fill="#00a4f1"/>
        </g>
        <g id="Graphic_366">
          <circle cx="-50.20343" cy="362.29657" r="23.2966057684705" fill="#00a4f1"/>
        </g>
        <g id="Graphic_369">
          <circle cx="10.867336" cy="277.5037" r="12.5037146657614" fill="#00a4f1"/>
        </g>
        <g id="Graphic_368">
          <circle cx="-68.82721" cy="219.60885" r="17.608881904877" fill="#00a4f1"/>
        </g>
        <g id="Group_375">
          <g id="Graphic_384">
            <path d="M -107.60039 346.78922 L -112.89586 337.6172 C -94.80612 326.62864 -88.5393 303.24016 -98.71108 284.67887 L -89.53905 279.3834 C -89.11182 279.13673 -88.96104 278.5859 -89.20988 278.1549 C -89.45871 277.7239 -90.00736 277.5769 -90.43836 277.82573 L -99.6104 283.1212 C -110.59894 265.03147 -133.98742 258.76464 -152.54872 268.93643 L -157.8442 259.7644 C -158.09303 259.3334 -158.64168 259.1864 -159.07268 259.43522 C -159.4999 259.68188 -159.65069 260.2327 -159.40185 260.6637 L -154.10637 269.83574 C -172.19393 280.82806 -178.4607 304.21664 -168.28892 322.77794 L -177.46095 328.0734 C -177.89195 328.32225 -178.03896 328.8709 -177.79012 329.3019 C -177.54129 329.7329 -176.99264 329.8799 -176.56164 329.63107 L -167.3896 324.3356 C -156.39729 342.42315 -133.0087 348.68992 -114.44741 338.51814 L -109.15194 347.69017 C -108.90528 348.1174 -108.35445 348.26818 -107.92345 348.01934 C -107.5022 347.7711 -107.35359 347.2165 -107.60024 346.78927 Z M -126.30189 317.99457 L -115.35286 336.95884 C -133.0556 346.6351 -155.34637 340.6622 -165.83938 323.431 L -146.87292 312.48577 C -146.44192 312.23693 -146.29491 311.6883 -146.54375 311.2573 C -146.79259 310.8263 -147.34124 310.67928 -147.77223 310.9281 L -166.7365 321.87714 C -176.41276 304.1744 -170.43986 281.88364 -153.20868 271.39063 L -142.25966 290.3549 C -142.01082 290.7859 -141.46217 290.9329 -141.03117 290.68407 C -140.60018 290.43523 -140.45316 289.8866 -140.702 289.4556 L -151.65103 270.4913 C -133.9483 260.81507 -111.65752 266.78796 -101.16452 284.01914 L -120.12879 294.96816 C -120.55978 295.217 -120.7068 295.76565 -120.45796 296.19665 C -120.20912 296.62765 -119.66047 296.77466 -119.22947 296.52582 L -100.2652 285.5768 C -90.58895 303.27953 -96.56184 325.5703 -113.79302 336.0633 L -124.74205 317.09903 C -124.9887 316.6718 -125.53954 316.52103 -125.97053 316.76986 C -126.40153 317.0187 -126.54854 317.56735 -126.30189 317.99456 Z" fill="#ea400c"/>
          </g>
          <g id="Graphic_383">
            <path d="M -161.901 314.34604 C -166.44771 302.23636 -162.79037 288.57627 -152.80826 280.35345 C -152.4263 280.03714 -152.36816 279.47427 -152.68664 279.08853 C -153.00295 278.70656 -153.5696 278.6506 -153.95156 278.9669 C -164.52839 287.67956 -168.39832 302.14828 -163.58148 314.97952 C -163.56503 315.02547 -163.54262 315.07302 -163.5186 315.1146 C -163.30251 315.4889 -162.84418 315.66284 -162.42521 315.50665 C -161.9587 315.32805 -161.72384 314.80934 -161.90026 314.3466 Z" fill="#ea400c"/>
          </g>
          <g id="Graphic_382">
            <path d="M -156.86024 323.0501 C -157.17655 322.6681 -157.7432 322.61215 -158.12516 322.92846 C -158.46612 323.211 -158.54844 323.6971 -158.33452 324.0676 C -158.30833 324.11297 -158.28054 324.15238 -158.24678 324.1934 C -149.546 334.74093 -135.08884 338.6085 -122.28023 333.81505 C -121.81531 333.6424 -121.58045 333.1237 -121.7531 332.6588 C -121.92951 332.19605 -122.44444 331.959 -122.90936 332.13165 C -135.00113 336.65796 -148.64688 333.00756 -156.86073 323.04995 Z" fill="#ea400c"/>
          </g>
          <g id="Graphic_381">
            <path d="M -110.10882 284.4438 C -109.7963 284.82796 -109.22965 284.8839 -108.8439 284.56543 C -108.46194 284.24912 -108.4038 283.68625 -108.72228 283.3005 C -117.42362 272.71714 -131.891 268.83097 -144.72895 273.6362 C -145.19386 273.80883 -145.42872 274.32754 -145.25608 274.79245 C -145.23964 274.8384 -145.21722 274.88596 -145.19321 274.92754 C -144.97712 275.30183 -144.51879 275.47577 -144.09982 275.31958 C -131.98137 270.78807 -118.32331 274.45085 -110.10889 284.44297 Z" fill="#ea400c"/>
          </g>
          <g id="Graphic_380">
            <path d="M -105.08741 293.15903 C -100.56875 305.2552 -104.2337 318.89388 -114.19812 327.10263 C -114.54286 327.38736 -114.6214 327.87126 -114.4053 328.24555 C -114.38129 328.28714 -114.35131 328.33033 -114.31974 328.36755 C -114.00344 328.7495 -113.43679 328.80548 -113.05482 328.48917 C -102.49686 319.79747 -98.61748 305.3429 -103.40415 292.5304 C -103.57897 292.0617 -104.0955 291.8306 -104.56041 292.00325 C -105.02533 292.1759 -105.26018 292.6946 -105.08754 293.1595 Z" fill="#ea400c"/>
          </g>
          <g id="Graphic_379">
            <path d="M -151.74648 319.25626 C -152.06359 319.5452 -152.12758 320.01062 -151.9202 320.3698 C -151.88747 320.4265 -151.84935 320.47507 -151.80308 320.529 C -145.31264 327.6147 -135.19449 330.32307 -126.03138 327.42143 C -125.55716 327.27366 -125.30003 326.7673 -125.4478 326.29307 C -125.59718 325.8248 -126.10194 325.56172 -126.57616 325.7095 C -135.07538 328.39845 -144.458 325.89117 -150.48076 319.31737 C -150.81 318.94792 -151.3749 318.9212 -151.74595 319.2564 Z" fill="#ea400c"/>
          </g>
          <g id="Graphic_378">
            <path d="M -155.46877 310.68787 C -158.17844 302.1704 -155.66623 292.76998 -149.06687 286.73763 C -148.70178 286.40082 -148.67505 285.83592 -149.00808 285.46866 C -149.34488 285.10357 -149.90978 285.07685 -150.28083 285.41205 C -157.39304 291.9178 -160.10223 302.05153 -157.17692 311.23104 C -157.1593 311.2965 -157.13034 311.35538 -157.09978 311.4083 C -156.8946 311.7637 -156.45735 311.94477 -156.04856 311.81462 C -155.5803 311.66525 -155.3194 311.1567 -155.46877 310.68846 Z" fill="#ea400c"/>
          </g>
          <g id="Graphic_377">
            <path d="M -117.93728 320.7223 C -118.25439 321.01126 -118.31838 321.4767 -118.11101 321.83585 C -118.07827 321.89256 -118.04015 321.94113 -117.99606 321.9913 C -117.65926 322.3564 -117.09436 322.3831 -116.72709 322.0501 C -109.6295 315.56283 -106.91367 305.45044 -109.80638 296.2827 C -109.95415 295.80847 -110.45673 295.54916 -110.93096 295.69694 C -111.40518 295.8447 -111.66827 296.34947 -111.51671 296.82152 C -108.83531 305.3251 -111.3546 314.70433 -117.93714 320.7218 Z" fill="#ea400c"/>
          </g>
          <g id="Graphic_376">
            <path d="M -115.22202 288.2386 C -114.85476 287.90557 -114.83021 287.3369 -115.16324 286.96963 C -121.65607 279.84493 -131.78999 277.1267 -140.97795 280.03623 C -141.45 280.1878 -141.71308 280.69255 -141.56153 281.1646 C -141.54013 281.22785 -141.51495 281.28892 -141.48439 281.34186 C -141.27702 281.70102 -140.84196 281.87832 -140.43317 281.74817 C -131.90912 279.04992 -122.50825 281.57182 -116.48682 288.17685 C -116.15758 288.5463 -115.58672 288.57463 -115.22164 288.23782 Z" fill="#ea400c"/>
          </g>
        </g>
        <g id="Graphic_395">
          <circle cx="-267.61087" cy="290.88913" r="15.3891568841704" fill="#00a4f1"/>
        </g>
      </g>
    </g>
  </g>
</svg>
