<?xml version="1.0" encoding="UTF-8" standalone="no"?>
<!DOCTYPE svg PUBLIC "-//W3C//DTD SVG 1.1//EN" "http://www.w3.org/Graphics/SVG/1.1/DTD/svg11.dtd">
<svg xmlns:xl="http://www.w3.org/1999/xlink" xmlns="http://www.w3.org/2000/svg" version="1.1" xmlns:dc="http://purl.org/dc/elements/1.1/" viewBox="112.5 9 210.04438 150" width="210.04438" height="150">
  <defs/>
  <g id="Canvas_1" stroke="none" fill="none" stroke-opacity="1" stroke-dasharray="none" fill-opacity="1">
    <title>Canvas 1</title>
    <g id="Canvas_1_Layer_1">
      <title>Layer 1</title>
      <g id="Group_4">
        <g id="Graphic_7">
          <title>Bézier</title>
          <path d="M 300.6927 24.003248 C 302.5207 29.168468 307.79844 32.271487 313.19812 31.34346 C 318.5978 30.415387 322.5444 25.728268 322.5444 20.253466 C 322.5444 14.778664 318.5978 10.091497 313.19812 9.163471 C 307.79844 8.235397 302.52067 11.338344 300.6927 16.503684 L 270.02007 16.503684 C 269.2045 16.503684 268.41704 16.76618 267.7702 17.25364 L 252.77108 28.502986 C 252.77108 28.502986 252.77108 28.690475 252.50858 28.765483 C 241.84984 20.291096 228.48118 15.978786 214.88837 16.60683 C 201.28596 17.24428 188.3867 22.79391 178.56168 32.215282 L 163.9374 17.591013 C 163.23432 16.887926 162.26876 16.494204 161.275 16.503588 L 138.10147 16.503588 C 136.27345 11.338368 130.99572 8.235349 125.59604 9.163375 C 120.19635 10.091449 116.24978 14.778568 116.24978 20.25337 C 116.24978 25.728172 120.19635 30.41534 125.59604 31.343365 C 130.99572 32.27144 136.2735 29.16849 138.10147 24.003152 L 159.73765 24.003152 L 173.49941 37.80235 C 163.9374 49.745495 159.70022 65.09116 161.8001 80.25108 L 141.85125 80.25108 C 140.02323 75.08586 134.7455 71.98284 129.34582 72.91087 C 123.94613 73.83894 119.99956 78.52606 119.99956 84.00086 C 119.99956 89.47567 123.94613 94.16283 129.34582 95.09086 C 134.7455 96.01893 140.02328 92.91599 141.85125 87.75065 L 163.37512 87.75065 C 166.62813 99.45933 173.59325 109.79936 183.2114 117.22333 L 163.15002 143.99618 L 134.35169 143.99618 C 132.52367 138.83096 127.24594 135.72794 121.84626 136.65596 C 116.44657 137.58404 112.5 142.27116 112.5 147.74596 C 112.5 153.22076 116.44657 157.90793 121.84626 158.83595 C 127.24594 159.76403 132.52372 156.66108 134.35169 151.49574 L 165.0243 151.49574 C 166.2055 151.49574 167.31166 150.94264 168.02413 149.99583 L 187.523 124.01014 L 187.523 145.87143 C 187.523 153.1178 193.40074 158.99578 200.64736 158.99578 C 207.89397 158.99578 213.7717 153.11805 213.7717 145.87143 L 213.7717 128.99753 L 217.5215 128.99753 L 217.5215 142.12189 C 217.54962 150.40884 223.58666 157.44907 231.77067 158.73348 C 232.63313 158.9116 233.5143 159.00534 234.39563 158.99598 C 235.2112 159.00535 236.0268 158.93035 236.83293 158.77099 C 245.0918 157.53357 251.21338 150.46531 251.26953 142.12196 L 251.26953 127.7228 L 270.95583 150.22149 C 271.6683 151.0277 272.6901 151.49641 273.76822 151.49641 L 293.1922 151.49641 C 295.02024 156.66163 300.29796 159.76465 305.69765 158.83663 C 311.09733 157.90855 315.0439 153.22143 315.0439 147.74663 C 315.0439 142.27183 311.09733 137.58466 305.69765 136.65663 C 300.29796 135.72856 295.0202 138.83151 293.1922 143.99685 L 275.4558 143.99685 L 251.9446 117.11121 C 261.5347 109.7242 268.47173 99.4216 271.70602 87.75132 L 293.1922 87.75132 C 295.02024 92.91654 300.29796 96.01956 305.69765 95.09153 C 311.09733 94.16346 315.0439 89.47634 315.0439 84.00154 C 315.0439 78.52673 311.09733 73.83957 305.69765 72.91154 C 300.29796 71.98347 295.0202 75.08641 293.1922 80.25175 L 273.24338 80.25175 C 273.59023 77.76742 273.76834 75.2646 273.76834 72.75219 C 273.7871 58.24983 268.1625 44.301844 258.09438 33.86725 L 271.25617 24.005264 Z M 311.26696 16.503684 C 312.7856 16.503684 314.15423 17.413015 314.73548 18.819165 C 315.3073 20.215956 314.9886 21.82835 313.9199 22.906368 C 312.84184 23.97505 311.22942 24.293775 309.8327 23.721936 C 308.42653 23.140714 307.51722 21.77205 307.51722 20.253418 C 307.51722 18.181666 309.19525 16.503636 311.267 16.503636 Z M 127.52884 24.003248 C 126.01018 24.003248 124.64157 23.093917 124.06032 21.687766 C 123.48848 20.290976 123.8072 18.678581 124.87589 17.600564 C 125.95395 16.531882 127.56637 16.213157 128.96309 16.784996 C 130.36927 17.366218 131.27857 18.734882 131.27857 20.253514 C 131.27857 21.2472 130.88485 22.2034 130.18176 22.90656 C 129.47868 23.60972 128.52248 24.003368 127.52872 24.003368 Z M 131.27862 87.74834 C 129.75996 87.74834 128.39135 86.83901 127.8101 85.43286 C 127.23826 84.03607 127.55699 82.42368 128.62567 81.34566 C 129.70374 80.27698 131.31615 79.95825 132.71287 80.53009 C 134.11905 81.11131 135.02835 82.47998 135.02835 83.99861 C 135.02835 84.99229 134.63463 85.94849 133.93155 86.65165 C 133.22846 87.35481 132.27226 87.74846 131.2785 87.74846 Z M 123.77906 151.49344 C 122.2604 151.49344 120.89178 150.5841 120.31054 149.17795 C 119.7387 147.78116 120.05742 146.16877 121.1261 145.09075 C 122.20417 144.02207 123.81659 143.70335 125.21331 144.27518 C 126.61948 144.8564 127.52879 146.22507 127.52879 147.7437 C 127.52879 148.73739 127.13507 149.69359 126.43198 150.39675 C 125.7289 151.0999 124.7727 151.49356 123.77894 151.49356 Z M 303.7686 143.99387 C 305.28725 143.99387 306.65586 144.9032 307.2371 146.30935 C 307.80895 147.70614 307.49022 149.31854 306.42154 150.39656 C 305.34348 151.46524 303.73106 151.78396 302.33434 151.21212 C 300.92817 150.6309 300.01886 149.26224 300.01886 147.7436 C 300.01886 145.67185 301.6969 143.99382 303.76864 143.99382 Z M 303.7686 80.24878 C 305.28725 80.24878 306.65586 81.15811 307.2371 82.56426 C 307.80895 83.96105 307.49022 85.57344 306.42154 86.65146 C 305.34348 87.72014 303.73106 88.03887 302.33434 87.46703 C 300.92817 86.88581 300.01886 85.51714 300.01886 83.99851 C 300.01886 81.92676 301.6969 80.24873 303.76864 80.24873 Z M 245.91036 83.2486 C 236.64833 89.47336 224.0961 87.03582 217.8248 77.81148 C 217.14983 76.80841 216.89671 75.58974 217.11232 74.39912 C 217.34668 73.19919 218.04975 72.14925 219.0622 71.47417 L 245.0479 54.000304 C 247.09152 52.65038 249.8289 53.147226 251.27265 55.12524 C 257.53485 64.3779 255.135 76.94909 245.9104 83.2492 Z M 205.5999 80.24878 C 203.33129 83.52987 199.82536 85.75166 195.8879 86.39842 C 195.03483 86.54841 194.17239 86.62341 193.30061 86.62341 C 190.23527 86.66091 187.23545 85.7422 184.71367 83.99844 C 181.44194 81.72983 179.2108 78.25197 178.50787 74.33348 C 177.80479 70.41499 178.68599 66.374585 180.9639 63.112214 C 182.14508 61.41544 184.4792 60.99359 186.17615 62.17478 L 204.58764 75.11147 C 205.39385 75.67395 205.94694 76.53639 206.12504 77.51133 C 206.31253 78.45815 206.11566 79.43309 205.60007 80.24861 Z" fill="#00a4f1"/>
        </g>
        <g id="Graphic_6">
          <path d="M 189.02478 77.85132 C 190.6372 79.01376 192.66201 79.46374 194.6119 79.08873 C 195.25873 78.97624 195.88682 78.78875 196.4868 78.52625 L 185.8374 71.02669 C 185.59368 73.70781 186.81235 76.31382 189.02466 77.85141 Z" fill="#ea400c"/>
        </g>
        <g id="Graphic_5">
          <path d="M 228.77367 75.93863 C 232.50474 78.21662 237.21062 78.12289 240.84785 75.71364 C 244.51316 73.22931 246.3788 68.8234 245.61013 64.464296 Z" fill="#ea400c"/>
        </g>
      </g>
    </g>
  </g>
</svg>
