<svg width="350" height="70" viewBox="0 0 350 70" fill="none" xmlns="http://www.w3.org/2000/svg">
<path d="M264 46.45C263.45 46.45 263.31 46.14 263.68 45.74L269.52 39.23C269.89 38.82 270.47 38.14 270.83 37.72L281.33 25.16C281.714 24.6466 281.937 24.0305 281.97 23.39V17.05C281.97 16.7848 281.865 16.5304 281.677 16.3429C281.49 16.1554 281.235 16.05 280.97 16.05H250.61C250.345 16.05 250.09 16.1554 249.903 16.3429C249.715 16.5304 249.61 16.7848 249.61 17.05V24.72C249.61 24.9852 249.715 25.2396 249.903 25.4271C250.09 25.6146 250.345 25.72 250.61 25.72H257.61L266.46 25.61C267.01 25.61 267.16 25.92 266.78 26.32L260.94 32.83C260.58 33.24 259.99 33.92 259.63 34.35L249.11 46.9C248.726 47.4134 248.503 48.0296 248.47 48.67V55C248.47 55.2652 248.575 55.5196 248.763 55.7071C248.95 55.8946 249.205 56 249.47 56H281.05C281.315 56 281.57 55.8946 281.757 55.7071C281.945 55.5196 282.05 55.2652 282.05 55V47.34C282.05 47.0748 281.945 46.8204 281.757 46.6329C281.57 46.4454 281.315 46.34 281.05 46.34H272.81L264 46.45Z" fill="#121212"/>
<path d="M300.67 16.05H290.53C289.978 16.05 289.53 16.4977 289.53 17.05V55.02C289.53 55.5723 289.978 56.02 290.53 56.02H300.67C301.222 56.02 301.67 55.5723 301.67 55.02V17.05C301.67 16.4977 301.222 16.05 300.67 16.05Z" fill="#121212"/>
<path d="M233.11 56C232.804 55.984 232.506 55.9036 232.233 55.764C231.961 55.6244 231.721 55.4288 231.53 55.19L216.89 34.3C216.6 33.84 216.37 33.91 216.4 34.46L216.7 55C216.7 55.2652 216.595 55.5196 216.407 55.7071C216.22 55.8946 215.965 56 215.7 56H207.08C206.815 56 206.56 55.8946 206.373 55.7071C206.185 55.5196 206.08 55.2652 206.08 55V17C206.08 16.7348 206.185 16.4804 206.373 16.2929C206.56 16.1054 206.815 16 207.08 16H214.84C215.147 16.0174 215.447 16.0974 215.723 16.235C215.998 16.3725 216.242 16.5648 216.44 16.8L230.32 36.39C230.62 36.86 230.83 36.79 230.81 36.24L230.51 17C230.51 16.7348 230.615 16.4804 230.803 16.2929C230.99 16.1054 231.245 16 231.51 16H240.13C240.395 16 240.65 16.1054 240.837 16.2929C241.025 16.4804 241.13 16.7348 241.13 17V55C241.13 55.2652 241.025 55.5196 240.837 55.7071C240.65 55.8946 240.395 56 240.13 56H233.11Z" fill="#121212"/>
<path d="M161.64 16.05H125.37C125.105 16.05 124.85 16.1554 124.663 16.3429C124.475 16.5304 124.37 16.7848 124.37 17.05V25.34C124.37 25.6052 124.475 25.8596 124.663 26.0471C124.85 26.2346 125.105 26.34 125.37 26.34H136.43C136.695 26.34 136.95 26.4454 137.137 26.6329C137.325 26.8204 137.43 27.0748 137.43 27.34V55C137.43 55.2652 137.535 55.5196 137.723 55.7071C137.91 55.8946 138.165 56 138.43 56H148.57C148.835 56 149.09 55.8946 149.277 55.7071C149.465 55.5196 149.57 55.2652 149.57 55V27.34C149.57 27.0748 149.675 26.8204 149.863 26.6329C150.05 26.4454 150.305 26.34 150.57 26.34H161.64C161.905 26.34 162.16 26.2346 162.347 26.0471C162.535 25.8596 162.64 25.6052 162.64 25.34V17.05C162.64 16.7848 162.535 16.5304 162.347 16.3429C162.16 16.1554 161.905 16.05 161.64 16.05Z" fill="#121212"/>
<path d="M343 55.13L337 43.6L335.76 41.23C335.67 41.07 335.61 40.95 335.58 40.88C335.567 40.8572 335.56 40.8313 335.56 40.805C335.56 40.7787 335.567 40.7528 335.58 40.73C335.58 40.73 335.73 40.55 335.9 40.38C335.9 40.38 336.8 39.44 337.9 38.03C339.91 35.604 341.007 32.5505 341 29.4C341.022 26.2031 339.887 23.1062 337.805 20.6803C335.722 18.2544 332.833 16.6632 329.67 16.2C329.23 16.15 328.79 16.12 328.33 16.09H328.23C327.7 16.09 327.16 16.09 326.61 16.09H310.18C309.915 16.09 309.66 16.1954 309.473 16.3829C309.285 16.5704 309.18 16.8248 309.18 17.09V55C309.18 55.2652 309.285 55.5196 309.473 55.7071C309.66 55.8946 309.915 56 310.18 56H319.08C319.345 56 319.6 55.8946 319.787 55.7071C319.975 55.5196 320.08 55.2652 320.08 55V43C320.083 42.8682 320.136 42.7425 320.229 42.6493C320.322 42.5561 320.448 42.5026 320.58 42.5H324C324.148 42.51 324.291 42.5563 324.416 42.6348C324.542 42.7133 324.646 42.8215 324.72 42.95L326.49 46.64L330.56 55.06C330.703 55.3205 330.911 55.54 331.163 55.6976C331.415 55.8551 331.703 55.9455 332 55.96H342.39C342.498 55.9904 342.612 55.9872 342.718 55.9509C342.824 55.9145 342.916 55.8466 342.983 55.7564C343.049 55.6662 343.086 55.5579 343.089 55.4459C343.092 55.334 343.061 55.2238 343 55.13ZM326 33.8H320.16C320.057 33.7975 319.96 33.7556 319.887 33.683C319.814 33.6104 319.773 33.5126 319.77 33.41V25.56C319.773 25.4574 319.814 25.3596 319.887 25.287C319.96 25.2144 320.057 25.1725 320.16 25.17H326.16C329.5 25.17 330.81 26.92 330.81 29.4C330.84 32.22 329.47 33.8 326 33.8Z" fill="#121212"/>
<path d="M198.42 46.06H179.83C179.724 46.06 179.622 46.0179 179.547 45.9428C179.472 45.8678 179.43 45.7661 179.43 45.66V40.6C179.433 40.4947 179.476 40.3944 179.55 40.32C179.624 40.2455 179.725 40.2025 179.83 40.2H190.21C190.475 40.2 190.73 40.0946 190.917 39.9071C191.105 39.7196 191.21 39.4652 191.21 39.2V31.35C191.21 31.0848 191.105 30.8304 190.917 30.6429C190.73 30.4554 190.475 30.35 190.21 30.35H179.83C179.724 30.35 179.622 30.3079 179.547 30.2328C179.472 30.1578 179.43 30.0561 179.43 29.95V26.4C179.433 26.2957 179.476 26.1965 179.551 26.1236C179.625 26.0507 179.726 26.01 179.83 26.01H198C198.265 26.01 198.52 25.9046 198.707 25.7171C198.895 25.5296 199 25.2752 199 25.01V17.05C199 16.7848 198.895 16.5304 198.707 16.3429C198.52 16.1554 198.265 16.05 198 16.05H168.61C168.345 16.05 168.09 16.1554 167.903 16.3429C167.715 16.5304 167.61 16.7848 167.61 17.05V55C167.61 55.2652 167.715 55.5196 167.903 55.7071C168.09 55.8946 168.345 56 168.61 56H198.42C198.685 56 198.94 55.8946 199.127 55.7071C199.315 55.5196 199.42 55.2652 199.42 55V47.06C199.42 46.9287 199.394 46.7986 199.344 46.6773C199.294 46.556 199.22 46.4458 199.127 46.3529C199.034 46.26 198.924 46.1864 198.803 46.1361C198.681 46.0859 198.551 46.06 198.42 46.06Z" fill="#121212"/>
<path d="M32 44.45L45.31 13C45.3669 12.8758 45.3978 12.7413 45.4007 12.6048C45.4036 12.4682 45.3786 12.3325 45.327 12.206C45.2755 12.0795 45.1986 11.9649 45.1011 11.8693C45.0036 11.7737 44.8875 11.699 44.76 11.65C44.6328 11.5986 44.4972 11.5715 44.36 11.57H11.82C11.608 11.5551 11.3968 11.6082 11.217 11.7215C11.0372 11.8347 10.8981 12.0024 10.82 12.2L5.65 24.66C5.59496 24.7843 5.56584 24.9185 5.56442 25.0544C5.56299 25.1903 5.58928 25.3251 5.64169 25.4505C5.6941 25.5759 5.77153 25.6893 5.86924 25.7838C5.96695 25.8783 6.0829 25.9518 6.21 26C6.33332 26.0525 6.46595 26.0797 6.6 26.08H22.36C22.6252 26.08 22.8796 26.1854 23.0671 26.3729C23.2546 26.5604 23.36 26.8148 23.36 27.08C23.3585 27.2172 23.3314 27.3528 23.28 27.48L10.14 59.1C10.0833 59.2248 10.0529 59.3599 10.0507 59.4969C10.0484 59.634 10.0743 59.77 10.1268 59.8966C10.1794 60.0232 10.2573 60.1377 10.3559 60.2328C10.4545 60.328 10.5716 60.402 10.7 60.45C10.8233 60.5025 10.9559 60.5297 11.09 60.53H45.58C45.7932 60.5441 46.0053 60.4896 46.1853 60.3745C46.3652 60.2593 46.5036 60.0895 46.58 59.89L51.8 47.31C51.849 47.1842 51.8721 47.0497 51.8678 46.9148C51.8634 46.7798 51.8318 46.6471 51.7748 46.5247C51.7178 46.4023 51.6366 46.2927 51.5361 46.2025C51.4356 46.1123 51.3179 46.0434 51.19 46C51.0667 45.9475 50.934 45.9203 50.8 45.92H32.94C32.6748 45.92 32.4204 45.8146 32.2329 45.6271C32.0454 45.4396 31.94 45.1852 31.94 44.92C31.9256 44.7608 31.9461 44.6005 32 44.45Z" fill="#121212"/>
<path d="M39.71 41.61H53.42C53.6237 41.6143 53.8238 41.5562 53.9936 41.4436C54.1633 41.331 54.2947 41.1693 54.37 40.98L60.37 26.72C60.4453 26.5307 60.5767 26.369 60.7464 26.2564C60.9162 26.1438 61.1163 26.0858 61.32 26.09H79C79.212 26.1049 79.4232 26.0518 79.603 25.9385C79.7828 25.8253 79.9219 25.6576 80 25.46L85.12 13C85.1767 12.8752 85.2071 12.7401 85.2093 12.6031C85.2116 12.466 85.1857 12.33 85.1332 12.2034C85.0806 12.0768 85.0027 11.9624 84.9041 11.8672C84.8055 11.772 84.6884 11.698 84.56 11.65C84.4367 11.5975 84.304 11.5703 84.17 11.57H51.36C51.148 11.5551 50.9368 11.6082 50.757 11.7215C50.5772 11.8347 50.4381 12.0024 50.36 12.2L38.71 40.2C38.6531 40.3242 38.6222 40.4587 38.6193 40.5952C38.6163 40.7318 38.6414 40.8675 38.693 40.994C38.7445 41.1205 38.8214 41.2351 38.9189 41.3307C39.0164 41.4263 39.1325 41.501 39.26 41.55C39.4042 41.6011 39.5575 41.6215 39.71 41.61Z" fill="#121212"/>
<path d="M103.59 64.1C103.441 64.0974 103.298 64.0362 103.193 63.9296C103.089 63.823 103.03 63.6795 103.03 63.53V8.53001C103.019 8.4495 103.026 8.36764 103.049 8.28989C103.073 8.21214 103.113 8.14031 103.166 8.0792C103.22 8.0181 103.286 7.96913 103.36 7.93558C103.434 7.90203 103.514 7.88467 103.595 7.88467C103.676 7.88467 103.756 7.90203 103.83 7.93558C103.904 7.96913 103.97 8.0181 104.024 8.0792C104.077 8.14031 104.117 8.21214 104.141 8.28989C104.164 8.36764 104.171 8.4495 104.16 8.53001V63.53C104.16 63.6812 104.1 63.8262 103.993 63.9331C103.886 64.04 103.741 64.1 103.59 64.1Z" fill="#121212"/>
</svg>
