<svg id="Layer_4" data-name="Layer 4" xmlns="http://www.w3.org/2000/svg" viewBox="0 0 260 70"><defs><style>.cls-1{fill:#0f0f0f;}.cls-2{fill:#00ede1;}.cls-3{fill:#00a4f1;}</style></defs><path class="cls-1" d="M82,64.05a.58.58,0,0,1-.57-.57v-55a.57.57,0,1,1,1.14,0v55A.58.58,0,0,1,82,64.05Z"/><path class="cls-1" d="M178,55.12,164.18,17a1.55,1.55,0,0,0-1.34-.94h-9.19a1.56,1.56,0,0,0-1.35.94L138.48,55.12a.66.66,0,0,0,.66.94H149a1.44,1.44,0,0,0,1.29-1L151.89,50a1.46,1.46,0,0,1,1.3-1h10a1.44,1.44,0,0,1,1.29,1l1.58,5.12a1.46,1.46,0,0,0,1.3,1h10A.66.66,0,0,0,178,55.12ZM161,40.27h-5.63a.35.35,0,0,1-.36-.48l.47-1.66c.07-.27.2-.7.27-1l2.32-9c.06-.27.17-.27.23,0l2.32,9c.07.26.19.69.27,1l.47,1.66A.36.36,0,0,1,161,40.27Z"/><path class="cls-1" d="M253.39,16.09H221.13a1,1,0,0,0-1,1v8.3a1,1,0,0,0,1,1h9.06a1,1,0,0,1,1,1V55.06a1,1,0,0,0,1,1h10.14a1,1,0,0,0,1-1V27.39a1,1,0,0,1,1-1h9.06a1,1,0,0,0,1-1v-8.3A1,1,0,0,0,253.39,16.09Z"/><path class="cls-1" d="M213.94,35.56c-2.69-2.68-6.63-3.66-9.32-4.23l-3.89-.86c-3-.63-4.8-.91-5.77-1.88a2.49,2.49,0,0,1-.81-1.95,2.89,2.89,0,0,1,1.38-2.34,7.61,7.61,0,0,1,3.43-.69c2.17,0,3.31.63,3.89,1.26a3,3,0,0,1,.54.94v0a.73.73,0,0,0,.76.56h10.36c.43,0,.67-.15.69-.53h0a5.23,5.23,0,0,0-.15-1,10.51,10.51,0,0,0-.55-2h0a10.56,10.56,0,0,0-3.08-4.29c-3.66-3.14-9.37-3.43-12.46-3.43-3.6,0-8.46.4-12.29,3.37A11.82,11.82,0,0,0,182,28.19a9.42,9.42,0,0,0,3.08,7.55c1.43,1.31,4.24,3.08,9.9,4.23l4,.8a16,16,0,0,1,4.69,1.6,3.17,3.17,0,0,1,1.48,2.86,3.26,3.26,0,0,1-1.48,2.85,6,6,0,0,1-3.55.86c-1.2,0-3.43,0-4.86-1.6a5.73,5.73,0,0,1-1.32-3.16v-.1a.38.38,0,0,0,0-.1.67.67,0,0,0-.71-.64H182c-.56,0-.79.3-.65,1l.13.69a14.84,14.84,0,0,0,3.63,7.92c3.95,4.12,10.06,4.52,14,4.52,3.66,0,10.12-.34,14.12-4.4A14.73,14.73,0,0,0,217,43.34,10.75,10.75,0,0,0,213.94,35.56Z"/><path class="cls-1" d="M141.3,16.09h-10a1.45,1.45,0,0,0-1.3,1l-.39,1.25h0l-6.81,23.51-.56,2.2c-.07.27-.17.27-.23,0l-.29-1.11-7-24.42-.44-1.43a1.43,1.43,0,0,0-1.29-1H103.1a.66.66,0,0,0-.66.94l13.82,38.09a1.53,1.53,0,0,0,1.34.94h9.19a1.54,1.54,0,0,0,1.35-.94L142,17A.66.66,0,0,0,141.3,16.09Z"/><path class="cls-2" d="M60.3,11.48h-32a1,1,0,0,0-.39.08,1,1,0,0,0-.55,1.34l5.2,12.47a1,1,0,0,0,.94.63h4.86a1.1,1.1,0,0,1,1.11,1.48l-2.69,6.44a2.5,2.5,0,0,0,0,1.75l6.46,15.52c.22.57.57,1,1.13,1a1.08,1.08,0,0,0,1-.73l16-38.34A1.09,1.09,0,0,0,60.3,11.48Z"/><path class="cls-3" d="M41.6,58.86,24.28,17.29h0l-2.16-5.2a1,1,0,0,0-.91-.61H7.71A1.09,1.09,0,0,0,6.62,13.1l18.76,45,.72,1.74a1,1,0,0,0,.9.61H40.52A1.09,1.09,0,0,0,41.6,58.86Z"/></svg>