<svg xmlns="http://www.w3.org/2000/svg" viewBox="0 0 260 70"><defs><style>.cls-1{fill:#fff;}.cls-2{fill:#00ede1;}.cls-3{fill:#00a4f1;}</style></defs><g id="Ebene_1" data-name="Ebene 1"><path class="cls-1" d="M81.63,63.36a.56.56,0,0,1-.57-.56V7.8a.57.57,0,1,1,1.13,0v55A.56.56,0,0,1,81.63,63.36Z"/><path class="cls-1" d="M177.63,54.44,163.81,16.35a1.52,1.52,0,0,0-1.34-.94h-9.19a1.53,1.53,0,0,0-1.34.94L138.12,54.44a.66.66,0,0,0,.66.94h9.87a1.45,1.45,0,0,0,1.3-1l1.58-5.11a1.44,1.44,0,0,1,1.29-1h10a1.45,1.45,0,0,1,1.29,1l1.58,5.11a1.44,1.44,0,0,0,1.3,1h10A.65.65,0,0,0,177.63,54.44Zm-17-14.85H155a.36.36,0,0,1-.37-.48l.47-1.66.28-1,2.32-9c.06-.27.16-.27.22,0l2.32,9c.08.27.2.7.27,1l.48,1.66A.36.36,0,0,1,160.63,39.59Z"/><path class="cls-1" d="M253,15.41H220.76a1,1,0,0,0-1,1V24.7a1,1,0,0,0,1,1h9.06a1,1,0,0,1,1,1V54.38a1,1,0,0,0,1,1H242a1,1,0,0,0,1-1V26.7a1,1,0,0,1,1-1H253a1,1,0,0,0,1-1V16.41A1,1,0,0,0,253,15.41Z"/><path class="cls-1" d="M213.57,34.88c-2.68-2.69-6.63-3.66-9.32-4.23l-3.88-.86c-3-.63-4.81-.91-5.78-1.89a2.5,2.5,0,0,1-.8-1.94,2.89,2.89,0,0,1,1.37-2.34,7.61,7.61,0,0,1,3.43-.69c2.18,0,3.32.63,3.89,1.26a2.82,2.82,0,0,1,.54.94v0a.75.75,0,0,0,.77.56h10.36c.42,0,.66-.15.69-.53h0a5.82,5.82,0,0,0-.16-1,9.42,9.42,0,0,0-.54-2h0a10.59,10.59,0,0,0-3.08-4.29c-3.66-3.15-9.38-3.43-12.47-3.43-3.6,0-8.46.4-12.29,3.37a11.82,11.82,0,0,0-4.69,9.66,9.39,9.39,0,0,0,3.09,7.55c1.43,1.32,4.23,3.09,9.89,4.23l4,.8a16.35,16.35,0,0,1,4.69,1.6,3.17,3.17,0,0,1,1.49,2.86,3.26,3.26,0,0,1-1.49,2.86,6,6,0,0,1-3.54.86c-1.2,0-3.43-.06-4.86-1.6a5.81,5.81,0,0,1-1.33-3.16v-.11s0-.06,0-.09a.68.68,0,0,0-.72-.65H181.64c-.55,0-.79.3-.65,1l.13.7a14.78,14.78,0,0,0,3.64,7.92c3.94,4.12,10.06,4.52,14,4.52,3.66,0,10.12-.34,14.12-4.4a14.82,14.82,0,0,0,3.77-9.72A10.71,10.71,0,0,0,213.57,34.88Z"/><path class="cls-1" d="M140.93,15.41h-10a1.43,1.43,0,0,0-1.29,1l-.39,1.25h0l-6.8,23.51-.57,2.2c-.06.27-.16.27-.23,0l-.28-1.11-7-24.42-.44-1.43a1.45,1.45,0,0,0-1.3-1h-9.87a.66.66,0,0,0-.66.94L115.9,54.44a1.53,1.53,0,0,0,1.34.94h9.19a1.53,1.53,0,0,0,1.34-.94l13.82-38.09A.66.66,0,0,0,140.93,15.41Z"/><path class="cls-2" d="M59.93,10.8H28a.92.92,0,0,0-.4.08A1,1,0,0,0,27,12.22l5.2,12.46a1,1,0,0,0,.95.63H38a1.1,1.1,0,0,1,1.1,1.48l-2.68,6.44a2.44,2.44,0,0,0,0,1.75L42.93,50.5c.21.58.56,1,1.12,1a1.1,1.1,0,0,0,1-.72L61,12.42A1.08,1.08,0,0,0,59.93,10.8Z"/><path class="cls-3" d="M41.23,58.18,23.92,16.61h0L21.77,11.4a1,1,0,0,0-.91-.6H7.34a1.09,1.09,0,0,0-1.08,1.62L25,57.44l.72,1.74a1,1,0,0,0,.91.61H40.15A1.09,1.09,0,0,0,41.23,58.18Z"/></g></svg>