 <svg xmlns="http://www.w3.org/2000/svg" width="515" height="113">
         <defs>
            <style type="text/css">
    @namespace "http://www.w3.org/2000/svg";
    .line                 {fill: none; stroke: #000000; stroke-width: 2;}
    .bold-line            {stroke: #141000; shape-rendering: crispEdges; stroke-width: 4;}
    .thin-line            {stroke: #1F1800; shape-rendering: crispEdges}
    .filled               {fill: #332900; stroke: none;}
    text.terminal         {font-family: Verdana, Sans-serif;
                            font-size: 12px;
                            fill: #141000;
                            font-weight: bold;
                          }
    text.nonterminal      {font-family: Verdana, Sans-serif;
                            font-size: 12px;
                            fill: #1A1400;
                            font-weight: normal;
                          }
    text.regexp           {font-family: Verdana, Sans-serif;
                            font-size: 12px;
                            fill: #1F1800;
                            font-weight: normal;
                          }
    rect, circle, polygon {fill: #000000; stroke: #332900;}
    rect.terminal         {fill: #00A4F1; stroke: #332900; stroke-width: 1;}
    rect.nonterminal      {fill: #00EDE1; stroke: #332900; stroke-width: 1;}
    rect.text             {fill: none; stroke: none;}
    polygon.regexp        {fill: #FFF4C7; stroke: #332900; stroke-width: 1;}
  </style>
         </defs>
         <polygon points="9 17 1 13 1 21"/>
         <polygon points="17 17 9 13 9 21"/>
            <rect x="51" y="3" width="102" height="32"/>
            <rect x="49" y="1" width="102" height="32" class="nonterminal"/>
            <text class="nonterminal" x="59" y="21">Attribute-key</text><rect x="51" y="47" width="28" height="32" rx="10"/>
         <rect x="49" y="45" width="28" height="32" class="terminal" rx="10"/>
         <text class="terminal" x="59" y="65">{</text>
            <rect x="99" y="47" width="102" height="32"/>
            <rect x="97" y="45" width="102" height="32" class="nonterminal"/>
            <text class="nonterminal" x="107" y="65">Attribute-key</text><rect x="221" y="47" width="24" height="32" rx="10"/>
         <rect x="219" y="45" width="24" height="32" class="terminal" rx="10"/>
         <text class="terminal" x="229" y="65">:</text>
            <rect x="285" y="79" width="114" height="32"/>
            <rect x="283" y="77" width="114" height="32" class="nonterminal"/>
            <text class="nonterminal" x="293" y="97">Attribute-value</text><rect x="439" y="47" width="28" height="32" rx="10"/>
         <rect x="437" y="45" width="28" height="32" class="terminal" rx="10"/>
         <text class="terminal" x="447" y="65">}</text>
         <svg:path xmlns:svg="http://www.w3.org/2000/svg" class="line" d="m17 17 h2 m20 0 h10 m102 0 h10 m0 0 h314 m-456 0 h20 m436 0 h20 m-476 0 q10 0 10 10 m456 0 q0 -10 10 -10 m-466 10 v24 m456 0 v-24 m-456 24 q0 10 10 10 m436 0 q10 0 10 -10 m-446 10 h10 m28 0 h10 m0 0 h10 m102 0 h10 m0 0 h10 m24 0 h10 m20 0 h10 m0 0 h124 m-154 0 h20 m134 0 h20 m-174 0 q10 0 10 10 m154 0 q0 -10 10 -10 m-164 10 v12 m154 0 v-12 m-154 12 q0 10 10 10 m134 0 q10 0 10 -10 m-144 10 h10 m114 0 h10 m20 -32 h10 m28 0 h10 m23 -44 h-3"/>
         <polygon points="505 17 513 13 513 21"/>
         <polygon points="505 17 497 13 497 21"/></svg>
