 <svg xmlns="http://www.w3.org/2000/svg" width="545" height="81">
         <defs>
            <style type="text/css">
    @namespace "http://www.w3.org/2000/svg";
    .line                 {fill: none; stroke: #FFFFFF; stroke-width: 2;}
    .bold-line            {stroke: #FFFFFF; shape-rendering: crispEdges; stroke-width: 4;}
    .thin-line            {stroke: #1F1800; shape-rendering: crispEdges}
    .filled               {fill: #332900; stroke: none;}
    text.terminal         {font-family: Verdana, Sans-serif;
                            font-size: 12px;
                            fill: #141000;
                            font-weight: bold;
                          }
    text.nonterminal      {font-family: Verdana, Sans-serif;
                            font-size: 12px;
                            fill: #1A1400;
                            font-weight: normal;
                          }
    text.regexp           {font-family: Verdana, Sans-serif;
                            font-size: 12px;
                            fill: #1F1800;
                            font-weight: normal;
                          }
    rect, circle, polygon {fill: #FFFFFF; stroke: #332900;}
    rect.terminal         {fill: #00A4F1; stroke: #332900; stroke-width: 1;}
    rect.nonterminal      {fill: #00EDE1; stroke: #332900; stroke-width: 1;}
    rect.text             {fill: none; stroke: none;}
    polygon.regexp        {fill: #FFF4C7; stroke: #332900; stroke-width: 1;}
  </style>
         </defs>
         <polygon points="9 61 1 57 1 65"/>
         <polygon points="17 61 9 57 9 65"/>
            <rect x="31" y="47" width="152" height="32"/>
            <rect x="29" y="45" width="152" height="32" class="nonterminal"/>
            <text class="nonterminal" x="39" y="65">Name-clash-specifier</text><rect x="203" y="47" width="24" height="32" rx="10"/>
         <rect x="201" y="45" width="24" height="32" class="terminal" rx="10"/>
         <text class="terminal" x="211" y="65">:</text>
         <rect x="247" y="47" width="26" height="32" rx="10"/>
         <rect x="245" y="45" width="26" height="32" class="terminal" rx="10"/>
         <text class="terminal" x="255" y="65">[</text>
            <rect x="313" y="47" width="138" height="32"/>
            <rect x="311" y="45" width="138" height="32" class="nonterminal"/>
            <text class="nonterminal" x="321" y="65">Base-record-name</text><rect x="313" y="3" width="24" height="32" rx="10"/>
         <rect x="311" y="1" width="24" height="32" class="terminal" rx="10"/>
         <text class="terminal" x="321" y="21">,</text>
         <rect x="491" y="47" width="26" height="32" rx="10"/>
         <rect x="489" y="45" width="26" height="32" class="terminal" rx="10"/>
         <text class="terminal" x="499" y="65">]</text>
         <svg:path xmlns:svg="http://www.w3.org/2000/svg" class="line" d="m17 61 h2 m0 0 h10 m152 0 h10 m0 0 h10 m24 0 h10 m0 0 h10 m26 0 h10 m20 0 h10 m138 0 h10 m-178 0 l20 0 m-1 0 q-9 0 -9 -10 l0 -24 q0 -10 10 -10 m158 44 l20 0 m-20 0 q10 0 10 -10 l0 -24 q0 -10 -10 -10 m-158 0 h10 m24 0 h10 m0 0 h114 m20 44 h10 m26 0 h10 m3 0 h-3"/>
         <polygon points="535 61 543 57 543 65"/>
         <polygon points="535 61 527 57 527 65"/></svg>
