 <svg xmlns="http://www.w3.org/2000/svg" width="171" height="433">
         <defs>
            <style type="text/css">
    @namespace "http://www.w3.org/2000/svg";
    .line                 {fill: none; stroke: #FFFFFF; stroke-width: 2;}
    .bold-line            {stroke: #FFFFFF; shape-rendering: crispEdges; stroke-width: 4;}
    .thin-line            {stroke: #1F1800; shape-rendering: crispEdges}
    .filled               {fill: #332900; stroke: none;}
    text.terminal         {font-family: Verdana, Sans-serif;
                            font-size: 12px;
                            fill: #141000;
                            font-weight: bold;
                          }
    text.nonterminal      {font-family: Verdana, Sans-serif;
                            font-size: 12px;
                            fill: #1A1400;
                            font-weight: normal;
                          }
    text.regexp           {font-family: Verdana, Sans-serif;
                            font-size: 12px;
                            fill: #1F1800;
                            font-weight: normal;
                          }
    rect, circle, polygon {fill: #FFFFFF; stroke: #332900;}
    rect.terminal         {fill: #00A4F1; stroke: #332900; stroke-width: 1;}
    rect.nonterminal      {fill: #00EDE1; stroke: #332900; stroke-width: 1;}
    rect.text             {fill: none; stroke: none;}
    polygon.regexp        {fill: #FFF4C7; stroke: #332900; stroke-width: 1;}
  </style>
         </defs>
         <polygon points="9 17 1 13 1 21"/>
         <polygon points="17 17 9 13 9 21"/>
            <rect x="51" y="3" width="46" height="32"/>
            <rect x="49" y="1" width="46" height="32" class="nonterminal"/>
            <text class="nonterminal" x="59" y="21">bool</text>
            <rect x="51" y="47" width="64" height="32"/>
            <rect x="49" y="45" width="64" height="32" class="nonterminal"/>
            <text class="nonterminal" x="59" y="65">integer</text>
            <rect x="51" y="91" width="54" height="32"/>
            <rect x="49" y="89" width="54" height="32" class="nonterminal"/>
            <text class="nonterminal" x="59" y="109">count</text>
            <rect x="51" y="135" width="44" height="32"/>
            <rect x="49" y="133" width="44" height="32" class="nonterminal"/>
            <text class="nonterminal" x="59" y="153">real</text>
            <rect x="51" y="179" width="72" height="32"/>
            <rect x="49" y="177" width="72" height="32" class="nonterminal"/>
            <text class="nonterminal" x="59" y="197">duration</text>
            <rect x="51" y="223" width="48" height="32"/>
            <rect x="49" y="221" width="48" height="32" class="nonterminal"/>
            <text class="nonterminal" x="59" y="241">time</text>
            <rect x="51" y="267" width="56" height="32"/>
            <rect x="49" y="265" width="56" height="32" class="nonterminal"/>
            <text class="nonterminal" x="59" y="285">string</text>
            <rect x="51" y="311" width="66" height="32"/>
            <rect x="49" y="309" width="66" height="32" class="nonterminal"/>
            <text class="nonterminal" x="59" y="329">pattern</text>
            <rect x="51" y="355" width="48" height="32"/>
            <rect x="49" y="353" width="48" height="32" class="nonterminal"/>
            <text class="nonterminal" x="59" y="373">addr</text>
            <rect x="51" y="399" width="64" height="32"/>
            <rect x="49" y="397" width="64" height="32" class="nonterminal"/>
            <text class="nonterminal" x="59" y="417">subnet</text><svg:path xmlns:svg="http://www.w3.org/2000/svg" class="line" d="m17 17 h2 m20 0 h10 m46 0 h10 m0 0 h26 m-112 0 h20 m92 0 h20 m-132 0 q10 0 10 10 m112 0 q0 -10 10 -10 m-122 10 v24 m112 0 v-24 m-112 24 q0 10 10 10 m92 0 q10 0 10 -10 m-102 10 h10 m64 0 h10 m0 0 h8 m-102 -10 v20 m112 0 v-20 m-112 20 v24 m112 0 v-24 m-112 24 q0 10 10 10 m92 0 q10 0 10 -10 m-102 10 h10 m54 0 h10 m0 0 h18 m-102 -10 v20 m112 0 v-20 m-112 20 v24 m112 0 v-24 m-112 24 q0 10 10 10 m92 0 q10 0 10 -10 m-102 10 h10 m44 0 h10 m0 0 h28 m-102 -10 v20 m112 0 v-20 m-112 20 v24 m112 0 v-24 m-112 24 q0 10 10 10 m92 0 q10 0 10 -10 m-102 10 h10 m72 0 h10 m-102 -10 v20 m112 0 v-20 m-112 20 v24 m112 0 v-24 m-112 24 q0 10 10 10 m92 0 q10 0 10 -10 m-102 10 h10 m48 0 h10 m0 0 h24 m-102 -10 v20 m112 0 v-20 m-112 20 v24 m112 0 v-24 m-112 24 q0 10 10 10 m92 0 q10 0 10 -10 m-102 10 h10 m56 0 h10 m0 0 h16 m-102 -10 v20 m112 0 v-20 m-112 20 v24 m112 0 v-24 m-112 24 q0 10 10 10 m92 0 q10 0 10 -10 m-102 10 h10 m66 0 h10 m0 0 h6 m-102 -10 v20 m112 0 v-20 m-112 20 v24 m112 0 v-24 m-112 24 q0 10 10 10 m92 0 q10 0 10 -10 m-102 10 h10 m48 0 h10 m0 0 h24 m-102 -10 v20 m112 0 v-20 m-112 20 v24 m112 0 v-24 m-112 24 q0 10 10 10 m92 0 q10 0 10 -10 m-102 10 h10 m64 0 h10 m0 0 h8 m23 -396 h-3"/>
         <polygon points="161 17 169 13 169 21"/>
         <polygon points="161 17 153 13 153 21"/></svg>
