 <svg xmlns="http://www.w3.org/2000/svg" width="223" height="169">
         <defs>
            <style type="text/css">
    @namespace "http://www.w3.org/2000/svg";
    .line                 {fill: none; stroke: #FFFFFF; stroke-width: 2;}
    .bold-line            {stroke: #FFFFFF; shape-rendering: crispEdges; stroke-width: 4;}
    .thin-line            {stroke: #1F1800; shape-rendering: crispEdges}
    .filled               {fill: #332900; stroke: none;}
    text.terminal         {font-family: Verdana, Sans-serif;
                            font-size: 12px;
                            fill: #141000;
                            font-weight: bold;
                          }
    text.nonterminal      {font-family: Verdana, Sans-serif;
                            font-size: 12px;
                            fill: #1A1400;
                            font-weight: normal;
                          }
    text.regexp           {font-family: Verdana, Sans-serif;
                            font-size: 12px;
                            fill: #1F1800;
                            font-weight: normal;
                          }
    rect, circle, polygon {fill: #FFFFFF; stroke: #332900;}
    rect.terminal         {fill: #00A4F1; stroke: #332900; stroke-width: 1;}
    rect.nonterminal      {fill: #00EDE1; stroke: #332900; stroke-width: 1;}
    rect.text             {fill: none; stroke: none;}
    polygon.regexp        {fill: #FFF4C7; stroke: #332900; stroke-width: 1;}
  </style>
         </defs>
         <polygon points="9 17 1 13 1 21"/>
         <polygon points="17 17 9 13 9 21"/>
            <rect x="51" y="3" width="124" height="32"/>
            <rect x="49" y="1" width="124" height="32" class="nonterminal"/>
            <text class="nonterminal" x="59" y="21">Inline-type-alias</text>
            <rect x="51" y="47" width="80" height="32"/>
            <rect x="49" y="45" width="80" height="32" class="nonterminal"/>
            <text class="nonterminal" x="59" y="65">Inline-list</text>
            <rect x="51" y="91" width="88" height="32"/>
            <rect x="49" y="89" width="88" height="32" class="nonterminal"/>
            <text class="nonterminal" x="59" y="109">Inline-map</text>
            <rect x="51" y="135" width="100" height="32"/>
            <rect x="49" y="133" width="100" height="32" class="nonterminal"/>
            <text class="nonterminal" x="59" y="153">Inline-record</text><svg:path xmlns:svg="http://www.w3.org/2000/svg" class="line" d="m17 17 h2 m20 0 h10 m124 0 h10 m-164 0 h20 m144 0 h20 m-184 0 q10 0 10 10 m164 0 q0 -10 10 -10 m-174 10 v24 m164 0 v-24 m-164 24 q0 10 10 10 m144 0 q10 0 10 -10 m-154 10 h10 m80 0 h10 m0 0 h44 m-154 -10 v20 m164 0 v-20 m-164 20 v24 m164 0 v-24 m-164 24 q0 10 10 10 m144 0 q10 0 10 -10 m-154 10 h10 m88 0 h10 m0 0 h36 m-154 -10 v20 m164 0 v-20 m-164 20 v24 m164 0 v-24 m-164 24 q0 10 10 10 m144 0 q10 0 10 -10 m-154 10 h10 m100 0 h10 m0 0 h24 m23 -132 h-3"/>
         <polygon points="213 17 221 13 221 21"/>
         <polygon points="213 17 205 13 205 21"/></svg>
