 <svg xmlns="http://www.w3.org/2000/svg" width="663" height="81">
         <defs>
            <style type="text/css">
    @namespace "http://www.w3.org/2000/svg";
    .line                 {fill: none; stroke: #000000; stroke-width: 2;}
    .bold-line            {stroke: #141000; shape-rendering: crispEdges; stroke-width: 4;}
    .thin-line            {stroke: #1F1800; shape-rendering: crispEdges}
    .filled               {fill: #332900; stroke: none;}
    text.terminal         {font-family: Verdana, Sans-serif;
                            font-size: 12px;
                            fill: #141000;
                            font-weight: bold;
                          }
    text.nonterminal      {font-family: Verdana, Sans-serif;
                            font-size: 12px;
                            fill: #1A1400;
                            font-weight: normal;
                          }
    text.regexp           {font-family: Verdana, Sans-serif;
                            font-size: 12px;
                            fill: #1F1800;
                            font-weight: normal;
                          }
    rect, circle, polygon {fill: #000000; stroke: #332900;}
    rect.terminal         {fill: #00A4F1; stroke: #332900; stroke-width: 1;}
    rect.nonterminal      {fill: #00EDE1; stroke: #332900; stroke-width: 1;}
    rect.text             {fill: none; stroke: none;}
    polygon.regexp        {fill: #FFF4C7; stroke: #332900; stroke-width: 1;}
  </style>
         </defs>
         <polygon points="9 61 1 57 1 65"/>
         <polygon points="17 61 9 57 9 65"/>
         <rect x="31" y="47" width="28" height="32" rx="10"/>
         <rect x="29" y="45" width="28" height="32" class="terminal" rx="10"/>
         <text class="terminal" x="39" y="65">{</text>
         <rect x="79" y="47" width="58" height="32" rx="10"/>
         <rect x="77" y="45" width="58" height="32" class="terminal" rx="10"/>
         <text class="terminal" x="87" y="65">enum</text>
         <rect x="157" y="47" width="24" height="32" rx="10"/>
         <rect x="155" y="45" width="24" height="32" class="terminal" rx="10"/>
         <text class="terminal" x="165" y="65">:</text>
         <rect x="201" y="47" width="26" height="32" rx="10"/>
         <rect x="199" y="45" width="26" height="32" class="terminal" rx="10"/>
         <text class="terminal" x="209" y="65">[</text>
            <rect x="267" y="47" width="94" height="32"/>
            <rect x="265" y="45" width="94" height="32" class="nonterminal"/>
            <text class="nonterminal" x="275" y="65">Enum-value</text><rect x="267" y="3" width="24" height="32" rx="10"/>
         <rect x="265" y="1" width="24" height="32" class="terminal" rx="10"/>
         <text class="terminal" x="275" y="21">,</text>
         <rect x="401" y="47" width="26" height="32" rx="10"/>
         <rect x="399" y="45" width="26" height="32" class="terminal" rx="10"/>
         <text class="terminal" x="409" y="65">]</text>
            <rect x="447" y="47" width="140" height="32"/>
            <rect x="445" y="45" width="140" height="32" class="nonterminal"/>
            <text class="nonterminal" x="455" y="65">Optional-attributes</text><rect x="607" y="47" width="28" height="32" rx="10"/>
         <rect x="605" y="45" width="28" height="32" class="terminal" rx="10"/>
         <text class="terminal" x="615" y="65">}</text>
         <svg:path xmlns:svg="http://www.w3.org/2000/svg" class="line" d="m17 61 h2 m0 0 h10 m28 0 h10 m0 0 h10 m58 0 h10 m0 0 h10 m24 0 h10 m0 0 h10 m26 0 h10 m20 0 h10 m94 0 h10 m-134 0 l20 0 m-1 0 q-9 0 -9 -10 l0 -24 q0 -10 10 -10 m114 44 l20 0 m-20 0 q10 0 10 -10 l0 -24 q0 -10 -10 -10 m-114 0 h10 m24 0 h10 m0 0 h70 m20 44 h10 m26 0 h10 m0 0 h10 m140 0 h10 m0 0 h10 m28 0 h10 m3 0 h-3"/>
         <polygon points="653 61 661 57 661 65"/>
         <polygon points="653 61 645 57 645 65"/></svg>
