 <svg xmlns="http://www.w3.org/2000/svg" width="567" height="37">
         <defs>
            <style type="text/css">
    @namespace "http://www.w3.org/2000/svg";
    .line                 {fill: none; stroke: #FFFFFF; stroke-width: 2;}
    .bold-line            {stroke: #FFFFFF; shape-rendering: crispEdges; stroke-width: 4;}
    .thin-line            {stroke: #1F1800; shape-rendering: crispEdges}
    .filled               {fill: #332900; stroke: none;}
    text.terminal         {font-family: Verdana, Sans-serif;
                            font-size: 12px;
                            fill: #141000;
                            font-weight: bold;
                          }
    text.nonterminal      {font-family: Verdana, Sans-serif;
                            font-size: 12px;
                            fill: #1A1400;
                            font-weight: normal;
                          }
    text.regexp           {font-family: Verdana, Sans-serif;
                            font-size: 12px;
                            fill: #1F1800;
                            font-weight: normal;
                          }
    rect, circle, polygon {fill: #FFFFFF; stroke: #332900;}
    rect.terminal         {fill: #00A4F1; stroke: #332900; stroke-width: 1;}
    rect.nonterminal      {fill: #00EDE1; stroke: #332900; stroke-width: 1;}
    rect.text             {fill: none; stroke: none;}
    polygon.regexp        {fill: #FFF4C7; stroke: #332900; stroke-width: 1;}
  </style>
         </defs>
         <polygon points="9 17 1 13 1 21"/>
         <polygon points="17 17 9 13 9 21"/>
         <rect x="31" y="3" width="28" height="32" rx="10"/>
         <rect x="29" y="1" width="28" height="32" class="terminal" rx="10"/>
         <text class="terminal" x="39" y="21">{</text>
         <rect x="79" y="3" width="40" height="32" rx="10"/>
         <rect x="77" y="1" width="40" height="32" class="terminal" rx="10"/>
         <text class="terminal" x="87" y="21">list</text>
         <rect x="139" y="3" width="24" height="32" rx="10"/>
         <rect x="137" y="1" width="24" height="32" class="terminal" rx="10"/>
         <text class="terminal" x="147" y="21">:</text>
            <rect x="183" y="3" width="148" height="32"/>
            <rect x="181" y="1" width="148" height="32" class="nonterminal"/>
            <text class="nonterminal" x="191" y="21">Type-name-or-inline</text>
            <rect x="351" y="3" width="140" height="32"/>
            <rect x="349" y="1" width="140" height="32" class="nonterminal"/>
            <text class="nonterminal" x="359" y="21">Optional-attributes</text><rect x="511" y="3" width="28" height="32" rx="10"/>
         <rect x="509" y="1" width="28" height="32" class="terminal" rx="10"/>
         <text class="terminal" x="519" y="21">}</text>
         <svg:path xmlns:svg="http://www.w3.org/2000/svg" class="line" d="m17 17 h2 m0 0 h10 m28 0 h10 m0 0 h10 m40 0 h10 m0 0 h10 m24 0 h10 m0 0 h10 m148 0 h10 m0 0 h10 m140 0 h10 m0 0 h10 m28 0 h10 m3 0 h-3"/>
         <polygon points="557 17 565 13 565 21"/>
         <polygon points="557 17 549 13 549 21"/></svg>
