 <svg xmlns="http://www.w3.org/2000/svg" width="519" height="37">
         <defs>
            <style type="text/css">
    @namespace "http://www.w3.org/2000/svg";
    .line                 {fill: none; stroke: #000000; stroke-width: 2;}
    .bold-line            {stroke: #141000; shape-rendering: crispEdges; stroke-width: 4;}
    .thin-line            {stroke: #1F1800; shape-rendering: crispEdges}
    .filled               {fill: #332900; stroke: none;}
    text.terminal         {font-family: Verdana, Sans-serif;
                            font-size: 12px;
                            fill: #141000;
                            font-weight: bold;
                          }
    text.nonterminal      {font-family: Verdana, Sans-serif;
                            font-size: 12px;
                            fill: #1A1400;
                            font-weight: normal;
                          }
    text.regexp           {font-family: Verdana, Sans-serif;
                            font-size: 12px;
                            fill: #1F1800;
                            font-weight: normal;
                          }
    rect, circle, polygon {fill: #000000; stroke: #332900;}
    rect.terminal         {fill: #00A4F1; stroke: #332900; stroke-width: 1;}
    rect.nonterminal      {fill: #00EDE1; stroke: #332900; stroke-width: 1;}
    rect.text             {fill: none; stroke: none;}
    polygon.regexp        {fill: #FFF4C7; stroke: #332900; stroke-width: 1;}
  </style>
         </defs>
         <polygon points="9 17 1 13 1 21"/>
         <polygon points="17 17 9 13 9 21"/>
         <rect x="31" y="3" width="28" height="32" rx="10"/>
         <rect x="29" y="1" width="28" height="32" class="terminal" rx="10"/>
         <text class="terminal" x="39" y="21">{</text>
         <rect x="79" y="3" width="50" height="32" rx="10"/>
         <rect x="77" y="1" width="50" height="32" class="terminal" rx="10"/>
         <text class="terminal" x="87" y="21">type</text>
         <rect x="149" y="3" width="24" height="32" rx="10"/>
         <rect x="147" y="1" width="24" height="32" class="terminal" rx="10"/>
         <text class="terminal" x="157" y="21">:</text>
            <rect x="193" y="3" width="90" height="32"/>
            <rect x="191" y="1" width="90" height="32" class="nonterminal"/>
            <text class="nonterminal" x="201" y="21">Type-name</text>
            <rect x="303" y="3" width="140" height="32"/>
            <rect x="301" y="1" width="140" height="32" class="nonterminal"/>
            <text class="nonterminal" x="311" y="21">Optional-attributes</text><rect x="463" y="3" width="28" height="32" rx="10"/>
         <rect x="461" y="1" width="28" height="32" class="terminal" rx="10"/>
         <text class="terminal" x="471" y="21">}</text>
         <svg:path xmlns:svg="http://www.w3.org/2000/svg" class="line" d="m17 17 h2 m0 0 h10 m28 0 h10 m0 0 h10 m50 0 h10 m0 0 h10 m24 0 h10 m0 0 h10 m90 0 h10 m0 0 h10 m140 0 h10 m0 0 h10 m28 0 h10 m3 0 h-3"/>
         <polygon points="509 17 517 13 517 21"/>
         <polygon points="509 17 501 13 501 21"/></svg>
