 <svg xmlns="http://www.w3.org/2000/svg" width="195" height="81">
         <defs>
            <style type="text/css">
    @namespace "http://www.w3.org/2000/svg";
    .line                 {fill: none; stroke: #000000; stroke-width: 2;}
    .bold-line            {stroke: #141000; shape-rendering: crispEdges; stroke-width: 4;}
    .thin-line            {stroke: #1F1800; shape-rendering: crispEdges}
    .filled               {fill: #332900; stroke: none;}
    text.terminal         {font-family: Verdana, Sans-serif;
                            font-size: 12px;
                            fill: #141000;
                            font-weight: bold;
                          }
    text.nonterminal      {font-family: Verdana, Sans-serif;
                            font-size: 12px;
                            fill: #1A1400;
                            font-weight: normal;
                          }
    text.regexp           {font-family: Verdana, Sans-serif;
                            font-size: 12px;
                            fill: #1F1800;
                            font-weight: normal;
                          }
    rect, circle, polygon {fill: #000000; stroke: #332900;}
    rect.terminal         {fill: #00A4F1; stroke: #332900; stroke-width: 1;}
    rect.nonterminal      {fill: #00EDE1; stroke: #332900; stroke-width: 1;}
    rect.text             {fill: none; stroke: none;}
    polygon.regexp        {fill: #FFF4C7; stroke: #332900; stroke-width: 1;}
  </style>
         </defs>
         <polygon points="9 61 1 57 1 65"/>
         <polygon points="17 61 9 57 9 65"/>
            <rect x="51" y="47" width="96" height="32"/>
            <rect x="49" y="45" width="96" height="32" class="nonterminal"/>
            <text class="nonterminal" x="59" y="65">Record-field</text><rect x="51" y="3" width="24" height="32" rx="10"/>
         <rect x="49" y="1" width="24" height="32" class="terminal" rx="10"/>
         <text class="terminal" x="59" y="21">,</text>
         <svg:path xmlns:svg="http://www.w3.org/2000/svg" class="line" d="m17 61 h2 m20 0 h10 m96 0 h10 m-136 0 l20 0 m-1 0 q-9 0 -9 -10 l0 -24 q0 -10 10 -10 m116 44 l20 0 m-20 0 q10 0 10 -10 l0 -24 q0 -10 -10 -10 m-116 0 h10 m24 0 h10 m0 0 h72 m23 44 h-3"/>
         <polygon points="185 61 193 57 193 65"/>
         <polygon points="185 61 177 57 177 65"/></svg>
