 <svg xmlns="http://www.w3.org/2000/svg" width="169" height="125">
         <defs>
            <style type="text/css">
    @namespace "http://www.w3.org/2000/svg";
    .line                 {fill: none; stroke: #000000; stroke-width: 2;}
    .bold-line            {stroke: #141000; shape-rendering: crispEdges; stroke-width: 4;}
    .thin-line            {stroke: #1F1800; shape-rendering: crispEdges}
    .filled               {fill: #332900; stroke: none;}
    text.terminal         {font-family: Verdana, Sans-serif;
                            font-size: 12px;
                            fill: #141000;
                            font-weight: bold;
                          }
    text.nonterminal      {font-family: Verdana, Sans-serif;
                            font-size: 12px;
                            fill: #1A1400;
                            font-weight: normal;
                          }
    text.regexp           {font-family: Verdana, Sans-serif;
                            font-size: 12px;
                            fill: #1F1800;
                            font-weight: normal;
                          }
    rect, circle, polygon {fill: #000000; stroke: #332900;}
    rect.terminal         {fill: #00A4F1; stroke: #332900; stroke-width: 1;}
    rect.nonterminal      {fill: #00EDE1; stroke: #332900; stroke-width: 1;}
    rect.text             {fill: none; stroke: none;}
    polygon.regexp        {fill: #FFF4C7; stroke: #332900; stroke-width: 1;}
  </style>
         </defs>
         <polygon points="9 17 1 13 1 21"/>
         <polygon points="17 17 9 13 9 21"/>
         <rect x="51" y="3" width="52" height="32" rx="10"/>
         <rect x="49" y="1" width="52" height="32" class="terminal" rx="10"/>
         <text class="terminal" x="59" y="21">base</text>
         <rect x="51" y="47" width="70" height="32" rx="10"/>
         <rect x="49" y="45" width="70" height="32" class="terminal" rx="10"/>
         <text class="terminal" x="59" y="65">implant</text>
         <rect x="51" y="91" width="66" height="32" rx="10"/>
         <rect x="49" y="89" width="66" height="32" class="terminal" rx="10"/>
         <text class="terminal" x="59" y="109">extend</text>
         <svg:path xmlns:svg="http://www.w3.org/2000/svg" class="line" d="m17 17 h2 m20 0 h10 m52 0 h10 m0 0 h18 m-110 0 h20 m90 0 h20 m-130 0 q10 0 10 10 m110 0 q0 -10 10 -10 m-120 10 v24 m110 0 v-24 m-110 24 q0 10 10 10 m90 0 q10 0 10 -10 m-100 10 h10 m70 0 h10 m-100 -10 v20 m110 0 v-20 m-110 20 v24 m110 0 v-24 m-110 24 q0 10 10 10 m90 0 q10 0 10 -10 m-100 10 h10 m66 0 h10 m0 0 h4 m23 -88 h-3"/>
         <polygon points="159 17 167 13 167 21"/>
         <polygon points="159 17 151 13 151 21"/></svg>
