 <svg xmlns="http://www.w3.org/2000/svg" width="501" height="125">
         <defs>
            <style type="text/css">
    @namespace "http://www.w3.org/2000/svg";
    .line                 {fill: none; stroke: #FFFFFF; stroke-width: 2;}
    .bold-line            {stroke: #FFFFFF; shape-rendering: crispEdges; stroke-width: 4;}
    .thin-line            {stroke: #1F1800; shape-rendering: crispEdges}
    .filled               {fill: #332900; stroke: none;}
    text.terminal         {font-family: Verdana, Sans-serif;
                            font-size: 12px;
                            fill: #141000;
                            font-weight: bold;
                          }
    text.nonterminal      {font-family: Verdana, Sans-serif;
                            font-size: 12px;
                            fill: #1A1400;
                            font-weight: normal;
                          }
    text.regexp           {font-family: Verdana, Sans-serif;
                            font-size: 12px;
                            fill: #1F1800;
                            font-weight: normal;
                          }
    rect, circle, polygon {fill: #FFFFFF; stroke: #332900;}
    rect.terminal         {fill: #00A4F1; stroke: #332900; stroke-width: 1;}
    rect.nonterminal      {fill: #00EDE1; stroke: #332900; stroke-width: 1;}
    rect.text             {fill: none; stroke: none;}
    polygon.regexp        {fill: #FFF4C7; stroke: #332900; stroke-width: 1;}
  </style>
         </defs>
         <polygon points="9 17 1 13 1 21"/>
         <polygon points="17 17 9 13 9 21"/>
            <rect x="51" y="3" width="26" height="32"/>
            <rect x="49" y="1" width="26" height="32" class="nonterminal"/>
            <text class="nonterminal" x="59" y="21">ε</text><rect x="51" y="91" width="24" height="32" rx="10"/>
         <rect x="49" y="89" width="24" height="32" class="terminal" rx="10"/>
         <text class="terminal" x="59" y="109">,</text>
         <rect x="95" y="91" width="86" height="32" rx="10"/>
         <rect x="93" y="89" width="86" height="32" class="terminal" rx="10"/>
         <text class="terminal" x="103" y="109">attributes</text>
         <rect x="201" y="91" width="24" height="32" rx="10"/>
         <rect x="199" y="89" width="24" height="32" class="terminal" rx="10"/>
         <text class="terminal" x="209" y="109">:</text>
         <rect x="245" y="91" width="26" height="32" rx="10"/>
         <rect x="243" y="89" width="26" height="32" class="terminal" rx="10"/>
         <text class="terminal" x="253" y="109">[</text>
            <rect x="311" y="91" width="76" height="32"/>
            <rect x="309" y="89" width="76" height="32" class="nonterminal"/>
            <text class="nonterminal" x="319" y="109">Attribute</text><rect x="311" y="47" width="24" height="32" rx="10"/>
         <rect x="309" y="45" width="24" height="32" class="terminal" rx="10"/>
         <text class="terminal" x="319" y="65">,</text>
         <rect x="427" y="91" width="26" height="32" rx="10"/>
         <rect x="425" y="89" width="26" height="32" class="terminal" rx="10"/>
         <text class="terminal" x="435" y="109">]</text>
         <svg:path xmlns:svg="http://www.w3.org/2000/svg" class="line" d="m17 17 h2 m20 0 h10 m26 0 h10 m0 0 h376 m-442 0 h20 m422 0 h20 m-462 0 q10 0 10 10 m442 0 q0 -10 10 -10 m-452 10 v68 m442 0 v-68 m-442 68 q0 10 10 10 m422 0 q10 0 10 -10 m-432 10 h10 m24 0 h10 m0 0 h10 m86 0 h10 m0 0 h10 m24 0 h10 m0 0 h10 m26 0 h10 m20 0 h10 m76 0 h10 m-116 0 l20 0 m-1 0 q-9 0 -9 -10 l0 -24 q0 -10 10 -10 m96 44 l20 0 m-20 0 q10 0 10 -10 l0 -24 q0 -10 -10 -10 m-96 0 h10 m24 0 h10 m0 0 h52 m20 44 h10 m26 0 h10 m23 -88 h-3"/>
         <polygon points="491 17 499 13 499 21"/>
         <polygon points="491 17 483 13 483 21"/></svg>
