 <svg xmlns="http://www.w3.org/2000/svg" width="457" height="37">
         <defs>
            <style type="text/css">
    @namespace "http://www.w3.org/2000/svg";
    .line                 {fill: none; stroke: #FFFFFF; stroke-width: 2;}
    .bold-line            {stroke: #FFFFFF; shape-rendering: crispEdges; stroke-width: 4;}
    .thin-line            {stroke: #1F1800; shape-rendering: crispEdges}
    .filled               {fill: #332900; stroke: none;}
    text.terminal         {font-family: Verdana, Sans-serif;
                            font-size: 12px;
                            fill: #141000;
                            font-weight: bold;
                          }
    text.nonterminal      {font-family: Verdana, Sans-serif;
                            font-size: 12px;
                            fill: #1A1400;
                            font-weight: normal;
                          }
    text.regexp           {font-family: Verdana, Sans-serif;
                            font-size: 12px;
                            fill: #1F1800;
                            font-weight: normal;
                          }
    rect, circle, polygon {fill: #FFFFFF; stroke: #332900;}
    rect.terminal         {fill: #00A4F1; stroke: #332900; stroke-width: 1;}
    rect.nonterminal      {fill: #00EDE1; stroke: #332900; stroke-width: 1;}
    rect.text             {fill: none; stroke: none;}
    polygon.regexp        {fill: #FFF4C7; stroke: #332900; stroke-width: 1;}
  </style>
         </defs>
         <polygon points="9 17 1 13 1 21"/>
         <polygon points="17 17 9 13 9 21"/>
         <rect x="31" y="3" width="28" height="32" rx="10"/>
         <rect x="29" y="1" width="28" height="32" class="terminal" rx="10"/>
         <text class="terminal" x="39" y="21">{</text>
            <rect x="79" y="3" width="90" height="32"/>
            <rect x="77" y="1" width="90" height="32" class="nonterminal"/>
            <text class="nonterminal" x="87" y="21">Field-name</text><rect x="189" y="3" width="24" height="32" rx="10"/>
         <rect x="187" y="1" width="24" height="32" class="terminal" rx="10"/>
         <text class="terminal" x="197" y="21">:</text>
            <rect x="233" y="3" width="148" height="32"/>
            <rect x="231" y="1" width="148" height="32" class="nonterminal"/>
            <text class="nonterminal" x="241" y="21">Type-name-or-inline</text><rect x="401" y="3" width="28" height="32" rx="10"/>
         <rect x="399" y="1" width="28" height="32" class="terminal" rx="10"/>
         <text class="terminal" x="409" y="21">}</text>
         <svg:path xmlns:svg="http://www.w3.org/2000/svg" class="line" d="m17 17 h2 m0 0 h10 m28 0 h10 m0 0 h10 m90 0 h10 m0 0 h10 m24 0 h10 m0 0 h10 m148 0 h10 m0 0 h10 m28 0 h10 m3 0 h-3"/>
         <polygon points="447 17 455 13 455 21"/>
         <polygon points="447 17 439 13 439 21"/></svg>
