 <svg xmlns="http://www.w3.org/2000/svg" width="549" height="37">
         <defs>
            <style type="text/css">
    @namespace "http://www.w3.org/2000/svg";
    .line                 {fill: none; stroke: #000000; stroke-width: 2;}
    .bold-line            {stroke: #141000; shape-rendering: crispEdges; stroke-width: 4;}
    .thin-line            {stroke: #1F1800; shape-rendering: crispEdges}
    .filled               {fill: #332900; stroke: none;}
    text.terminal         {font-family: Verdana, Sans-serif;
                            font-size: 12px;
                            fill: #141000;
                            font-weight: bold;
                          }
    text.nonterminal      {font-family: Verdana, Sans-serif;
                            font-size: 12px;
                            fill: #1A1400;
                            font-weight: normal;
                          }
    text.regexp           {font-family: Verdana, Sans-serif;
                            font-size: 12px;
                            fill: #1F1800;
                            font-weight: normal;
                          }
    rect, circle, polygon {fill: #000000; stroke: #332900;}
    rect.terminal         {fill: #00A4F1; stroke: #332900; stroke-width: 1;}
    rect.nonterminal      {fill: #00EDE1; stroke: #332900; stroke-width: 1;}
    rect.text             {fill: none; stroke: none;}
    polygon.regexp        {fill: #FFF4C7; stroke: #332900; stroke-width: 1;}
  </style>
         </defs>
         <polygon points="9 17 1 13 1 21"/>
         <polygon points="17 17 9 13 9 21"/>
         <rect x="31" y="3" width="56" height="32" rx="10"/>
         <rect x="29" y="1" width="56" height="32" class="terminal" rx="10"/>
         <text class="terminal" x="39" y="21">fields</text>
         <rect x="107" y="3" width="24" height="32" rx="10"/>
         <rect x="105" y="1" width="24" height="32" class="terminal" rx="10"/>
         <text class="terminal" x="115" y="21">:</text>
         <rect x="151" y="3" width="26" height="32" rx="10"/>
         <rect x="149" y="1" width="26" height="32" class="terminal" rx="10"/>
         <text class="terminal" x="159" y="21">[</text>
            <rect x="197" y="3" width="118" height="32"/>
            <rect x="195" y="1" width="118" height="32" class="nonterminal"/>
            <text class="nonterminal" x="205" y="21">ListRecord-field</text><rect x="335" y="3" width="26" height="32" rx="10"/>
         <rect x="333" y="1" width="26" height="32" class="terminal" rx="10"/>
         <text class="terminal" x="343" y="21">]</text>
            <rect x="381" y="3" width="140" height="32"/>
            <rect x="379" y="1" width="140" height="32" class="nonterminal"/>
            <text class="nonterminal" x="389" y="21">Optional-attributes</text><svg:path xmlns:svg="http://www.w3.org/2000/svg" class="line" d="m17 17 h2 m0 0 h10 m56 0 h10 m0 0 h10 m24 0 h10 m0 0 h10 m26 0 h10 m0 0 h10 m118 0 h10 m0 0 h10 m26 0 h10 m0 0 h10 m140 0 h10 m3 0 h-3"/>
         <polygon points="539 17 547 13 547 21"/>
         <polygon points="539 17 531 13 531 21"/></svg>
