 <svg xmlns="http://www.w3.org/2000/svg" width="515" height="81">
         <defs>
            <style type="text/css">
    @namespace "http://www.w3.org/2000/svg";
    .line                 {fill: none; stroke: #FFFFFF; stroke-width: 2;}
    .bold-line            {stroke: #FFFFFF; shape-rendering: crispEdges; stroke-width: 4;}
    .thin-line            {stroke: #1F1800; shape-rendering: crispEdges}
    .filled               {fill: #332900; stroke: none;}
    text.terminal         {font-family: Verdana, Sans-serif;
                            font-size: 12px;
                            fill: #141000;
                            font-weight: bold;
                          }
    text.nonterminal      {font-family: Verdana, Sans-serif;
                            font-size: 12px;
                            fill: #1A1400;
                            font-weight: normal;
                          }
    text.regexp           {font-family: Verdana, Sans-serif;
                            font-size: 12px;
                            fill: #1F1800;
                            font-weight: normal;
                          }
    rect, circle, polygon {fill: #FFFFFF; stroke: #332900;}
    rect.terminal         {fill: #00A4F1; stroke: #332900; stroke-width: 1;}
    rect.nonterminal      {fill: #00EDE1; stroke: #332900; stroke-width: 1;}
    rect.text             {fill: none; stroke: none;}
    polygon.regexp        {fill: #FFF4C7; stroke: #332900; stroke-width: 1;}
  </style>
         </defs>
         <polygon points="9 17 1 13 1 21"/>
         <polygon points="17 17 9 13 9 21"/>
         <rect x="31" y="3" width="28" height="32" rx="10"/>
         <rect x="29" y="1" width="28" height="32" class="terminal" rx="10"/>
         <text class="terminal" x="39" y="21">{</text>
            <rect x="79" y="3" width="132" height="32"/>
            <rect x="77" y="1" width="132" height="32" class="nonterminal"/>
            <text class="nonterminal" x="87" y="21">Declaration-name</text><rect x="231" y="3" width="24" height="32" rx="10"/>
         <rect x="229" y="1" width="24" height="32" class="terminal" rx="10"/>
         <text class="terminal" x="239" y="21">:</text>
            <rect x="295" y="3" width="90" height="32"/>
            <rect x="293" y="1" width="90" height="32" class="nonterminal"/>
            <text class="nonterminal" x="303" y="21">Type-name</text>
            <rect x="295" y="47" width="124" height="32"/>
            <rect x="293" y="45" width="124" height="32" class="nonterminal"/>
            <text class="nonterminal" x="303" y="65">Inline-type-alias</text><rect x="459" y="3" width="28" height="32" rx="10"/>
         <rect x="457" y="1" width="28" height="32" class="terminal" rx="10"/>
         <text class="terminal" x="467" y="21">}</text>
         <svg:path xmlns:svg="http://www.w3.org/2000/svg" class="line" d="m17 17 h2 m0 0 h10 m28 0 h10 m0 0 h10 m132 0 h10 m0 0 h10 m24 0 h10 m20 0 h10 m90 0 h10 m0 0 h34 m-164 0 h20 m144 0 h20 m-184 0 q10 0 10 10 m164 0 q0 -10 10 -10 m-174 10 v24 m164 0 v-24 m-164 24 q0 10 10 10 m144 0 q10 0 10 -10 m-154 10 h10 m124 0 h10 m20 -44 h10 m28 0 h10 m3 0 h-3"/>
         <polygon points="505 17 513 13 513 21"/>
         <polygon points="505 17 497 13 497 21"/></svg>
