<?xml version="1.0"?>
<svg xmlns="http://www.w3.org/2000/svg" width="215" height="257">
         <defs>
            <style type="text/css">
    @namespace "http://www.w3.org/2000/svg";
    .line                 {fill: none; stroke: #FFFFFF; stroke-width: 2;}
    .bold-line            {stroke: #FFFFFF; shape-rendering: crispEdges; stroke-width: 4;}
    .thin-line            {stroke: #1F1800; shape-rendering: crispEdges}
    .filled               {fill: #332900; stroke: none;}
    text.terminal         {font-family: Verdana, Sans-serif;
                            font-size: 12px;
                            fill: #141000;
                            font-weight: bold;
                          }
    text.nonterminal      {font-family: Verdana, Sans-serif;
                            font-size: 12px;
                            fill: #1A1400;
                            font-weight: normal;
                          }
    text.regexp           {font-family: Verdana, Sans-serif;
                            font-size: 12px;
                            fill: #1F1800;
                            font-weight: normal;
                          }
    rect, circle, polygon {fill: #FFFFFF; stroke: #332900;}
    rect.terminal         {fill: #00A4F1; stroke: #332900; stroke-width: 1;}
    rect.nonterminal      {fill: #00EDE1; stroke: #332900; stroke-width: 1;}
    rect.text             {fill: none; stroke: none;}
    polygon.regexp        {fill: #FFF4C7; stroke: #332900; stroke-width: 1;}
  </style>
         </defs>
         <polygon points="9 17 1 13 1 21"/>
         <polygon points="17 17 9 13 9 21"/>
            <rect x="51" y="3" width="84" height="32"/>
            <rect x="49" y="1" width="84" height="32" class="nonterminal"/>
            <text class="nonterminal" x="59" y="21">Type-alias</text>
            <rect x="51" y="47" width="42" height="32"/>
            <rect x="49" y="45" width="42" height="32" class="nonterminal"/>
            <text class="nonterminal" x="59" y="65">List</text>
            <rect x="51" y="91" width="46" height="32"/>
            <rect x="49" y="89" width="46" height="32" class="nonterminal"/>
            <text class="nonterminal" x="59" y="109">Map</text>
            <rect x="51" y="135" width="64" height="32"/>
            <rect x="49" y="133" width="64" height="32" class="nonterminal"/>
            <text class="nonterminal" x="59" y="153">Record</text>
            <rect x="51" y="179" width="100" height="32"/>
            <rect x="49" y="177" width="100" height="32" class="nonterminal"/>
            <text class="nonterminal" x="59" y="197">Enumeration</text>
            <rect x="51" y="223" width="116" height="32"/>
            <rect x="49" y="221" width="116" height="32" class="nonterminal"/>
            <text class="nonterminal" x="59" y="241">Record-algebra</text><svg:path xmlns:svg="http://www.w3.org/2000/svg" class="line" d="m17 17 h2 m20 0 h10 m84 0 h10 m0 0 h32 m-156 0 h20 m136 0 h20 m-176 0 q10 0 10 10 m156 0 q0 -10 10 -10 m-166 10 v24 m156 0 v-24 m-156 24 q0 10 10 10 m136 0 q10 0 10 -10 m-146 10 h10 m42 0 h10 m0 0 h74 m-146 -10 v20 m156 0 v-20 m-156 20 v24 m156 0 v-24 m-156 24 q0 10 10 10 m136 0 q10 0 10 -10 m-146 10 h10 m46 0 h10 m0 0 h70 m-146 -10 v20 m156 0 v-20 m-156 20 v24 m156 0 v-24 m-156 24 q0 10 10 10 m136 0 q10 0 10 -10 m-146 10 h10 m64 0 h10 m0 0 h52 m-146 -10 v20 m156 0 v-20 m-156 20 v24 m156 0 v-24 m-156 24 q0 10 10 10 m136 0 q10 0 10 -10 m-146 10 h10 m100 0 h10 m0 0 h16 m-146 -10 v20 m156 0 v-20 m-156 20 v24 m156 0 v-24 m-156 24 q0 10 10 10 m136 0 q10 0 10 -10 m-146 10 h10 m116 0 h10 m23 -220 h-3"/>
         <polygon points="205 17 213 13 213 21"/>
         <polygon points="205 17 197 13 197 21"/></svg>
