<svg version="1.1" xmlns="http://www.w3.org/2000/svg" viewBox="0 0 140 100" width="32" height="20">
  <g stroke-linecap="round">
    <g transform="translate(10 10) rotate(0 60 40)" fill-rule="evenodd">
      <path
        d="M0 0 C0 0, 0 0, 0 0 M0 0 C0 0, 0 0, 0 0 M-0.26 6.4 C0.99 4.96, 2.23 3.53, 4.99 0.36 M-0.26 6.4 C1.24 4.67, 2.74 2.94, 4.99 0.36 M0.13 12.04 C2.36 9.48, 4.58 6.92, 10.63 -0.03 M0.13 12.04 C2.69 9.1, 5.25 6.15, 10.63 -0.03 M-0.13 18.44 C4.49 13.12, 9.12 7.8, 15.62 0.33 M-0.13 18.44 C5.24 12.26, 10.61 6.08, 15.62 0.33 M0.27 24.08 C8.59 14.51, 16.91 4.94, 21.26 -0.07 M0.27 24.08 C5.21 18.39, 10.15 12.71, 21.26 -0.07 M0 30.48 C6.57 22.93, 13.14 15.37, 26.25 0.29 M0 30.48 C7.52 21.83, 15.04 13.18, 26.25 0.29 M-0.26 36.88 C9.12 26.09, 18.51 15.29, 31.89 -0.1 M-0.26 36.88 C6.62 28.97, 13.49 21.06, 31.89 -0.1 M0.14 42.52 C9.52 31.73, 18.89 20.95, 36.88 0.26 M0.14 42.52 C9.59 31.65, 19.03 20.78, 36.88 0.26 M-0.12 48.92 C11.07 36.04, 22.26 23.17, 42.52 -0.14 M-0.12 48.92 C9.9 37.39, 19.92 25.86, 42.52 -0.14 M0.27 54.56 C10.38 42.93, 20.5 31.29, 47.51 0.22 M0.27 54.56 C14.68 37.99, 29.08 21.42, 47.51 0.22 M0.01 60.96 C14.89 43.84, 29.77 26.72, 53.15 -0.17 M0.01 60.96 C11.82 47.38, 23.62 33.8, 53.15 -0.17 M-0.25 67.36 C16.68 47.88, 33.61 28.4, 58.14 0.19 M-0.25 67.36 C17.22 47.26, 34.69 27.16, 58.14 0.19 M0.14 73 C14.41 56.59, 28.68 40.17, 63.78 -0.21 M0.14 73 C17.04 53.56, 33.93 34.13, 63.78 -0.21 M-0.12 79.4 C13.93 63.24, 27.98 47.07, 68.77 0.15 M-0.12 79.4 C15.47 61.46, 31.06 43.53, 68.77 0.15 M4.21 80.51 C31.05 49.64, 57.89 18.76, 74.41 -0.24 M4.21 80.51 C26.85 54.47, 49.5 28.42, 74.41 -0.24 M9.86 80.12 C33.14 53.34, 56.42 26.56, 79.4 0.12 M9.86 80.12 C30.01 56.93, 50.16 33.75, 79.4 0.12 M14.84 80.48 C38.47 53.3, 62.1 26.11, 82.42 2.74 M14.84 80.48 C36.33 55.76, 57.82 31.04, 82.42 2.74 M20.49 80.08 C34.72 63.71, 48.95 47.34, 85.44 5.37 M20.49 80.08 C34.16 64.36, 47.83 48.63, 85.44 5.37 M25.47 80.44 C46.21 56.58, 66.95 32.72, 88.45 7.99 M25.47 80.44 C40.82 62.79, 56.17 45.13, 88.45 7.99 M31.12 80.05 C46.13 62.78, 61.14 45.51, 90.82 11.37 M31.12 80.05 C50.6 57.64, 70.08 35.22, 90.82 11.37 M36.1 80.41 C49.5 64.99, 62.9 49.58, 93.84 13.99 M36.1 80.41 C51.04 63.22, 65.98 46.04, 93.84 13.99 M41.75 80.01 C62.91 55.67, 84.07 31.32, 96.85 16.62 M41.75 80.01 C57.86 61.47, 73.98 42.93, 96.85 16.62 M46.73 80.37 C66.75 57.35, 86.77 34.32, 99.87 19.24 M46.73 80.37 C67.43 56.57, 88.12 32.77, 99.87 19.24 M52.38 79.98 C63.69 66.96, 75.01 53.95, 102.24 22.62 M52.38 79.98 C71.39 58.11, 90.39 36.24, 102.24 22.62 M57.36 80.34 C76.02 58.88, 94.68 37.41, 105.26 25.25 M57.36 80.34 C68.33 67.72, 79.3 55.11, 105.26 25.25 M62.35 80.7 C78.33 62.31, 94.32 43.92, 108.27 27.87 M62.35 80.7 C79.9 60.51, 97.45 40.32, 108.27 27.87 M67.99 80.31 C81 65.34, 94.01 50.37, 110.64 31.25 M67.99 80.31 C78.15 68.62, 88.31 56.93, 110.64 31.25 M72.98 80.67 C88.16 63.21, 103.34 45.74, 113.66 33.87 M72.98 80.67 C85.27 66.53, 97.55 52.4, 113.66 33.87 M78.62 80.27 C88.72 68.66, 98.81 57.04, 116.67 36.5 M78.62 80.27 C87.94 69.55, 97.27 58.82, 116.67 36.5 M110.51 49.69 C113.13 46.67, 115.76 43.65, 119.69 39.12 M110.51 49.69 C112.94 46.89, 115.37 44.1, 119.69 39.12"
        stroke="#e9ecef" stroke-width="0.5" fill="none"></path>
      <path
        d="M0 0 C0 30.38, 0 60.76, 0 80 M0 0 C0 30.35, 0 60.7, 0 80 M0 80 C21.34 80, 42.68 80, 80 80 M0 80 C29.77 80, 59.54 80, 80 80 M80 80 C92.13 67.87, 104.25 55.75, 120 40 M80 80 C93.56 66.44, 107.12 52.88, 120 40 M120 40 C110.9 30.9, 101.81 21.81, 80 0 M120 40 C108.27 28.27, 96.53 16.53, 80 0 M80 0 C51.21 0, 22.43 0, 0 0 M80 0 C53.3 0, 26.61 0, 0 0 M0 0 C0 0, 0 0, 0 0 M0 0 C0 0, 0 0, 0 0"
        stroke="#868e96" stroke-width="1" fill="none"></path>
    </g>
  </g>
  <mask></mask>
</svg>