<?xml version="1.0" encoding="UTF-8"?>
<svg xmlns="http://www.w3.org/2000/svg" xmlns:xlink="http://www.w3.org/1999/xlink" width="16" height="20" viewBox="0 0 16 20">
<path fill="none" stroke-width="0.5" stroke-linecap="round" stroke-linejoin="miter" stroke="rgb(91.372549%, 92.54902%, 93.72549%)" stroke-opacity="1" stroke-miterlimit="4" d="M -59.882812 -40.136719 L -59.882812 -40.136719 M -59.882812 -40.136719 L -59.882812 -40.136719 M -56.875 -37.519531 C -53.261719 -41.640625 -49.6875 -45.78125 -47.675781 -48.066406 M -56.875 -37.519531 C -54.746094 -39.960938 -52.617188 -42.402344 -47.675781 -48.066406 M -53.183594 -35.644531 C -46.835938 -42.949219 -40.507812 -50.234375 -34.824219 -56.777344 M -53.183594 -35.644531 C -47.792969 -41.855469 -42.382812 -48.066406 -34.824219 -56.777344 M -50.175781 -33.007812 C -44.355469 -39.707031 -38.554688 -46.386719 -21.953125 -65.46875 M -50.175781 -33.007812 C -42.03125 -42.363281 -33.90625 -51.71875 -21.953125 -65.46875 M -46.503906 -31.132812 C -36.171875 -43.027344 -25.859375 -54.902344 -9.765625 -73.417969 M -46.503906 -31.132812 C -39.121094 -39.648438 -31.738281 -48.125 -9.765625 -73.417969 M -43.476562 -28.515625 C -27.539062 -46.875 -11.582031 -65.214844 0.488281 -79.082031 M -43.476562 -28.515625 C -26.542969 -47.988281 -9.628906 -67.460938 0.488281 -79.082031 M -39.804688 -26.640625 C -30.527344 -37.34375 -21.230469 -48.027344 0.878906 -73.4375 M -39.804688 -26.640625 C -29.257812 -38.789062 -18.710938 -50.917969 0.878906 -73.4375 M -36.796875 -24.023438 C -24.101562 -38.59375 -11.445312 -53.183594 0.605469 -67.050781 M -36.796875 -24.023438 C -29.023438 -32.949219 -21.269531 -41.875 0.605469 -67.050781 M -33.105469 -22.167969 C -21.523438 -35.488281 -9.921875 -48.828125 0.996094 -61.40625 M -33.105469 -22.167969 C -23.574219 -33.125 -14.042969 -44.082031 0.996094 -61.40625 M -30.097656 -19.53125 C -18.945312 -32.34375 -7.792969 -45.175781 0.742188 -55 M -30.097656 -19.53125 C -21.132812 -29.824219 -12.1875 -40.136719 0.742188 -55 M -26.425781 -17.65625 C -17.851562 -27.5 -9.316406 -37.34375 0.488281 -48.613281 M -26.425781 -17.65625 C -17.773438 -27.617188 -9.121094 -37.558594 0.488281 -48.613281 M -23.398438 -15.039062 C -18.359375 -20.859375 -13.300781 -26.660156 0.878906 -42.96875 M -23.398438 -15.039062 C -18.085938 -21.152344 -12.753906 -27.265625 0.878906 -42.96875 M -19.726562 -13.164062 C -15.351562 -18.203125 -10.976562 -23.222656 0.625 -36.5625 M -19.726562 -13.164062 C -13.710938 -20.078125 -7.695312 -26.992188 0.625 -36.5625 M -16.699219 -10.546875 C -13.066406 -14.746094 -9.414062 -18.945312 1.015625 -30.917969 M -16.699219 -10.546875 C -12.65625 -15.195312 -8.59375 -19.863281 1.015625 -30.917969 M -13.027344 -8.671875 C -9.824219 -12.363281 -6.601562 -16.054688 0.742188 -24.511719 M -13.027344 -8.671875 C -8.046875 -14.414062 -3.066406 -20.15625 0.742188 -24.511719 M -9.355469 -6.816406 C -7.070312 -9.433594 -4.785156 -12.070312 0.488281 -18.125 M -9.355469 -6.816406 C -7.34375 -9.121094 -5.332031 -11.425781 0.488281 -18.125 M -6.347656 -4.179688 C -3.984375 -6.875 -1.640625 -9.570312 0.878906 -12.480469 M -6.347656 -4.179688 C -3.945312 -6.933594 -1.5625 -9.667969 0.878906 -12.480469 M -2.65625 -2.304688 C -1.621094 -3.496094 -0.585938 -4.6875 0.625 -6.09375 M -2.65625 -2.304688 C -1.738281 -3.378906 -0.820312 -4.433594 0.625 -6.09375 " transform="matrix(0.2, 0, 0, 0.2, 14, 18)"/>
<path fill="none" stroke-width="1" stroke-linecap="round" stroke-linejoin="miter" stroke="rgb(18.431373%, 61.960784%, 26.666667%)" stroke-opacity="1" stroke-miterlimit="4" d="M 0 0 C 0 -26.933594 0 -53.886719 0 -80 M 0 0 C 0 -26.582031 0 -53.164062 0 -80 M 0 -80 C -13.671875 -70.878906 -27.363281 -61.757812 -60 -40 M 0 -80 C -20.9375 -66.054688 -41.855469 -52.109375 -60 -40 M -60 -40 C -44.941406 -29.960938 -29.902344 -19.941406 0 0 M -60 -40 C -39.296875 -26.191406 -18.59375 -12.382812 0 0 M 0 0 L 0 0 M 0 0 L 0 0 " transform="matrix(0.2, 0, 0, 0.2, 14, 18)"/>
</svg>
