<?xml version="1.0" encoding="UTF-8"?>
<svg xmlns="http://www.w3.org/2000/svg" xmlns:xlink="http://www.w3.org/1999/xlink" width="16" height="20" viewBox="0 0 16 20">
<path fill="none" stroke-width="0.5" stroke-linecap="round" stroke-linejoin="miter" stroke="rgb(91.372549%, 92.54902%, 93.72549%)" stroke-opacity="1" stroke-miterlimit="4" d="M -0.253906 -79.726562 L -0.253906 -79.726562 M -0.253906 -79.726562 L -0.253906 -79.726562 M 0.15625 -74.0625 C 1.035156 -75.097656 1.914062 -76.09375 3.4375 -77.851562 M 0.15625 -74.0625 C 0.9375 -74.960938 1.71875 -75.859375 3.4375 -77.851562 M -0.117188 -67.675781 C 1.933594 -70.039062 3.984375 -72.382812 6.445312 -75.214844 M -0.117188 -67.675781 C 1.894531 -69.980469 3.90625 -72.304688 6.445312 -75.214844 M 0.273438 -62.03125 C 2.949219 -65.097656 5.605469 -68.164062 10.117188 -73.359375 M 0.273438 -62.03125 C 3.066406 -65.234375 5.839844 -68.4375 10.117188 -73.359375 M 0.0195312 -55.625 C 5 -61.367188 9.980469 -67.109375 13.144531 -70.722656 M 0.0195312 -55.625 C 4.042969 -60.273438 8.085938 -64.921875 13.144531 -70.722656 M -0.234375 -49.238281 C 3.90625 -54.023438 8.066406 -58.808594 16.816406 -68.867188 M -0.234375 -49.238281 C 5.019531 -55.292969 10.273438 -61.347656 16.816406 -68.867188 M 0.15625 -43.59375 C 6.640625 -51.074219 13.144531 -58.535156 19.824219 -66.230469 M 0.15625 -43.59375 C 5.976562 -50.292969 11.816406 -57.011719 19.824219 -66.230469 M -0.117188 -37.207031 C 6.347656 -44.628906 12.8125 -52.050781 23.515625 -64.355469 M -0.117188 -37.207031 C 6.191406 -44.453125 12.519531 -51.71875 23.515625 -64.355469 M 0.292969 -31.542969 C 10.078125 -42.8125 19.882812 -54.082031 26.523438 -61.738281 M 0.292969 -31.542969 C 8.164062 -40.625 16.054688 -49.707031 26.523438 -61.738281 M 0.0195312 -25.15625 C 8.925781 -35.390625 17.832031 -45.644531 30.195312 -59.863281 M 0.0195312 -25.15625 C 7.890625 -34.21875 15.78125 -43.28125 30.195312 -59.863281 M -0.234375 -18.769531 C 12.382812 -33.261719 24.980469 -47.773438 33.886719 -58.007812 M -0.234375 -18.769531 C 9.902344 -30.429688 20.058594 -42.109375 33.886719 -58.007812 M 0.15625 -13.105469 C 10.957031 -25.527344 21.757812 -37.949219 36.894531 -55.371094 M 0.15625 -13.105469 C 12.753906 -27.597656 25.332031 -42.070312 36.894531 -55.371094 M -0.0976562 -6.71875 C 9.238281 -17.460938 18.574219 -28.203125 40.566406 -53.515625 M -0.0976562 -6.71875 C 8.613281 -16.757812 17.324219 -26.777344 40.566406 -53.515625 M 0.292969 -1.074219 C 13.496094 -16.25 26.679688 -31.425781 43.59375 -50.878906 M 0.292969 -1.074219 C 13.90625 -16.738281 27.519531 -32.382812 43.59375 -50.878906 M 9.863281 -5.996094 C 21.5625 -19.453125 33.261719 -32.910156 47.265625 -49.003906 M 9.863281 -5.996094 C 22.167969 -20.136719 34.453125 -34.277344 47.265625 -49.003906 M 22.734375 -14.6875 C 28.59375 -21.445312 34.453125 -28.183594 50.273438 -46.386719 M 22.734375 -14.6875 C 31.777344 -25.097656 40.820312 -35.507812 50.273438 -46.386719 M 34.921875 -22.636719 C 39.296875 -27.65625 43.671875 -32.695312 53.964844 -44.511719 M 34.921875 -22.636719 C 40.039062 -28.496094 45.117188 -34.355469 53.964844 -44.511719 M 47.792969 -31.328125 C 51.035156 -35.078125 54.296875 -38.808594 56.972656 -41.894531 M 47.792969 -31.328125 C 50.429688 -34.355469 53.066406 -37.382812 56.972656 -41.894531 " transform="matrix(0.2, 0, 0, 0.2, 2, 18)"/>
<path fill="none" stroke-width="1" stroke-linecap="round" stroke-linejoin="miter" stroke="rgb(61.176471%, 21.176471%, 70.980392%)" stroke-opacity="1" stroke-miterlimit="4" d="M 0 0 C 0 -20.488281 0 -40.996094 0 -80 M 0 0 C 0 -16.738281 0 -33.457031 0 -80 M 0 -80 C 17.382812 -68.417969 34.765625 -56.816406 60 -40 M 0 -80 C 13.789062 -70.800781 27.558594 -61.621094 60 -40 M 60 -40 C 45.859375 -30.566406 31.699219 -21.132812 0 0 M 60 -40 C 41.40625 -27.597656 22.8125 -15.214844 0 0 M 0 0 L 0 0 M 0 0 L 0 0 " transform="matrix(0.2, 0, 0, 0.2, 2, 18)"/>
</svg>
