<?xml version="1.0" encoding="UTF-8"?>
<svg xmlns="http://www.w3.org/2000/svg" xmlns:xlink="http://www.w3.org/1999/xlink" width="23.931709" height="20" viewBox="0 0 23.931709 20">
<path fill="none" stroke-width="0.5" stroke-linecap="round" stroke-linejoin="miter" stroke="rgb(91.372549%, 92.54902%, 93.72549%)" stroke-opacity="1" stroke-miterlimit="4" d="M 0.00894899 0.00894644 L 0.00894899 0.00894644 M 0.00894899 0.00894644 L 0.00894899 0.00894644 M 3.025345 2.614015 C 3.671715 1.86971 4.337673 1.105818 4.984043 0.361512 M 3.025345 2.614015 C 3.534606 2.045993 4.043868 1.458383 4.984043 0.361512 M 5.375783 6.002564 C 6.668524 4.53354 7.941678 3.064516 10.625094 -0.0302275 M 5.375783 6.002564 C 6.43348 4.788171 7.491177 3.573778 10.625094 -0.0302275 M 8.392178 8.62722 C 10.742616 5.924216 13.093055 3.221212 15.619775 0.322338 M 8.392178 8.62722 C 10.997247 5.630411 13.602316 2.633602 15.619775 0.322338 M 11.428161 11.251875 C 14.718774 7.452 18.009388 3.671713 21.260827 -0.0694015 M 11.428161 11.251875 C 15.149688 6.962326 18.871215 2.653189 21.260827 -0.0694015 M 14.444556 13.876531 C 18.068149 9.704504 21.672154 5.552063 26.255508 0.283164 M 14.444556 13.876531 C 17.598061 10.252939 20.731978 6.629347 26.255508 0.283164 M 16.794995 17.245493 C 20.751565 12.701312 24.708136 8.176719 31.896559 -0.108575 M 16.794995 17.245493 C 21.280414 12.094116 25.765833 6.942739 31.896559 -0.108575 M 19.81139 19.889736 C 25.021528 13.876531 30.231666 7.882914 36.871653 0.263577 M 19.81139 19.889736 C 25.13905 13.778596 30.447123 7.667457 36.871653 0.263577 M 22.847373 22.494804 C 29.271904 15.090924 35.716021 7.687044 42.512705 -0.147749 M 22.847373 22.494804 C 27.078161 17.637232 31.30895 12.77966 42.512705 -0.147749 M 25.197811 25.883353 C 31.896559 18.166081 38.614895 10.468396 47.507386 0.224403 M 25.197811 25.883353 C 31.446059 18.694929 37.694307 11.526093 47.507386 0.224403 M 28.214206 28.508009 C 37.772655 17.51971 47.331103 6.511825 53.148437 -0.167336 M 28.214206 28.508009 C 34.286172 21.535042 40.33855 14.562076 53.148437 -0.167336 M 31.230602 31.132665 C 37.126284 24.375155 43.00238 17.598058 58.143118 0.185229 M 31.230602 31.132665 C 36.812893 24.708134 42.395183 18.283603 58.143118 0.185229 M 34.266585 33.75732 C 40.671528 26.373027 47.096059 18.988734 61.805885 2.06558 M 34.266585 33.75732 C 43.668337 22.925718 53.089676 12.094116 61.805885 2.06558 M 36.617023 37.126282 C 46.136297 26.196744 55.655571 15.24762 64.82228 4.670649 M 36.617023 37.126282 C 47.311516 24.825656 58.025597 12.525029 64.82228 4.670649 M 4.200564 80.511452 C 9.430288 74.498248 14.6796 68.485044 27.176096 54.108197 M 4.200564 80.511452 C 11.56527 72.049875 18.929976 63.588298 27.176096 54.108197 M 39.633418 39.750938 C 47.644495 30.545055 55.655571 21.339172 67.858263 7.314892 M 39.633418 39.750938 C 48.956823 29.036857 58.280227 18.30319 67.858263 7.314892 M 9.195245 80.864018 C 25.687485 61.903817 42.179726 42.924029 70.208701 10.683853 M 9.195245 80.864018 C 23.846309 64.019211 38.51696 47.154818 70.208701 10.683853 M 14.836296 80.472278 C 28.605946 64.645995 42.356009 48.819711 73.225096 13.308509 M 14.836296 80.472278 C 29.213143 63.940863 43.589989 47.409448 73.225096 13.308509 M 19.830977 80.844431 C 31.857385 67.01602 43.864207 53.187609 76.241492 15.933165 M 19.830977 80.844431 C 31.720277 67.153129 43.609576 53.481414 76.241492 15.933165 M 25.472029 80.433104 C 42.688988 60.630663 59.905947 40.847809 79.277475 18.557821 M 25.472029 80.433104 C 44.921904 58.064768 64.371779 35.696432 79.277475 18.557821 M 30.46671 80.805257 C 43.687924 65.605757 56.889551 50.406257 81.627913 21.946369 M 30.46671 80.805257 C 50.523782 57.712202 70.60044 34.619148 81.627913 21.946369 M 36.107761 80.413517 C 46.50845 68.44587 56.909138 56.478222 84.644308 24.551438 M 36.107761 80.413517 C 53.677286 60.199749 71.227224 40.005568 84.644308 24.551438 M 41.082855 80.766083 C 57.770966 61.570838 74.478663 42.375594 87.660704 27.176094 M 41.082855 80.766083 C 59.475033 59.61214 77.886799 38.458197 87.660704 27.176094 M 46.723907 80.374343 C 61.70795 63.157384 76.672406 45.940425 90.030729 30.564642 M 46.723907 80.374343 C 63.274908 61.355381 79.806323 42.316833 90.030729 30.564642 M 51.718588 80.726909 C 60.630665 70.482916 69.542743 60.238923 93.047124 33.189298 M 51.718588 80.726909 C 63.255321 67.46652 74.772468 54.206132 93.047124 33.189298 M 57.359639 80.335169 C 68.641742 67.348999 79.943432 54.362828 96.06352 35.813954 M 57.359639 80.335169 C 65.390303 71.1097 73.401379 61.88423 96.06352 35.813954 M 80.726911 59.572966 C 85.897875 53.598936 91.088426 47.644492 99.099503 38.43861 M 80.726911 59.572966 C 87.22979 52.071151 93.732669 44.588923 99.099503 38.43861 " transform="matrix(0.199431, 0, 0, 0.199431, 1.994309, 1.99431)"/>
<path fill="none" stroke-width="1" stroke-linecap="round" stroke-linejoin="miter" stroke="rgb(9.803922%, 44.313725%, 76.078431%)" stroke-opacity="1" stroke-miterlimit="4" d="M 0.00894899 0.00894644 C 15.71771 15.717708 31.426472 31.426469 40.005571 40.005568 M 0.00894899 0.00894644 C 13.24975 13.249748 26.510139 26.510136 40.005571 40.005568 M 40.005571 40.005568 C 30.505884 49.799061 21.025783 59.592553 0.988298 80.295995 M 40.005571 40.005568 C 30.819275 49.505256 21.613393 58.985356 0.988298 80.295995 M 0.988298 80.295995 C 18.18567 80.19806 35.363456 80.119712 60.003882 80.00219 M 0.988298 80.295995 C 22.886547 80.178473 44.765208 80.060951 60.003882 80.00219 M 60.003882 80.00219 C 68.543807 71.462265 77.064145 62.92234 100.000504 40.005568 M 60.003882 80.00219 C 70.228288 69.777785 80.433107 59.553379 100.000504 40.005568 M 100.000504 40.005568 C 85.15357 25.158634 70.306636 10.292113 60.003882 0.00894644 M 100.000504 40.005568 C 85.055635 25.060699 70.110766 10.11583 60.003882 0.00894644 M 60.003882 0.00894644 C 41.37666 0.00894644 22.769025 0.00894644 0.00894899 0.00894644 M 60.003882 0.00894644 C 43.511641 0.00894644 27.038987 0.00894644 0.00894899 0.00894644 M 0.00894899 0.00894644 L 0.00894899 0.00894644 M 0.00894899 0.00894644 L 0.00894899 0.00894644 " transform="matrix(0.199431, 0, 0, 0.199431, 1.994309, 1.99431)"/>
</svg>
