<?xml version="1.0" encoding="UTF-8"?>
<svg xmlns="http://www.w3.org/2000/svg" xmlns:xlink="http://www.w3.org/1999/xlink" width="16" height="20" viewBox="0 0 16 20">
<path fill="none" stroke-width="0.5" stroke-linecap="round" stroke-linejoin="miter" stroke="rgb(91.372549%, 92.54902%, 93.72549%)" stroke-opacity="1" stroke-miterlimit="4" d="M -59.882812 -40.136719 L -59.882812 -40.136719 M -59.882812 -40.136719 L -59.882812 -40.136719 M -56.875 -37.519531 C -54.335938 -40.429688 -51.796875 -43.359375 -47.675781 -48.066406 M -56.875 -37.519531 C -54.765625 -39.941406 -52.636719 -42.363281 -47.675781 -48.066406 M -53.183594 -35.644531 C -46.328125 -43.535156 -39.472656 -51.425781 -34.824219 -56.777344 M -53.183594 -35.644531 C -48.515625 -41.015625 -43.847656 -46.386719 -34.824219 -56.777344 M -50.175781 -33.007812 C -40.429688 -44.238281 -30.683594 -55.449219 -21.953125 -65.46875 M -50.175781 -33.007812 C -43.535156 -40.644531 -36.914062 -48.261719 -21.953125 -65.46875 M -46.503906 -31.132812 C -38.652344 -40.175781 -30.78125 -49.21875 -9.765625 -73.417969 M -46.503906 -31.132812 C -37.441406 -41.5625 -28.398438 -51.972656 -9.765625 -73.417969 M -43.476562 -28.515625 C -31.035156 -42.832031 -18.59375 -57.148438 0.488281 -79.082031 M -43.476562 -28.515625 C -29.023438 -45.15625 -14.550781 -61.777344 0.488281 -79.082031 M -39.804688 -26.640625 C -29.941406 -38.007812 -20.078125 -49.355469 0.878906 -73.4375 M -39.804688 -26.640625 C -24.003906 -44.824219 -8.203125 -63.007812 0.878906 -73.4375 M -36.796875 -24.023438 C -26.835938 -35.488281 -16.875 -46.933594 0.605469 -67.050781 M -36.796875 -24.023438 C -25.683594 -36.796875 -14.589844 -49.550781 0.605469 -67.050781 M -33.105469 -22.167969 C -22.460938 -34.414062 -11.816406 -46.640625 0.996094 -61.40625 M -33.105469 -22.167969 C -19.785156 -37.480469 -6.445312 -52.832031 0.996094 -61.40625 M -30.097656 -19.53125 C -23.222656 -27.421875 -16.367188 -35.332031 0.742188 -55 M -30.097656 -19.53125 C -18.574219 -32.773438 -7.050781 -46.035156 0.742188 -55 M -26.425781 -17.65625 C -20.371094 -24.628906 -14.335938 -31.5625 0.488281 -48.613281 M -26.425781 -17.65625 C -20.664062 -24.277344 -14.921875 -30.878906 0.488281 -48.613281 M -23.398438 -15.039062 C -17.8125 -21.445312 -12.246094 -27.851562 0.878906 -42.96875 M -23.398438 -15.039062 C -17.460938 -21.875 -11.523438 -28.691406 0.878906 -42.96875 M -19.726562 -13.164062 C -12.949219 -20.957031 -6.171875 -28.730469 0.625 -36.5625 M -19.726562 -13.164062 C -14.296875 -19.414062 -8.867188 -25.644531 0.625 -36.5625 M -16.699219 -10.546875 C -11.132812 -16.953125 -5.566406 -23.359375 1.015625 -30.917969 M -16.699219 -10.546875 C -12.363281 -15.546875 -8.027344 -20.527344 1.015625 -30.917969 M -13.027344 -8.671875 C -8.359375 -14.042969 -3.691406 -19.414062 0.742188 -24.511719 M -13.027344 -8.671875 C -10.136719 -12.011719 -7.226562 -15.351562 0.742188 -24.511719 M -9.355469 -6.816406 C -6.855469 -9.6875 -4.335938 -12.578125 0.488281 -18.125 M -9.355469 -6.816406 C -5.800781 -10.878906 -2.265625 -14.960938 0.488281 -18.125 M -6.347656 -4.179688 C -4.21875 -6.621094 -2.070312 -9.082031 0.878906 -12.480469 M -6.347656 -4.179688 C -3.769531 -7.128906 -1.210938 -10.078125 0.878906 -12.480469 M -2.65625 -2.304688 C -1.425781 -3.730469 -0.195312 -5.15625 0.625 -6.09375 M -2.65625 -2.304688 C -1.914062 -3.164062 -1.191406 -4.003906 0.625 -6.09375 " transform="matrix(0.2, 0, 0, 0.2, 14, 18)"/>
<path fill="none" stroke-width="1" stroke-linecap="round" stroke-linejoin="miter" stroke="rgb(61.176471%, 21.176471%, 70.980392%)" stroke-opacity="1" stroke-miterlimit="4" d="M 0 0 C 0 -24.746094 0 -49.472656 0 -80 M 0 0 C 0 -18.164062 0 -36.347656 0 -80 M 0 -80 C -23.085938 -64.609375 -46.171875 -49.21875 -60 -40 M 0 -80 C -23.691406 -64.199219 -47.402344 -48.398438 -60 -40 M -60 -40 C -36.09375 -24.0625 -12.1875 -8.125 0 0 M -60 -40 C -40.214844 -26.796875 -20.410156 -13.613281 0 0 M 0 0 L 0 0 M 0 0 L 0 0 " transform="matrix(0.2, 0, 0, 0.2, 14, 18)"/>
</svg>
