<?xml version="1.0" encoding="UTF-8"?>
<svg xmlns="http://www.w3.org/2000/svg" xmlns:xlink="http://www.w3.org/1999/xlink" width="19.96223" height="20" viewBox="0 0 19.96223 20">
<path fill="none" stroke-width="4" stroke-linecap="round" stroke-linejoin="miter" stroke="rgb(9.803922%, 44.313725%, 76.078431%)" stroke-opacity="1" stroke-miterlimit="4" d="M 0.00431252 0.002321 C 11.823508 12.036767 23.642704 24.051645 38.886336 39.569231 M 0.00431252 0.002321 C 14.484784 14.756747 28.984824 29.491606 38.886336 39.569231 M 38.886336 39.569231 C 26.010457 52.523383 13.134578 65.457966 -1.111075 79.762324 M 38.886336 39.569231 C 30.824235 47.670468 22.762135 55.771705 -1.111075 79.762324 M -1.111075 79.762324 C 21.157542 79.703619 43.406591 79.664483 78.883746 79.566642 M -1.111075 79.762324 C 20.550928 79.703619 42.193362 79.664483 78.883746 79.566642 M 78.883746 79.566642 C 78.883746 51.623245 78.883746 23.660281 78.883746 -0.42818 M 78.883746 79.566642 C 78.883746 47.690036 78.883746 15.793862 78.883746 -0.42818 M 78.883746 -0.42818 C 47.574619 -0.252066 16.265491 -0.09552 0.00431252 0.002321 M 78.883746 -0.42818 C 49.766258 -0.271634 20.648769 -0.115088 0.00431252 0.002321 " transform="matrix(0.199622, 0, 0, 0.199622, 2.217889, 2.081568)"/>
</svg>
