<svg version="1.1" xmlns="http://www.w3.org/2000/svg" viewBox="0 0 140 100.28535731067274"
  width="32" height="20">
  <g stroke-linecap="round">
    <g transform="translate(10 10) rotate(0 60 40.14267865533637)" fill-rule="evenodd">
      <path
        d="M0 0 C0 0, 0 0, 0 0 M0 0 C0 0, 0 0, 0 0 M3.02 2.62 C3.48 2.09, 3.95 1.56, 4.99 0.36 M3.02 2.62 C3.76 1.77, 4.51 0.91, 4.99 0.36 M5.38 6 C6.52 4.69, 7.66 3.39, 10.63 -0.03 M5.38 6 C6.52 4.7, 7.65 3.39, 10.63 -0.03 M8.4 8.63 C11.1 5.52, 13.79 2.42, 15.62 0.33 M8.4 8.63 C10.08 6.7, 11.76 4.77, 15.62 0.33 M11.42 11.25 C15.09 7.03, 18.76 2.81, 21.26 -0.07 M11.42 11.25 C14.33 7.9, 17.24 4.56, 21.26 -0.07 M14.44 13.88 C18.83 8.83, 23.21 3.78, 26.25 0.29 M14.44 13.88 C17.98 9.8, 21.53 5.72, 26.25 0.29 M16.8 17.25 C21.46 11.9, 26.11 6.54, 31.89 -0.1 M16.8 17.25 C20.22 13.33, 23.63 9.4, 31.89 -0.1 M19.82 19.88 C24.86 14.08, 29.9 8.29, 36.88 0.26 M19.82 19.88 C24.91 14.02, 30 8.16, 36.88 0.26 M22.84 22.5 C28.87 15.57, 34.9 8.63, 42.52 -0.14 M22.84 22.5 C27.68 16.94, 32.51 11.38, 42.52 -0.14 M25.2 25.88 C33.44 16.4, 41.68 6.92, 47.51 0.22 M25.2 25.88 C31.01 19.2, 36.82 12.52, 47.51 0.22 M28.22 28.51 C34.62 21.14, 41.03 13.77, 53.15 -0.17 M28.22 28.51 C34.65 21.11, 41.09 13.71, 53.15 -0.17 M31.24 31.13 C38.65 22.6, 46.07 14.07, 58.14 0.19 M31.24 31.13 C37.6 23.82, 43.96 16.5, 58.14 0.19 M34.26 33.75 C44.84 21.58, 55.42 9.41, 63.78 -0.21 M34.26 33.75 C44.14 22.38, 54.03 11.01, 63.78 -0.21 M36.62 37.13 C44.78 27.75, 52.94 18.36, 68.77 0.15 M36.62 37.13 C49.29 22.56, 61.96 7.98, 68.77 0.15 M4.21 80.51 C9.2 74.77, 14.19 69.03, 27.17 54.1 M4.21 80.51 C9.15 74.83, 14.09 69.15, 27.17 54.1 M39.64 39.76 C46.65 31.7, 53.65 23.64, 74.41 -0.24 M39.64 39.76 C50.71 27.02, 61.78 14.29, 74.41 -0.24 M9.2 80.87 C33.58 52.83, 57.96 24.78, 79.4 0.12 M9.2 80.87 C23.54 64.37, 37.89 47.87, 79.4 0.12 M14.84 80.48 C40.12 51.4, 65.4 22.32, 82.42 2.74 M14.84 80.48 C35.88 56.28, 56.92 32.07, 82.42 2.74 M19.83 80.84 C37.57 60.43, 55.31 40.02, 85.44 5.37 M19.83 80.84 C37.93 60.01, 56.04 39.18, 85.44 5.37 M25.47 80.44 C43.41 59.81, 61.34 39.18, 88.45 7.99 M25.47 80.44 C43.87 59.28, 62.26 38.12, 88.45 7.99 M30.46 80.8 C43.51 65.8, 56.55 50.79, 90.82 11.37 M30.46 80.8 C52.81 55.1, 75.15 29.39, 90.82 11.37 M36.1 80.41 C47.92 66.82, 59.73 53.23, 93.84 13.99 M36.1 80.41 C53.25 60.68, 70.4 40.95, 93.84 13.99 M41.09 80.77 C53.47 66.53, 65.85 52.29, 96.85 16.62 M41.09 80.77 C57.52 61.87, 73.95 42.97, 96.85 16.62 M46.73 80.37 C60.68 64.33, 74.62 48.29, 99.87 19.24 M46.73 80.37 C66.92 57.15, 87.1 33.93, 99.87 19.24 M51.72 80.73 C63.5 67.19, 75.27 53.64, 102.24 22.62 M51.72 80.73 C63.03 67.73, 74.33 54.72, 102.24 22.62 M57.36 80.34 C73.88 61.34, 90.39 42.34, 105.26 25.25 M57.36 80.34 C72.27 63.19, 87.17 46.05, 105.26 25.25 M62.35 80.7 C71.66 69.99, 80.96 59.29, 108.27 27.87 M62.35 80.7 C80.71 59.58, 99.06 38.47, 108.27 27.87 M67.99 80.31 C84.89 60.86, 101.8 41.42, 110.64 31.25 M67.99 80.31 C79.9 66.61, 91.8 52.91, 110.64 31.25 M72.98 80.67 C88.9 62.35, 104.82 44.04, 113.66 33.87 M72.98 80.67 C82.39 69.84, 91.8 59.02, 113.66 33.87 M78.62 80.27 C90.77 66.3, 102.92 52.33, 116.67 36.5 M78.62 80.27 C93.42 63.25, 108.21 46.23, 116.67 36.5 M110.51 49.69 C112.97 46.86, 115.43 44.02, 119.69 39.12 M110.51 49.69 C114.14 45.52, 117.76 41.34, 119.69 39.12"
        stroke="#e9ecef" stroke-width="0.5" fill="none"></path>
      <path
        d="M0 0 C11.09 11.09, 22.19 22.19, 40 40 M0 0 C11.47 11.47, 22.95 22.95, 40 40 M40 40 C32.02 48.24, 24.04 56.48, 0.99 80.29 M40 40 C31.38 48.9, 22.76 57.8, 0.99 80.29 M0.99 80.29 C31.3 80.18, 61.61 80.07, 80 80 M0.99 80.29 C16.84 80.23, 32.68 80.17, 80 80 M80 80 C88.57 71.43, 97.14 62.86, 120 40 M80 80 C88.91 71.09, 97.82 62.18, 120 40 M120 40 C109.5 29.5, 99.01 19.01, 80 0 M120 40 C110.56 30.56, 101.12 21.12, 80 0 M80 0 C51.95 0, 23.91 0, 0 0 M80 0 C48.08 0, 16.15 0, 0 0 M0 0 C0 0, 0 0, 0 0 M0 0 C0 0, 0 0, 0 0"
        stroke="#868e96" stroke-width="1" fill="none"></path>
    </g>
  </g>
  <mask></mask>
</svg>