<svg version="1.1" xmlns="http://www.w3.org/2000/svg" viewBox="0 0 140 100.18920546590948"
  width="32" height="20">
  <g stroke-linecap="round">
    <g
      transform="translate(11.110427776208269 10.427531790156763) rotate(0 58.88957222379173 39.66707094279798)"
      fill-rule="evenodd">
      <path
        d="M0 0 C0 0, 0 0, 0 0 M0 0 C0 0, 0 0, 0 0 M3.02 2.62 C4.04 1.45, 5.05 0.28, 5.64 -0.39 M3.02 2.62 C4.01 1.48, 5 0.35, 5.64 -0.39 M5.38 6 C6.73 4.45, 8.08 2.9, 10.63 -0.03 M5.38 6 C6.53 4.69, 7.67 3.37, 10.63 -0.03 M8.4 8.63 C10.89 5.76, 13.38 2.9, 16.27 -0.43 M8.4 8.63 C10.22 6.53, 12.04 4.44, 16.27 -0.43 M11.42 11.25 C15.02 7.11, 18.62 2.97, 21.26 -0.07 M11.42 11.25 C15.12 7, 18.82 2.74, 21.26 -0.07 M13.78 14.63 C16.92 11.02, 20.06 7.41, 26.9 -0.46 M13.78 14.63 C16.85 11.1, 19.92 7.57, 26.9 -0.46 M16.8 17.25 C22.33 10.89, 27.86 4.53, 31.89 -0.1 M16.8 17.25 C21.33 12.05, 25.85 6.84, 31.89 -0.1 M19.82 19.88 C23.91 15.17, 28 10.46, 37.53 -0.5 M19.82 19.88 C26.41 12.3, 33.01 4.71, 37.53 -0.5 M22.18 23.26 C28.89 15.54, 35.6 7.82, 42.52 -0.14 M22.18 23.26 C27.13 17.57, 32.08 11.88, 42.52 -0.14 M25.2 25.88 C30.56 19.71, 35.92 13.55, 48.16 -0.53 M25.2 25.88 C31.87 18.21, 38.54 10.54, 48.16 -0.53 M28.22 28.51 C36.8 18.64, 45.37 8.77, 53.15 -0.17 M28.22 28.51 C37.36 17.99, 46.51 7.47, 53.15 -0.17 M30.58 31.89 C40.62 20.34, 50.65 8.8, 58.79 -0.57 M30.58 31.89 C41.61 19.2, 52.64 6.51, 58.79 -0.57 M33.6 34.51 C40.06 27.09, 46.51 19.66, 63.78 -0.21 M33.6 34.51 C40.82 26.21, 48.03 17.91, 63.78 -0.21 M-0.77 80.15 C-0.77 80.15, -0.77 80.15, -0.77 80.15 M-0.77 80.15 C-0.77 80.15, -0.77 80.15, -0.77 80.15 M36.62 37.13 C48.49 23.48, 60.36 9.83, 69.42 -0.6 M36.62 37.13 C47.67 24.43, 58.71 11.72, 69.42 -0.6 M4.87 79.76 C20.99 61.21, 37.11 42.66, 74.41 -0.24 M4.87 79.76 C28.31 52.79, 51.76 25.82, 74.41 -0.24 M9.86 80.12 C32.84 53.68, 55.82 27.24, 80.05 -0.64 M9.86 80.12 C34.01 52.33, 58.16 24.55, 80.05 -0.64 M15.5 79.72 C39.12 52.55, 62.75 25.37, 85.04 -0.28 M15.5 79.72 C34.71 57.62, 53.93 35.52, 85.04 -0.28 M20.49 80.08 C39.25 58.5, 58.02 36.91, 90.68 -0.67 M20.49 80.08 C38.25 59.64, 56.02 39.2, 90.68 -0.67 M26.13 79.69 C45.29 57.65, 64.45 35.61, 95.67 -0.31 M26.13 79.69 C52.9 48.89, 79.67 18.1, 95.67 -0.31 M31.12 80.05 C49.05 59.41, 66.99 38.78, 101.31 -0.71 M31.12 80.05 C49.64 58.74, 68.16 37.43, 101.31 -0.71 M36.1 80.41 C56.05 57.46, 76 34.51, 106.3 -0.34 M36.1 80.41 C60.98 51.79, 85.86 23.17, 106.3 -0.34 M41.75 80.01 C68.64 49.08, 95.52 18.15, 111.94 -0.74 M41.75 80.01 C61.68 57.08, 81.62 34.14, 111.94 -0.74 M46.73 80.37 C73.26 49.85, 99.79 19.33, 116.93 -0.38 M46.73 80.37 C63.15 61.49, 79.56 42.61, 116.93 -0.38 M52.38 79.98 C69.65 60.1, 86.93 40.23, 119.29 3 M52.38 79.98 C67.71 62.34, 83.05 44.7, 119.29 3 M57.36 80.34 C71.93 63.59, 86.49 46.83, 119.03 9.4 M57.36 80.34 C77.73 56.91, 98.09 33.49, 119.03 9.4 M63.01 79.95 C80.29 60.06, 97.58 40.17, 119.43 15.04 M63.01 79.95 C81.21 59, 99.41 38.06, 119.43 15.04 M67.99 80.31 C83.62 62.33, 99.25 44.35, 119.17 21.44 M67.99 80.31 C83.77 62.16, 99.54 44.01, 119.17 21.44 M73.64 79.91 C86.05 65.63, 98.47 51.34, 119.56 27.08 M73.64 79.91 C91.8 59.01, 109.97 38.11, 119.56 27.08 M78.62 80.27 C90.8 66.26, 102.98 52.26, 119.3 33.48 M78.62 80.27 C90.44 66.67, 102.26 53.07, 119.3 33.48 M84.27 79.88 C95.04 67.48, 105.82 55.08, 119.04 39.88 M84.27 79.88 C97.73 64.39, 111.19 48.91, 119.04 39.88 M89.25 80.24 C98.28 69.86, 107.3 59.48, 119.43 45.52 M89.25 80.24 C100.05 67.82, 110.84 55.4, 119.43 45.52 M94.9 79.84 C102.23 71.41, 109.56 62.97, 119.17 51.92 M94.9 79.84 C100.82 73.03, 106.74 66.22, 119.17 51.92 M99.88 80.2 C104.85 74.49, 109.82 68.77, 119.56 57.56 M99.88 80.2 C104.76 74.6, 109.63 68.99, 119.56 57.56 M105.53 79.81 C110.22 74.4, 114.92 69, 119.3 63.96 M105.53 79.81 C108.57 76.31, 111.61 72.81, 119.3 63.96 M110.51 80.17 C112.86 77.47, 115.21 74.77, 119.04 70.36 M110.51 80.17 C112.7 77.65, 114.89 75.14, 119.04 70.36 M116.16 79.77 C116.94 78.87, 117.72 77.98, 119.44 76 M116.16 79.77 C117.4 78.34, 118.65 76.91, 119.44 76"
        stroke="#e9ecef" stroke-width="0.5" fill="none"></path>
      <path
        d="M0 0 C12.68 12.96, 25.36 25.93, 38.89 39.76 M0 0 C14.08 14.4, 28.16 28.79, 38.89 39.76 M38.89 39.76 C25.77 52.88, 12.66 65.99, -1.11 79.76 M38.89 39.76 C30.48 48.17, 22.07 56.58, -1.11 79.76 M-1.11 79.76 C38.66 79.7, 78.43 79.64, 118.89 79.57 M-1.11 79.76 C38.38 79.7, 77.87 79.64, 118.89 79.57 M118.89 79.57 C118.89 51.56, 118.89 23.54, 118.89 -0.43 M118.89 79.57 C118.89 58.85, 118.89 38.13, 118.89 -0.43 M118.89 -0.43 C81.14 -0.29, 43.4 -0.16, 0 0 M118.89 -0.43 C79.86 -0.29, 40.83 -0.15, 0 0 M0 0 C0 0, 0 0, 0 0 M0 0 C0 0, 0 0, 0 0"
        stroke="#868e96" stroke-width="1" fill="none"></path>
    </g>
  </g>
  <mask></mask>
</svg>