<?xml version="1.0" encoding="UTF-8"?>
<svg xmlns="http://www.w3.org/2000/svg" xmlns:xlink="http://www.w3.org/1999/xlink" width="20" height="20" viewBox="0 0 20 20">
<path fill="none" stroke-width="0.5" stroke-linecap="round" stroke-linejoin="miter" stroke="rgb(91.372549%, 92.54902%, 93.72549%)" stroke-opacity="1" stroke-miterlimit="4" d="M 0 0 L 0 0 M 0 0 L 0 0 M -0.253906 6.40625 C 0.996094 4.941406 2.265625 3.496094 4.980469 0.351562 M -0.253906 6.40625 C 0.878906 5.078125 2.03125 3.769531 4.980469 0.351562 M 0.136719 12.03125 C 3.105469 8.613281 6.09375 5.175781 10.625 -0.0390625 M 0.136719 12.03125 C 3.417969 8.28125 6.679688 4.511719 10.625 -0.0390625 M -0.136719 18.4375 C 3.769531 13.945312 7.675781 9.453125 15.625 0.332031 M -0.136719 18.4375 C 5.195312 12.304688 10.527344 6.191406 15.625 0.332031 M 0.273438 24.082031 C 7.8125 15.390625 15.351562 6.71875 21.269531 -0.078125 M 0.273438 24.082031 C 5.839844 17.675781 11.40625 11.269531 21.269531 -0.078125 M 0 30.488281 C 8.671875 20.507812 17.324219 10.546875 26.25 0.292969 M 0 30.488281 C 5.976562 23.613281 11.953125 16.738281 26.25 0.292969 M -0.253906 36.875 C 7.96875 27.421875 16.171875 17.988281 31.894531 -0.0976562 M -0.253906 36.875 C 6.953125 28.574219 14.179688 20.273438 31.894531 -0.0976562 M 0.136719 42.519531 C 11.738281 29.199219 23.300781 15.859375 36.875 0.253906 M 0.136719 42.519531 C 8.261719 33.164062 16.40625 23.808594 36.875 0.253906 M -0.117188 48.925781 C 11.210938 35.878906 22.558594 22.832031 41.210938 1.367188 M -0.117188 48.925781 C 10.175781 37.070312 20.488281 25.214844 41.210938 1.367188 M 0.273438 54.550781 C 17.011719 35.292969 33.75 16.054688 44.238281 4.003906 M 0.273438 54.550781 C 13.652344 39.160156 27.050781 23.75 44.238281 4.003906 M 0.0195312 60.957031 C 12.675781 46.386719 25.351562 31.816406 47.246094 6.621094 M 0.0195312 60.957031 C 11.816406 47.382812 23.613281 33.808594 47.246094 6.621094 M -0.253906 67.363281 C 12.402344 52.792969 25.058594 38.242188 49.609375 10 M -0.253906 67.363281 C 15.332031 49.433594 30.917969 31.503906 49.609375 10 M 0.136719 73.007812 C 12.714844 58.535156 25.292969 44.0625 52.636719 12.617188 M 0.136719 73.007812 C 20.429688 49.667969 40.703125 26.347656 52.636719 12.617188 M -0.117188 79.394531 C 11.699219 65.820312 23.496094 52.226562 55.644531 15.253906 M -0.117188 79.394531 C 18.300781 58.203125 36.738281 37.011719 55.644531 15.253906 M 4.21875 80.507812 C 22.558594 59.414062 40.878906 38.320312 58.007812 18.632812 M 4.21875 80.507812 C 18.691406 63.867188 33.164062 47.207031 58.007812 18.632812 M 9.863281 80.117188 C 24.277344 63.535156 38.691406 46.933594 61.035156 21.25 M 9.863281 80.117188 C 24.863281 62.851562 39.84375 45.605469 61.035156 21.25 M 14.84375 80.488281 C 28.320312 64.960938 41.835938 49.433594 64.042969 23.867188 M 14.84375 80.488281 C 32.460938 60.195312 50.097656 39.921875 64.042969 23.867188 M 20.488281 80.078125 C 31.738281 67.148438 42.988281 54.199219 67.070312 26.503906 M 20.488281 80.078125 C 38.476562 59.394531 56.445312 38.710938 67.070312 26.503906 M 25.46875 80.449219 C 38.300781 65.664062 51.152344 50.898438 69.433594 29.882812 M 25.46875 80.449219 C 41.464844 62.050781 57.441406 43.652344 69.433594 29.882812 M 31.113281 80.058594 C 40.136719 69.667969 49.160156 59.296875 72.441406 32.5 M 31.113281 80.058594 C 41.210938 68.4375 51.308594 56.835938 72.441406 32.5 M 36.09375 80.410156 C 51.71875 62.441406 67.34375 44.472656 75.46875 35.136719 M 36.09375 80.410156 C 45.78125 69.277344 55.46875 58.144531 75.46875 35.136719 M 50.273438 70.195312 C 58.4375 60.820312 66.582031 51.425781 78.476562 37.753906 M 50.273438 70.195312 C 60.234375 58.75 70.175781 47.304688 78.476562 37.753906 " transform="matrix(0.2, 0, 0, 0.2, 2, 2)"/>
<path fill="none" stroke-width="1" stroke-linecap="round" stroke-linejoin="miter" stroke="rgb(9.803922%, 44.313725%, 76.078431%)" stroke-opacity="1" stroke-miterlimit="4" d="M 0 0 C 0 31.132812 0 62.285156 0 80 M 0 0 C 0 23.984375 0 47.988281 0 80 M 0 80 C 10.019531 80 20.019531 80 40 80 M 0 80 C 10.839844 80 21.679688 80 40 80 M 40 80 C 48.261719 71.738281 56.523438 63.476562 80 40 M 40 80 C 49.316406 70.683594 58.632812 61.367188 80 40 M 80 40 C 68.222656 28.222656 56.445312 16.445312 40 0 M 80 40 C 64.21875 24.21875 48.4375 8.4375 40 0 M 40 0 C 26.601562 0 13.222656 0 0 0 M 40 0 C 30.761719 0 21.542969 0 0 0 M 0 0 L 0 0 M 0 0 L 0 0 " transform="matrix(0.2, 0, 0, 0.2, 2, 2)"/>
</svg>
