<?xml version="1.0" encoding="UTF-8"?>
<svg xmlns="http://www.w3.org/2000/svg" xmlns:xlink="http://www.w3.org/1999/xlink" width="20" height="20" viewBox="0 0 20 20">
<path fill="none" stroke-width="4" stroke-linecap="round" stroke-linejoin="miter" stroke="rgb(9.803922%, 44.313725%, 76.078431%)" stroke-opacity="1" stroke-miterlimit="4" d="M 0 0 C 0 28.261719 0 56.523438 0 80 M 0 0 C 0 17.441406 0 34.882812 0 80 M 0 80 C 9.902344 80 19.804688 80 40 80 M 0 80 C 15.917969 80 31.855469 80 40 80 M 40 80 C 51.113281 68.886719 62.226562 57.773438 80 40 M 40 80 C 51.132812 68.867188 62.265625 57.734375 80 40 M 80 40 C 64.785156 24.785156 49.570312 9.570312 40 0 M 80 40 C 65.292969 25.292969 50.605469 10.605469 40 0 M 40 0 C 28.964844 0 17.949219 0 0 0 M 40 0 C 30.371094 0 20.742188 0 0 0 " transform="matrix(0.2, 0, 0, 0.2, 2, 2)"/>
</svg>
