<?xml version="1.0" encoding="UTF-8"?>
<svg xmlns="http://www.w3.org/2000/svg" xmlns:xlink="http://www.w3.org/1999/xlink" width="23.931709" height="20" viewBox="0 0 23.931709 20">
<path fill="none" stroke-width="4" stroke-linecap="round" stroke-linejoin="miter" stroke="rgb(9.803922%, 44.313725%, 76.078431%)" stroke-opacity="1" stroke-miterlimit="4" d="M 0.00894899 0.00894644 C 11.976596 11.976594 23.963831 23.963828 40.005571 40.005568 M 0.00894899 0.00894644 C 10.958073 10.958071 21.907197 21.907195 40.005571 40.005568 M 40.005571 40.005568 C 28.664707 51.718585 17.323843 63.412015 0.988298 80.295995 M 40.005571 40.005568 C 28.429663 51.953629 16.853755 63.882102 0.988298 80.295995 M 0.988298 80.295995 C 16.031102 80.217647 31.093493 80.139299 60.003882 80.00219 M 0.988298 80.295995 C 16.912516 80.217647 32.856322 80.139299 60.003882 80.00219 M 60.003882 80.00219 C 74.948751 65.057321 89.913207 50.092865 100.000504 40.005568 M 60.003882 80.00219 C 71.697312 68.308761 83.410328 56.595744 100.000504 40.005568 M 100.000504 40.005568 C 84.252569 24.257633 68.504633 8.509698 60.003882 0.00894644 M 100.000504 40.005568 C 90.109077 30.094554 80.198063 20.203127 60.003882 0.00894644 M 60.003882 0.00894644 C 40.397311 0.00894644 20.790739 0.00894644 0.00894899 0.00894644 M 60.003882 0.00894644 C 41.866334 0.00894644 23.7092 0.00894644 0.00894899 0.00894644 " transform="matrix(0.199431, 0, 0, 0.199431, 1.994309, 1.99431)"/>
</svg>
