<?xml version="1.0" encoding="UTF-8"?>
<svg xmlns="http://www.w3.org/2000/svg" xmlns:xlink="http://www.w3.org/1999/xlink" width="16" height="20" viewBox="0 0 16 20">
<path fill="none" stroke-width="0.5" stroke-linecap="round" stroke-linejoin="miter" stroke="rgb(91.372549%, 92.54902%, 93.72549%)" stroke-opacity="1" stroke-miterlimit="4" d="M -0.253906 -79.726562 L -0.253906 -79.726562 M -0.253906 -79.726562 L -0.253906 -79.726562 M 0.15625 -74.0625 C 1.09375 -75.15625 2.03125 -76.25 3.4375 -77.851562 M 0.15625 -74.0625 C 1.308594 -75.410156 2.460938 -76.757812 3.4375 -77.851562 M -0.117188 -67.675781 C 1.582031 -69.628906 3.28125 -71.582031 6.445312 -75.214844 M -0.117188 -67.675781 C 2.5 -70.683594 5.097656 -73.671875 6.445312 -75.214844 M 0.273438 -62.03125 C 3.90625 -66.210938 7.539062 -70.390625 10.117188 -73.359375 M 0.273438 -62.03125 C 2.402344 -64.472656 4.53125 -66.933594 10.117188 -73.359375 M 0.0195312 -55.625 C 4.863281 -61.191406 9.707031 -66.777344 13.144531 -70.722656 M 0.0195312 -55.625 C 3.164062 -59.257812 6.308594 -62.871094 13.144531 -70.722656 M -0.234375 -49.238281 C 6.113281 -56.5625 12.480469 -63.886719 16.816406 -68.867188 M -0.234375 -49.238281 C 4.570312 -54.785156 9.394531 -60.3125 16.816406 -68.867188 M 0.15625 -43.59375 C 7.304688 -51.816406 14.453125 -60.058594 19.824219 -66.230469 M 0.15625 -43.59375 C 4.941406 -49.101562 9.726562 -54.609375 19.824219 -66.230469 M -0.117188 -37.207031 C 6.640625 -44.960938 13.398438 -52.714844 23.515625 -64.355469 M -0.117188 -37.207031 C 4.726562 -42.753906 9.570312 -48.320312 23.515625 -64.355469 M 0.292969 -31.542969 C 9.53125 -42.207031 18.789062 -52.832031 26.523438 -61.738281 M 0.292969 -31.542969 C 9.082031 -41.679688 17.890625 -51.796875 26.523438 -61.738281 M 0.0195312 -25.15625 C 10.332031 -37.011719 20.644531 -48.886719 30.195312 -59.863281 M 0.0195312 -25.15625 C 11.679688 -38.554688 23.339844 -51.972656 30.195312 -59.863281 M -0.234375 -18.769531 C 9.882812 -30.390625 19.980469 -42.03125 33.886719 -58.007812 M -0.234375 -18.769531 C 13.203125 -34.21875 26.621094 -49.667969 33.886719 -58.007812 M 0.15625 -13.105469 C 8.476562 -22.675781 16.777344 -32.226562 36.894531 -55.371094 M 0.15625 -13.105469 C 14.0625 -29.101562 27.96875 -45.117188 36.894531 -55.371094 M -0.0976562 -6.71875 C 8.242188 -16.328125 16.601562 -25.9375 40.566406 -53.515625 M -0.0976562 -6.71875 C 9.882812 -18.203125 19.882812 -29.707031 40.566406 -53.515625 M 0.292969 -1.074219 C 12.167969 -14.746094 24.042969 -28.398438 43.59375 -50.878906 M 0.292969 -1.074219 C 12.597656 -15.234375 24.902344 -29.394531 43.59375 -50.878906 M 9.863281 -5.996094 C 22.558594 -20.585938 35.234375 -35.175781 47.265625 -49.003906 M 9.863281 -5.996094 C 19.902344 -17.539062 29.941406 -29.082031 47.265625 -49.003906 M 22.734375 -14.6875 C 30.214844 -23.300781 37.695312 -31.894531 50.273438 -46.386719 M 22.734375 -14.6875 C 32.539062 -25.976562 42.34375 -37.246094 50.273438 -46.386719 M 34.921875 -22.636719 C 38.90625 -27.1875 42.851562 -31.757812 53.964844 -44.511719 M 34.921875 -22.636719 C 42.34375 -31.152344 49.746094 -39.667969 53.964844 -44.511719 M 47.792969 -31.328125 C 50.117188 -34.003906 52.421875 -36.679688 56.972656 -41.894531 M 47.792969 -31.328125 C 51.425781 -35.507812 55.058594 -39.6875 56.972656 -41.894531 " transform="matrix(0.2, 0, 0, 0.2, 2, 18)"/>
<path fill="none" stroke-width="1" stroke-linecap="round" stroke-linejoin="miter" stroke="rgb(18.431373%, 61.960784%, 26.666667%)" stroke-opacity="1" stroke-miterlimit="4" d="M 0 0 C 0 -22.65625 0 -45.332031 0 -80 M 0 0 C 0 -17.363281 0 -34.746094 0 -80 M 0 -80 C 12.265625 -71.816406 24.53125 -63.652344 60 -40 M 0 -80 C 22.96875 -64.6875 45.917969 -49.394531 60 -40 M 60 -40 C 41.933594 -27.96875 23.867188 -15.917969 0 0 M 60 -40 C 45.664062 -30.449219 31.347656 -20.898438 0 0 M 0 0 L 0 0 M 0 0 L 0 0 " transform="matrix(0.2, 0, 0, 0.2, 2, 18)"/>
</svg>
