<?xml version="1.0" encoding="UTF-8"?>
<svg xmlns="http://www.w3.org/2000/svg" xmlns:xlink="http://www.w3.org/1999/xlink" width="19.96223" height="20" viewBox="0 0 19.96223 20">
<path fill="none" stroke-width="0.5" stroke-linecap="round" stroke-linejoin="miter" stroke="rgb(91.372549%, 92.54902%, 93.72549%)" stroke-opacity="1" stroke-miterlimit="4" d="M 0.00431252 0.002321 L 0.00431252 0.002321 M 0.00431252 0.002321 L 0.00431252 0.002321 M 3.017816 2.62446 C 4.035363 1.450368 5.052909 0.276276 5.639956 -0.389043 M 3.017816 2.62446 C 4.015795 1.489505 4.994205 0.354549 5.639956 -0.389043 M 5.385569 6.00976 C 6.735775 4.444304 8.085981 2.898415 10.629848 -0.0368154 M 5.385569 6.00976 C 6.520525 4.69869 7.675049 3.368052 10.629848 -0.0368154 M 8.399072 8.631899 C 10.884234 5.755373 13.388965 2.898415 16.265491 -0.42818 M 8.399072 8.631899 C 10.218915 6.538101 12.038759 4.444304 16.265491 -0.42818 M 11.412576 11.254039 C 15.013126 7.105579 18.613675 2.976688 21.255383 -0.0759518 M 11.412576 11.254039 C 15.110967 7.007738 18.828926 2.74187 21.255383 -0.0759518 M 13.780329 14.639338 C 16.911242 11.01922 20.061723 7.418671 26.891026 -0.467316 M 13.780329 14.639338 C 16.852537 11.097493 19.924745 7.575216 26.891026 -0.467316 M 16.793832 17.24191 C 22.331634 10.882243 27.869436 4.522576 31.880918 -0.09552 M 16.793832 17.24191 C 21.333656 12.056335 25.853911 6.831625 31.880918 -0.09552 M 19.826904 19.883617 C 23.916659 15.16768 28.006414 10.451742 37.536129 -0.506452 M 19.826904 19.883617 C 26.401821 12.291154 33.015874 4.718258 37.536129 -0.506452 M 22.175089 23.268917 C 28.886983 15.539476 35.598877 7.829603 42.526022 -0.134656 M 22.175089 23.268917 C 27.125844 17.574569 32.0766 11.880221 42.526022 -0.134656 M 25.20816 25.871488 C 30.55028 19.707503 35.911968 13.543519 48.161665 -0.526021 M 25.20816 25.871488 C 31.86135 18.200752 38.534108 10.549583 48.161665 -0.526021 M 28.221664 28.513196 C 36.792538 18.631252 45.363411 8.768877 53.151557 -0.173793 M 28.221664 28.513196 C 37.360016 17.985501 46.517936 7.477375 53.151557 -0.173793 M 31.235168 31.135335 C 41.038838 19.844481 50.842509 8.573195 58.7872 -0.565157 M 31.235168 31.135335 C 42.017248 18.748661 52.799329 6.342419 58.7872 -0.565157 M 33.60292 34.501066 C 40.060428 27.084717 46.517936 19.668367 63.777092 -0.212929 M 33.60292 34.501066 C 40.823588 26.204147 48.024687 17.907228 63.777092 -0.212929 M -0.778416 80.153688 L -0.778416 80.153688 M -0.778416 80.153688 L -0.778416 80.153688 M 36.616424 37.123206 C 48.494324 23.484167 60.352656 9.82556 69.412735 -0.604293 M 36.616424 37.123206 C 47.67246 24.423441 58.708927 11.723676 69.412735 -0.604293 M 4.876796 79.762324 C 20.981428 61.211666 37.105629 42.661008 74.402627 -0.232497 M 4.876796 79.762324 C 28.319505 52.797338 51.762214 25.812783 74.402627 -0.232497 M 9.866688 80.114552 C 32.62451 53.932294 55.382332 27.730467 79.39252 0.11973 M 9.866688 80.114552 C 33.779034 52.582088 57.710949 25.069191 79.39252 0.11973 M 15.502331 79.723188 C 37.125197 54.851999 58.748064 29.980811 79.138133 6.518533 M 15.502331 79.723188 C 33.074579 59.509232 50.666395 39.275708 79.138133 6.518533 M 20.492223 80.075415 C 36.264196 61.935689 52.055737 43.776395 79.529497 12.154176 M 20.492223 80.075415 C 35.422763 62.894531 50.372872 45.694079 79.529497 12.154176 M 26.127866 79.684051 C 40.764883 62.855395 55.401901 46.007171 79.27511 18.552979 M 26.127866 79.684051 C 46.57664 56.163069 67.044982 32.622519 79.27511 18.552979 M 31.117758 80.055847 C 43.524 65.771058 55.930242 51.505836 79.666475 24.20819 M 31.117758 80.055847 C 43.934932 65.301421 56.732538 50.586131 79.666475 24.20819 M 36.753401 79.644915 C 48.885688 65.712353 60.998407 51.760223 79.39252 30.606993 M 36.753401 79.644915 C 51.879624 62.268349 66.986278 44.872215 79.39252 30.606993 M 41.743294 80.016711 C 56.067219 63.540282 70.391145 47.063854 79.138133 37.005796 M 41.743294 80.016711 C 52.368829 67.806151 62.994364 55.576023 79.138133 37.005796 M 47.398505 79.625347 C 59.530792 65.63408 71.682647 51.662382 79.549065 42.641439 M 47.398505 79.625347 C 54.912695 70.9762 62.426886 62.327054 79.549065 42.641439 M 52.388397 79.977574 C 59.315542 71.993747 66.262254 63.990351 79.27511 49.040242 M 52.388397 79.977574 C 58.532813 72.893884 64.696798 65.790626 79.27511 49.040242 M 58.02404 79.58621 C 63.131341 73.696181 68.238643 67.825719 79.666475 54.675885 M 58.02404 79.58621 C 65.166435 71.367564 72.328398 63.148918 79.666475 54.675885 M 63.013932 79.958006 C 68.023393 74.165817 73.052421 68.373629 79.412088 61.074688 M 63.013932 79.958006 C 68.297348 73.852726 73.580763 67.767015 79.412088 61.074688 M 67.984256 80.310234 C 71.408692 76.396593 74.793992 72.463384 79.157701 67.473491 M 67.984256 80.310234 C 71.42826 76.357456 74.872264 72.404679 79.157701 67.473491 M 73.639467 79.91887 C 75.224492 78.079458 76.829085 76.240047 79.549065 73.128703 M 73.639467 79.91887 C 75.968084 77.218457 78.316268 74.537613 79.549065 73.128703 " transform="matrix(0.199622, 0, 0, 0.199622, 2.217889, 2.081568)"/>
<path fill="none" stroke-width="1" stroke-linecap="round" stroke-linejoin="miter" stroke="rgb(9.803922%, 44.313725%, 76.078431%)" stroke-opacity="1" stroke-miterlimit="4" d="M 0.00431252 0.002321 C 12.684509 12.897768 25.364706 25.793215 38.886336 39.569231 M 0.00431252 0.002321 C 14.073852 14.326247 28.162959 28.669741 38.886336 39.569231 M 38.886336 39.569231 C 25.775638 52.758201 12.664941 65.927603 -1.111075 79.762324 M 38.886336 39.569231 C 30.472008 48.022696 22.077248 56.47616 -1.111075 79.762324 M -1.111075 79.762324 C 25.403842 79.703619 51.91876 79.644915 78.883746 79.566642 M -1.111075 79.762324 C 25.227729 79.703619 51.546964 79.644915 78.883746 79.566642 M 78.883746 79.566642 C 78.883746 51.564541 78.883746 23.542871 78.883746 -0.42818 M 78.883746 79.566642 C 78.883746 58.843913 78.883746 38.121184 78.883746 -0.42818 M 78.883746 -0.42818 C 53.836444 -0.291202 28.80871 -0.154225 0.00431252 0.002321 M 78.883746 -0.42818 C 52.995011 -0.291202 27.106276 -0.154225 0.00431252 0.002321 M 0.00431252 0.002321 L 0.00431252 0.002321 M 0.00431252 0.002321 L 0.00431252 0.002321 " transform="matrix(0.199622, 0, 0, 0.199622, 2.217889, 2.081568)"/>
</svg>
