<svg version="1.1" xmlns="http://www.w3.org/2000/svg" viewBox="0 0 140 100" width="420" height="300">
  <!-- svg-source:excalidraw -->
  
  <defs>
    <style class="style-fonts">
      @font-face {
        font-family: "Virgil";
        src: url("https://excalidraw.com/Virgil.woff2");
      }
      @font-face {
        font-family: "Cascadia";
        src: url("https://excalidraw.com/Cascadia.woff2");
      }
      @font-face {
        font-family: "Assistant";
        src: url("https://app.excalidraw.com//dist/excalidraw-assets/Assistant-Regular.woff2");
      }
    </style>
    
  </defs>
  <g stroke-linecap="round"><g transform="translate(10 90) rotate(0 60 -40)" fill-rule="evenodd"><path d="M0 0 L120 0 L120 -80 L0 -80 L40 -40 L0 0" stroke="none" stroke-width="0" fill="#e9ecef" fill-rule="evenodd"></path><path d="M0 0 C37.38 0, 74.76 0, 120 0 M0 0 C28.38 0, 56.77 0, 120 0 M120 0 C120 -18.07, 120 -36.13, 120 -80 M120 0 C120 -17.28, 120 -34.57, 120 -80 M120 -80 C92.16 -80, 64.32 -80, 0 -80 M120 -80 C75.49 -80, 30.98 -80, 0 -80 M0 -80 C15.01 -64.99, 30.03 -49.97, 40 -40 M0 -80 C10.65 -69.35, 21.31 -58.69, 40 -40 M40 -40 C27.15 -27.15, 14.3 -14.3, 0 0 M40 -40 C27.9 -27.9, 15.8 -15.8, 0 0 M0 0 C0 0, 0 0, 0 0 M0 0 C0 0, 0 0, 0 0" stroke="#1e1e1e" stroke-width="4" fill="none"></path></g></g><mask></mask></svg>