<svg version="1.1" xmlns="http://www.w3.org/2000/svg" viewBox="0 0 140 100" width="420" height="300">
  <!-- svg-source:excalidraw -->
  
  <defs>
    <style class="style-fonts">
      @font-face {
        font-family: "Virgil";
        src: url("https://excalidraw.com/Virgil.woff2");
      }
      @font-face {
        font-family: "Cascadia";
        src: url("https://excalidraw.com/Cascadia.woff2");
      }
      @font-face {
        font-family: "Assistant";
        src: url("https://app.excalidraw.com//dist/excalidraw-assets/Assistant-Regular.woff2");
      }
    </style>
    
  </defs>
  <g stroke-linecap="round"><g stroke-opacity="0.3" fill-opacity="0.3" transform="translate(10 90) rotate(0 60 -40)" fill-rule="evenodd"><path d="M0 0 L120 0 L120 -80 L0 -80 L40 -40 L0 0" stroke="none" stroke-width="0" fill="#f8f9fa" fill-rule="evenodd"></path><path d="M0 0 C30.69 0, 61.38 0, 120 0 M120 0 C120 -20.99, 120 -41.98, 120 -80 M120 -80 C79.07 -80, 38.14 -80, 0 -80 M0 -80 C8.89 -71.11, 17.78 -62.22, 40 -40 M40 -40 C24.02 -24.02, 8.05 -8.05, 0 0 M0 0 C0 0, 0 0, 0 0" stroke="#1e1e1e" stroke-width="2.5" fill="none" stroke-dasharray="8 10"></path></g></g><mask></mask></svg>