<svg version="1.1" xmlns="http://www.w3.org/2000/svg" viewBox="0 0 140 100" width="420" height="300">
  <!-- svg-source:excalidraw -->
  
  <defs>
    <style class="style-fonts">
      @font-face {
        font-family: "Virgil";
        src: url("https://excalidraw.com/Virgil.woff2");
      }
      @font-face {
        font-family: "Cascadia";
        src: url("https://excalidraw.com/Cascadia.woff2");
      }
      @font-face {
        font-family: "Assistant";
        src: url("https://app.excalidraw.com//dist/excalidraw-assets/Assistant-Regular.woff2");
      }
    </style>
    
  </defs>
  <g stroke-linecap="round"><g stroke-opacity="0.3" fill-opacity="0.3" transform="translate(10 10) rotate(0 60 40)" fill-rule="evenodd"><path d="M0 0 L0 80 L80 80 L120 40 L80 0 L0 0" stroke="none" stroke-width="0" fill="#f8f9fa" fill-rule="evenodd"></path><path d="M0 0 C0 25.85, 0 51.69, 0 80 M0 80 C23.57 80, 47.13 80, 80 80 M80 80 C95.23 64.77, 110.47 49.53, 120 40 M120 40 C105.56 25.56, 91.13 11.13, 80 0 M80 0 C56.94 0, 33.89 0, 0 0 M0 0 C0 0, 0 0, 0 0" stroke="#1e1e1e" stroke-width="2.5" fill="none" stroke-dasharray="8 10"></path></g></g><mask></mask></svg>