<svg version="1.1" xmlns="http://www.w3.org/2000/svg" viewBox="0 0 140 100" width="420" height="300">
  <!-- svg-source:excalidraw -->
  
  <defs>
    <style class="style-fonts">
      @font-face {
        font-family: "Virgil";
        src: url("https://excalidraw.com/Virgil.woff2");
      }
      @font-face {
        font-family: "Cascadia";
        src: url("https://excalidraw.com/Cascadia.woff2");
      }
      @font-face {
        font-family: "Assistant";
        src: url("https://app.excalidraw.com//dist/excalidraw-assets/Assistant-Regular.woff2");
      }
    </style>
    
  </defs>
  <g stroke-linecap="round"><g transform="translate(10 10) rotate(0 60 40)" fill-rule="evenodd"><path d="M0 0 L0 80 L80 80 L120 40 L80 0 L0 0" stroke="none" stroke-width="0" fill="#e9ecef" fill-rule="evenodd"></path><path d="M0 0 C0 26.47, 0 52.94, 0 80 M0 0 C0 28.4, 0 56.8, 0 80 M0 80 C25.32 80, 50.64 80, 80 80 M0 80 C16.14 80, 32.29 80, 80 80 M80 80 C94.23 65.77, 108.46 51.54, 120 40 M80 80 C94.7 65.3, 109.39 50.61, 120 40 M120 40 C108.57 28.57, 97.14 17.14, 80 0 M120 40 C104.67 24.67, 89.34 9.34, 80 0 M80 0 C54.17 0, 28.34 0, 0 0 M80 0 C55.51 0, 31.02 0, 0 0 M0 0 C0 0, 0 0, 0 0 M0 0 C0 0, 0 0, 0 0" stroke="#1e1e1e" stroke-width="4" fill="none"></path></g></g><mask></mask></svg>