<svg version="1.1" xmlns="http://www.w3.org/2000/svg" viewBox="0 0 160 100" width="480" height="300">
  <!-- svg-source:excalidraw -->
  
  <defs>
    <style class="style-fonts">
      @font-face {
        font-family: "Virgil";
        src: url("https://excalidraw.com/Virgil.woff2");
      }
      @font-face {
        font-family: "Cascadia";
        src: url("https://excalidraw.com/Cascadia.woff2");
      }
      @font-face {
        font-family: "Assistant";
        src: url("https://app.excalidraw.com//dist/excalidraw-assets/Assistant-Regular.woff2");
      }
    </style>
    
  </defs>
  <g stroke-linecap="round"><g stroke-opacity="0.3" fill-opacity="0.3" transform="translate(10 10) rotate(0 70 40)" fill-rule="evenodd"><path d="M0 0 L40 40 L0 80 L100 80 L140 40 L100 0 L0 0" stroke="none" stroke-width="0" fill="#f8f9fa" fill-rule="evenodd"></path><path d="M0 0 C11.52 11.52, 23.03 23.03, 40 40 M40 40 C28.32 51.68, 16.65 63.35, 0 80 M0 80 C29.36 80, 58.73 80, 100 80 M100 80 C115.3 64.7, 130.6 49.4, 140 40 M140 40 C130.12 30.12, 120.23 20.23, 100 0 M100 0 C62.26 0, 24.52 0, 0 0 M0 0 C0 0, 0 0, 0 0" stroke="#1e1e1e" stroke-width="2.5" fill="none" stroke-dasharray="8 10"></path></g></g><mask></mask></svg>