<svg version="1.1" xmlns="http://www.w3.org/2000/svg" viewBox="0 0 160 100" width="480" height="300">
  <!-- svg-source:excalidraw -->
  
  <defs>
    <style class="style-fonts">
      @font-face {
        font-family: "Virgil";
        src: url("https://excalidraw.com/Virgil.woff2");
      }
      @font-face {
        font-family: "Cascadia";
        src: url("https://excalidraw.com/Cascadia.woff2");
      }
      @font-face {
        font-family: "Assistant";
        src: url("https://app.excalidraw.com//dist/excalidraw-assets/Assistant-Regular.woff2");
      }
    </style>
    
  </defs>
  <g stroke-linecap="round"><g transform="translate(10 10) rotate(0 70 40)" fill-rule="evenodd"><path d="M0 0 L40 40 L0 80 L100 80 L140 40 L100 0 L0 0" stroke="none" stroke-width="0" fill="#e9ecef" fill-rule="evenodd"></path><path d="M0 0 C11.38 11.38, 22.77 22.77, 40 40 M0 0 C9.36 9.36, 18.71 18.71, 40 40 M40 40 C29.77 50.23, 19.54 60.46, 0 80 M40 40 C29.51 50.49, 19.01 60.99, 0 80 M0 80 C34.11 80, 68.21 80, 100 80 M0 80 C22.22 80, 44.44 80, 100 80 M100 80 C115.98 64.02, 131.95 48.05, 140 40 M100 80 C115.99 64.01, 131.97 48.03, 140 40 M140 40 C128.36 28.36, 116.73 16.73, 100 0 M140 40 C130.63 30.63, 121.25 21.25, 100 0 M100 0 C70.75 0, 41.5 0, 0 0 M100 0 C74.63 0, 49.27 0, 0 0 M0 0 C0 0, 0 0, 0 0 M0 0 C0 0, 0 0, 0 0" stroke="#1e1e1e" stroke-width="4" fill="none"></path></g></g><mask></mask></svg>