<svg width="85" height="70" viewBox="0 0 85 70" fill="none" xmlns="http://www.w3.org/2000/svg">
<path d="M29.45 44.42L42.77 12.93C42.8269 12.8058 42.8578 12.6713 42.8607 12.5348C42.8636 12.3982 42.8386 12.2625 42.787 12.136C42.7355 12.0095 42.6586 11.8949 42.5611 11.7993C42.4635 11.7037 42.3475 11.629 42.22 11.58C42.0928 11.5286 41.9571 11.5015 41.82 11.5H9.27999C9.07632 11.4957 8.87621 11.5538 8.70643 11.6664C8.53666 11.779 8.40532 11.9407 8.32999 12.13L3.10999 24.63C3.05 24.7558 3.01695 24.8927 3.01298 25.032C3.00901 25.1713 3.03419 25.3099 3.08692 25.4389C3.13965 25.5679 3.21875 25.6844 3.31916 25.7811C3.41957 25.8777 3.53907 25.9523 3.66999 26C3.79331 26.0525 3.92594 26.0797 4.05999 26.08H19.82C20.0852 26.08 20.3396 26.1854 20.5271 26.3729C20.7146 26.5604 20.82 26.8148 20.82 27.08C20.8185 27.2172 20.7914 27.3528 20.74 27.48L7.59999 59.07C7.54332 59.1948 7.51292 59.3299 7.51065 59.4669C7.50839 59.604 7.53432 59.74 7.58683 59.8666C7.63935 59.9932 7.71732 60.1076 7.81592 60.2028C7.91452 60.298 8.03163 60.372 8.15999 60.42C8.28331 60.4725 8.41594 60.4997 8.54999 60.5H43C43.2132 60.5141 43.4253 60.4596 43.6052 60.3445C43.7852 60.2293 43.9235 60.0595 44 59.86L49.22 47.28C49.2767 47.1552 49.3071 47.0201 49.3093 46.8831C49.3116 46.746 49.2857 46.61 49.2331 46.4834C49.1806 46.3568 49.1027 46.2423 49.0041 46.1472C48.9055 46.052 48.7883 45.978 48.66 45.93C48.5367 45.8775 48.404 45.8503 48.27 45.85H30.4C30.1348 45.85 29.8804 45.7446 29.6929 45.5571C29.5053 45.3696 29.4 45.1152 29.4 44.85C29.388 44.7048 29.405 44.5586 29.45 44.42Z" fill="white"/>
<path d="M37.17 41.58H50.88C51.0837 41.5843 51.2838 41.5262 51.4535 41.4136C51.6233 41.301 51.7547 41.1393 51.83 40.95L57.83 26.69C57.9053 26.5007 58.0367 26.339 58.2064 26.2264C58.3762 26.1138 58.5763 26.0557 58.78 26.06H76.41C76.622 26.0749 76.8332 26.0218 77.013 25.9085C77.1928 25.7953 77.3319 25.6276 77.41 25.43L82.63 12.93C82.6852 12.8007 82.7126 12.6613 82.7103 12.5207C82.7079 12.3801 82.676 12.2417 82.6166 12.1143C82.5571 11.9869 82.4715 11.8735 82.3652 11.7814C82.259 11.6893 82.1345 11.6207 82 11.58C81.8767 11.5275 81.744 11.5003 81.61 11.5H48.82C48.608 11.4851 48.3968 11.5382 48.217 11.6515C48.0371 11.7647 47.8981 11.9324 47.82 12.13L36.17 40.13C36.1131 40.2542 36.0822 40.3887 36.0793 40.5252C36.0763 40.6618 36.1014 40.7975 36.1529 40.924C36.2045 41.0505 36.2814 41.1651 36.3789 41.2607C36.4764 41.3563 36.5925 41.431 36.72 41.48C36.8612 41.5447 37.0146 41.5788 37.17 41.58Z" fill="white"/>
</svg>
